<svg width="375" height="383" viewBox="0 0 375 383" fill="none" xmlns="http://www.w3.org/2000/svg">
<g clip-path="url(#clip0_325_6441)">
<path d="M320.602 244.276C324.939 244.276 328.454 240.759 328.454 236.42C328.454 232.082 324.939 228.565 320.602 228.565C316.265 228.565 312.749 232.082 312.749 236.42C312.749 240.759 316.265 244.276 320.602 244.276Z" fill="#E8CEBF" fill-opacity="0.5"/>
<path d="M300.72 298.873C300.72 303.229 304.254 306.729 308.573 306.729C312.928 306.729 316.426 303.193 316.426 298.873C316.426 294.516 312.892 291.017 308.573 291.017C304.218 291.017 300.72 294.552 300.72 298.873Z" fill="#E8CEBF" fill-opacity="0.5"/>
<path d="M328.454 206.711C328.454 211.068 331.988 214.567 336.307 214.567C340.662 214.567 344.16 211.032 344.16 206.711C344.16 202.391 340.626 198.856 336.307 198.856C331.988 198.82 328.454 202.355 328.454 206.711Z" fill="#E8CEBF" fill-opacity="0.5"/>
<path d="M299.828 254.31C299.828 257.202 302.184 259.559 305.075 259.559C307.966 259.559 310.322 257.202 310.322 254.31C310.322 251.417 307.966 249.061 305.075 249.061C302.184 249.061 299.828 251.417 299.828 254.31Z" fill="#E8CEBF" fill-opacity="0.5"/>
<path d="M362.756 272.663C362.756 275.556 365.112 277.912 368.003 277.912C370.895 277.912 373.25 275.556 373.25 272.663C373.25 269.771 370.895 267.414 368.003 267.414C365.112 267.414 362.756 269.771 362.756 272.663Z" fill="#E8CEBF" fill-opacity="0.5"/>
<path d="M328.669 270.914C328.669 273.806 331.025 276.163 333.916 276.163C336.807 276.163 339.163 273.806 339.163 270.914C339.163 268.021 336.807 265.665 333.916 265.665C331.025 265.665 328.669 268.021 328.669 270.914Z" fill="#E8CEBF" fill-opacity="0.5"/>
<path d="M349.656 231.564C349.656 234.456 352.012 236.813 354.904 236.813C357.795 236.813 360.151 234.456 360.151 231.564C360.151 228.672 357.795 226.315 354.904 226.315C352.012 226.315 349.656 228.672 349.656 231.564Z" fill="#E8CEBF" fill-opacity="0.5"/>
<path d="M353.155 193.964C353.155 196.856 355.51 199.213 358.402 199.213C361.293 199.213 363.649 196.856 363.649 193.964C363.649 191.071 361.293 188.715 358.402 188.715C355.51 188.75 353.155 191.071 353.155 193.964Z" fill="#E8CEBF" fill-opacity="0.5"/>
<path d="M265.776 231.564C265.776 234.456 268.132 236.813 271.023 236.813C273.914 236.813 276.27 234.456 276.27 231.564C276.27 228.672 273.914 226.315 271.023 226.315C268.132 226.315 265.776 228.672 265.776 231.564Z" fill="#E8CEBF" fill-opacity="0.5"/>
<path d="M270.987 212.353C270.987 215.246 273.343 217.602 276.234 217.602C279.126 217.602 281.481 215.246 281.481 212.353C281.481 209.461 279.126 207.104 276.234 207.104C273.343 207.104 270.987 209.425 270.987 212.353Z" fill="#E8CEBF" fill-opacity="0.5"/>
<path d="M319.067 190.464C319.067 193.357 321.423 195.714 324.314 195.714C327.205 195.714 329.561 193.357 329.561 190.464C329.561 187.572 327.205 185.215 324.314 185.215C321.423 185.251 319.067 187.572 319.067 190.464Z" fill="#E8CEBF" fill-opacity="0.5"/>
<path d="M319.067 254.31C319.067 256.238 320.637 257.809 322.565 257.809C324.492 257.809 326.063 256.238 326.063 254.31C326.063 252.382 324.492 250.81 322.565 250.81C320.637 250.81 319.067 252.382 319.067 254.31Z" fill="#E8CEBF" fill-opacity="0.5"/>
<path d="M279.732 256.916C279.732 258.845 281.303 260.416 283.23 260.416C285.158 260.416 286.728 258.845 286.728 256.916C286.728 254.988 285.158 253.417 283.23 253.417C281.303 253.417 279.732 254.988 279.732 256.916Z" fill="#E8CEBF" fill-opacity="0.5"/>
<path d="M286.728 291.91C288.66 291.91 290.226 290.343 290.226 288.41C290.226 286.478 288.66 284.911 286.728 284.911C284.796 284.911 283.23 286.478 283.23 288.41C283.23 290.343 284.796 291.91 286.728 291.91Z" fill="#E8CEBF" fill-opacity="0.5"/>
<path d="M310.322 204.462C312.254 204.462 313.82 202.895 313.82 200.963C313.82 199.03 312.254 197.463 310.322 197.463C308.39 197.463 306.824 199.03 306.824 200.963C306.824 202.895 308.39 204.462 310.322 204.462Z" fill="#E8CEBF" fill-opacity="0.5"/>
<path d="M286.728 228.065C288.66 228.065 290.226 226.498 290.226 224.565C290.226 222.633 288.66 221.066 286.728 221.066C284.796 221.066 283.23 222.633 283.23 224.565C283.23 226.498 284.796 228.065 286.728 228.065Z" fill="#E8CEBF" fill-opacity="0.5"/>
<path d="M294.581 221.959C294.581 226.315 298.115 229.814 302.434 229.814C306.788 229.814 310.286 226.279 310.286 221.959C310.286 217.602 306.753 214.103 302.434 214.103C298.115 214.103 294.581 217.602 294.581 221.959Z" fill="#E8CEBF" fill-opacity="0.5"/>
<path d="M289.37 273.52C289.37 277.877 292.903 281.376 297.222 281.376C301.577 281.376 305.075 277.841 305.075 273.52C305.075 269.164 301.541 265.665 297.222 265.665C292.868 265.665 289.37 269.2 289.37 273.52Z" fill="#E8CEBF" fill-opacity="0.5"/>
<path d="M281.695 239.848C281.695 242.74 284.051 245.097 286.942 245.097C289.834 245.097 292.189 242.74 292.189 239.848C292.189 236.956 289.834 234.599 286.942 234.599C284.051 234.599 281.695 236.92 281.695 239.848Z" fill="#E8CEBF" fill-opacity="0.5"/>
<path d="M264.027 257.809C264.027 260.701 266.383 263.058 269.274 263.058C272.165 263.058 274.521 260.701 274.521 257.809C274.521 254.917 272.165 252.56 269.274 252.56C266.383 252.56 264.027 254.917 264.027 257.809Z" fill="#E8CEBF" fill-opacity="0.5"/>
<path d="M364.505 245.561C364.505 248.454 366.861 250.81 369.752 250.81C372.644 250.81 374.999 248.454 374.999 245.561C374.999 242.669 372.644 240.312 369.752 240.312C366.861 240.312 364.505 242.669 364.505 245.561Z" fill="#E8CEBF" fill-opacity="0.5"/>
<path d="M333.059 244.669C333.059 247.561 335.415 249.918 338.306 249.918C341.197 249.918 343.553 247.561 343.553 244.669C343.553 241.776 341.197 239.42 338.306 239.42C335.415 239.42 333.059 241.776 333.059 244.669Z" fill="#E8CEBF" fill-opacity="0.5"/>
<path d="M330.417 224.565C330.417 227.458 332.773 229.814 335.664 229.814C338.556 229.814 340.911 227.458 340.911 224.565C340.911 221.673 338.556 219.316 335.664 219.316C332.773 219.316 330.417 221.673 330.417 224.565Z" fill="#E8CEBF" fill-opacity="0.5"/>
<path d="M285.872 206.212C285.872 209.104 288.227 211.461 291.119 211.461C294.01 211.461 296.366 209.104 296.366 206.212C296.366 203.319 294.01 200.963 291.119 200.963C288.192 200.963 285.872 203.319 285.872 206.212Z" fill="#E8CEBF" fill-opacity="0.5"/>
<path d="M310.322 270.914C310.322 273.806 312.678 276.163 315.569 276.163C318.46 276.163 320.816 273.806 320.816 270.914C320.816 268.021 318.46 265.665 315.569 265.665C312.678 265.665 310.322 268.021 310.322 270.914Z" fill="#E8CEBF" fill-opacity="0.5"/>
<path d="M304.432 243.347C306.364 243.347 307.93 241.781 307.93 239.848C307.93 237.915 306.364 236.349 304.432 236.349C302.5 236.349 300.934 237.915 300.934 239.848C300.934 241.781 302.5 243.347 304.432 243.347Z" fill="#E8CEBF" fill-opacity="0.5"/>
<path d="M336.557 297.123C336.557 299.051 338.127 300.623 340.055 300.623C341.982 300.623 343.553 299.051 343.553 297.123C343.553 295.195 341.982 293.624 340.055 293.624C338.092 293.624 336.557 295.195 336.557 297.123Z" fill="#E8CEBF" fill-opacity="0.5"/>
<path d="M329.561 289.267C331.493 289.267 333.059 287.701 333.059 285.768C333.059 283.835 331.493 282.269 329.561 282.269C327.629 282.269 326.063 283.835 326.063 285.768C326.063 287.701 327.629 289.267 329.561 289.267Z" fill="#E8CEBF" fill-opacity="0.5"/>
<path d="M259.637 209.711C261.569 209.711 263.135 208.144 263.135 206.212C263.135 204.279 261.569 202.712 259.637 202.712C257.705 202.712 256.139 204.279 256.139 206.212C256.139 208.144 257.705 209.711 259.637 209.711Z" fill="#E8CEBF" fill-opacity="0.5"/>
<path d="M357.509 220.209C359.441 220.209 361.007 218.642 361.007 216.71C361.007 214.777 359.441 213.21 357.509 213.21C355.577 213.21 354.011 214.777 354.011 216.71C354.011 218.642 355.577 220.209 357.509 220.209Z" fill="#E8CEBF" fill-opacity="0.5"/>
<path d="M319.067 221.066C320.999 221.066 322.565 219.499 322.565 217.567C322.565 215.634 320.999 214.067 319.067 214.067C317.135 214.067 315.569 215.634 315.569 217.567C315.569 219.499 317.135 221.066 319.067 221.066Z" fill="#E8CEBF" fill-opacity="0.5"/>
<path d="M347.015 279.662C347.015 281.59 348.586 283.161 350.513 283.161C352.441 283.161 354.011 281.59 354.011 279.662C354.011 277.734 352.441 276.163 350.513 276.163C348.586 276.163 347.015 277.734 347.015 279.662Z" fill="#E8CEBF" fill-opacity="0.5"/>
<path d="M298.079 184.358C298.079 186.287 299.649 187.858 301.577 187.858C303.504 187.858 305.075 186.287 305.075 184.358C305.075 182.43 303.504 180.859 301.577 180.859C299.649 180.859 298.079 182.43 298.079 184.358Z" fill="#E8CEBF" fill-opacity="0.5"/>
<path d="M257.031 246.418C258.963 246.418 260.529 244.852 260.529 242.919C260.529 240.986 258.963 239.42 257.031 239.42C255.099 239.42 253.533 240.986 253.533 242.919C253.533 244.852 255.099 246.418 257.031 246.418Z" fill="#E8CEBF" fill-opacity="0.5"/>
<path d="M275.378 278.769C277.31 278.769 278.876 277.203 278.876 275.27C278.876 273.337 277.31 271.771 275.378 271.771C273.446 271.771 271.88 273.337 271.88 275.27C271.88 277.203 273.446 278.769 275.378 278.769Z" fill="#E8CEBF" fill-opacity="0.5"/>
<path d="M350.513 259.559C350.513 261.487 352.084 263.058 354.011 263.058C355.939 263.058 357.509 261.487 357.509 259.559C357.509 257.631 355.939 256.059 354.011 256.059C352.084 256.059 350.513 257.631 350.513 259.559Z" fill="#E8CEBF" fill-opacity="0.5"/>
<path d="M287.621 121.085C287.621 125.441 291.154 128.94 295.473 128.94C299.828 128.94 303.326 125.405 303.326 121.085C303.326 116.764 299.792 113.229 295.473 113.229C291.154 113.193 287.621 116.728 287.621 121.085Z" fill="#E8CEBF" fill-opacity="0.5"/>
<path d="M275.592 183.537C275.592 187.894 279.126 191.393 283.444 191.393C287.799 191.393 291.297 187.858 291.297 183.537C291.297 179.217 287.763 175.682 283.444 175.682C279.126 175.682 275.592 179.181 275.592 183.537Z" fill="#E8CEBF" fill-opacity="0.5"/>
<path d="M303.362 91.3401C303.362 95.6964 306.896 99.1958 311.214 99.1958C315.569 99.1958 319.067 95.6607 319.067 91.3401C319.067 87.0195 315.533 83.4844 311.214 83.4844C306.86 83.4844 303.362 87.0195 303.362 91.3401Z" fill="#E8CEBF" fill-opacity="0.5"/>
<path d="M274.735 138.938C274.735 141.831 277.091 144.187 279.982 144.187C282.873 144.187 285.229 141.831 285.229 138.938C285.229 136.046 282.873 133.689 279.982 133.689C277.055 133.725 274.735 136.046 274.735 138.938Z" fill="#E8CEBF" fill-opacity="0.5"/>
<path d="M337.628 157.328C337.628 160.22 339.984 162.577 342.875 162.577C345.766 162.577 348.122 160.22 348.122 157.328C348.122 154.436 345.766 152.079 342.875 152.079C339.984 152.079 337.628 154.4 337.628 157.328Z" fill="#E8CEBF" fill-opacity="0.5"/>
<path d="M303.576 155.578C303.576 158.47 305.932 160.827 308.823 160.827C311.714 160.827 314.07 158.47 314.07 155.578C314.07 152.686 311.714 150.329 308.823 150.329C305.932 150.329 303.576 152.65 303.576 155.578Z" fill="#E8CEBF" fill-opacity="0.5"/>
<path d="M324.528 116.228C324.528 119.121 326.884 121.477 329.775 121.477C332.666 121.477 335.022 119.121 335.022 116.228C335.022 113.336 332.666 110.979 329.775 110.979C326.884 110.979 324.528 113.336 324.528 116.228Z" fill="#E8CEBF" fill-opacity="0.5"/>
<path d="M328.026 78.6282C328.026 81.5205 330.382 83.8772 333.273 83.8772C336.164 83.8772 338.52 81.5205 338.52 78.6282C338.52 75.7359 336.164 73.3792 333.273 73.3792C330.382 73.3792 328.026 75.7359 328.026 78.6282Z" fill="#E8CEBF" fill-opacity="0.5"/>
<path d="M240.647 116.228C240.647 119.121 243.003 121.477 245.894 121.477C248.786 121.477 251.141 119.121 251.141 116.228C251.141 113.336 248.786 110.979 245.894 110.979C243.003 110.979 240.647 113.336 240.647 116.228Z" fill="#E8CEBF" fill-opacity="0.5"/>
<path d="M245.895 96.9819C245.895 99.8742 248.25 102.231 251.142 102.231C254.033 102.231 256.389 99.8742 256.389 96.9819C256.389 94.0896 254.033 91.7329 251.142 91.7329C248.25 91.7329 245.895 94.0896 245.895 96.9819Z" fill="#E8CEBF" fill-opacity="0.5"/>
<path d="M293.938 75.1288C293.938 78.0212 296.294 80.3779 299.185 80.3779C302.077 80.3779 304.432 78.0212 304.432 75.1288C304.432 72.2365 302.077 69.8798 299.185 69.8798C296.294 69.8798 293.938 72.2365 293.938 75.1288Z" fill="#E8CEBF" fill-opacity="0.5"/>
<path d="M293.938 138.938C293.938 140.867 295.509 142.438 297.436 142.438C299.364 142.438 300.934 140.867 300.934 138.938C300.934 137.01 299.364 135.439 297.436 135.439C295.509 135.475 293.938 137.01 293.938 138.938Z" fill="#E8CEBF" fill-opacity="0.5"/>
<path d="M258.102 145.08C260.034 145.08 261.6 143.513 261.6 141.581C261.6 139.648 260.034 138.081 258.102 138.081C256.17 138.081 254.604 139.648 254.604 141.581C254.604 143.513 256.17 145.08 258.102 145.08Z" fill="#E8CEBF" fill-opacity="0.5"/>
<path d="M261.6 176.538C263.532 176.538 265.098 174.972 265.098 173.039C265.098 171.107 263.532 169.54 261.6 169.54C259.668 169.54 258.102 171.107 258.102 173.039C258.102 174.972 259.668 176.538 261.6 176.538Z" fill="#E8CEBF" fill-opacity="0.5"/>
<path d="M285.194 89.1262C287.125 89.1262 288.692 87.5595 288.692 85.6269C288.692 83.6942 287.125 82.1275 285.194 82.1275C283.262 82.1275 281.696 83.6942 281.696 85.6269C281.696 87.5595 283.262 89.1262 285.194 89.1262Z" fill="#E8CEBF" fill-opacity="0.5"/>
<path d="M261.6 112.729C263.532 112.729 265.098 111.162 265.098 109.23C265.098 107.297 263.532 105.73 261.6 105.73C259.668 105.73 258.102 107.297 258.102 109.23C258.102 111.162 259.668 112.729 261.6 112.729Z" fill="#E8CEBF" fill-opacity="0.5"/>
<path d="M269.488 106.623C269.488 110.979 273.022 114.479 277.341 114.479C281.696 114.479 285.194 110.944 285.194 106.623C285.194 102.267 281.66 98.7673 277.341 98.7673C272.986 98.7316 269.488 102.267 269.488 106.623Z" fill="#E8CEBF" fill-opacity="0.5"/>
<path d="M264.241 158.185C264.241 162.541 267.775 166.04 272.094 166.04C276.449 166.04 279.947 162.505 279.947 158.185C279.947 153.828 276.413 150.329 272.094 150.329C267.775 150.329 264.241 153.828 264.241 158.185Z" fill="#E8CEBF" fill-opacity="0.5"/>
<path d="M256.567 124.477C256.567 127.369 258.923 129.726 261.814 129.726C264.705 129.726 267.061 127.369 267.061 124.477C267.061 121.584 264.705 119.228 261.814 119.228C258.923 119.228 256.567 121.584 256.567 124.477Z" fill="#E8CEBF" fill-opacity="0.5"/>
<path d="M238.898 142.438C238.898 145.33 241.254 147.687 244.145 147.687C247.037 147.687 249.392 145.33 249.392 142.438C249.392 139.545 247.037 137.189 244.145 137.189C241.254 137.189 238.898 139.545 238.898 142.438Z" fill="#E8CEBF" fill-opacity="0.5"/>
<path d="M339.377 130.226C339.377 133.118 341.733 135.475 344.624 135.475C347.515 135.475 349.871 133.118 349.871 130.226C349.871 127.333 347.515 124.977 344.624 124.977C341.733 124.977 339.377 127.298 339.377 130.226Z" fill="#E8CEBF" fill-opacity="0.5"/>
<path d="M307.93 129.333C307.93 132.225 310.286 134.582 313.177 134.582C316.069 134.582 318.424 132.225 318.424 129.333C318.424 126.441 316.069 124.084 313.177 124.084C310.286 124.084 307.93 126.441 307.93 129.333Z" fill="#E8CEBF" fill-opacity="0.5"/>
<path d="M305.325 109.23C305.325 112.122 307.681 114.479 310.572 114.479C313.463 114.479 315.819 112.122 315.819 109.23C315.819 106.337 313.463 103.981 310.572 103.981C307.681 103.981 305.325 106.337 305.325 109.23Z" fill="#E8CEBF" fill-opacity="0.5"/>
<path d="M260.743 90.8759C260.743 93.7682 263.099 96.1249 265.99 96.1249C268.881 96.1249 271.237 93.7682 271.237 90.8759C271.237 87.9836 268.881 85.6269 265.99 85.6269C263.099 85.6269 260.743 87.9836 260.743 90.8759Z" fill="#E8CEBF" fill-opacity="0.5"/>
<path d="M285.194 155.578C285.194 158.47 287.549 160.827 290.441 160.827C293.332 160.827 295.688 158.47 295.688 155.578C295.688 152.686 293.332 150.329 290.441 150.329C287.549 150.329 285.194 152.65 285.194 155.578Z" fill="#E8CEBF" fill-opacity="0.5"/>
<path d="M279.304 127.976C281.236 127.976 282.802 126.409 282.802 124.477C282.802 122.544 281.236 120.977 279.304 120.977C277.372 120.977 275.806 122.544 275.806 124.477C275.806 126.409 277.372 127.976 279.304 127.976Z" fill="#E8CEBF" fill-opacity="0.5"/>
<path d="M311.428 181.788C311.428 183.716 312.999 185.287 314.926 185.287C316.854 185.287 318.424 183.716 318.424 181.788C318.424 179.859 316.854 178.288 314.926 178.288C312.999 178.288 311.428 179.859 311.428 181.788Z" fill="#E8CEBF" fill-opacity="0.5"/>
<path d="M300.935 170.433C300.935 172.361 302.505 173.932 304.433 173.932C306.36 173.932 307.931 172.361 307.931 170.433C307.931 168.504 306.36 166.933 304.433 166.933C302.505 166.933 300.935 168.504 300.935 170.433Z" fill="#E8CEBF" fill-opacity="0.5"/>
<path d="M234.508 94.3753C236.44 94.3753 238.006 92.8085 238.006 90.8759C238.006 88.9433 236.44 87.3766 234.508 87.3766C232.576 87.3766 231.01 88.9433 231.01 90.8759C231.01 92.8085 232.576 94.3753 234.508 94.3753Z" fill="#E8CEBF" fill-opacity="0.5"/>
<path d="M328.918 101.374C328.918 103.302 330.489 104.873 332.416 104.873C334.344 104.873 335.914 103.302 335.914 101.374C335.914 99.4457 334.344 97.8746 332.416 97.8746C330.453 97.8746 328.918 99.4457 328.918 101.374Z" fill="#E8CEBF" fill-opacity="0.5"/>
<path d="M293.938 105.73C295.87 105.73 297.436 104.164 297.436 102.231C297.436 100.298 295.87 98.7316 293.938 98.7316C292.007 98.7316 290.44 100.298 290.44 102.231C290.44 104.164 292.007 105.73 293.938 105.73Z" fill="#E8CEBF" fill-opacity="0.5"/>
<path d="M325.421 167.79C327.352 167.79 328.919 166.223 328.919 164.291C328.919 162.358 327.352 160.791 325.421 160.791C323.489 160.791 321.923 162.358 321.923 164.291C321.923 166.223 323.489 167.79 325.421 167.79Z" fill="#E8CEBF" fill-opacity="0.5"/>
<path d="M272.986 69.0228C272.986 70.9511 274.557 72.5222 276.484 72.5222C278.412 72.5222 279.982 70.9511 279.982 69.0228C279.982 67.0946 278.412 65.5235 276.484 65.5235C274.557 65.5235 272.986 67.0946 272.986 69.0228Z" fill="#E8CEBF" fill-opacity="0.5"/>
<path d="M231.903 131.083C233.834 131.083 235.401 129.516 235.401 127.583C235.401 125.651 233.834 124.084 231.903 124.084C229.971 124.084 228.405 125.651 228.405 127.583C228.405 129.516 229.971 131.083 231.903 131.083Z" fill="#E8CEBF" fill-opacity="0.5"/>
<path d="M246.751 159.934C246.751 161.863 248.322 163.434 250.249 163.434C252.177 163.434 253.747 161.863 253.747 159.934C253.747 158.006 252.177 156.435 250.249 156.435C248.322 156.435 246.751 158.006 246.751 159.934Z" fill="#E8CEBF" fill-opacity="0.5"/>
<path d="M328.918 147.687C330.85 147.687 332.416 146.12 332.416 144.187C332.416 142.255 330.85 140.688 328.918 140.688C326.987 140.688 325.42 142.255 325.42 144.187C325.42 146.12 326.987 147.687 328.918 147.687Z" fill="#E8CEBF" fill-opacity="0.5"/>
<path d="M198.637 309.299C202.956 309.728 206.811 306.55 207.203 302.229C207.631 297.909 204.455 294.052 200.136 293.66C195.817 293.231 191.962 296.409 191.569 300.73C191.141 305.05 194.318 308.907 198.637 309.299Z" fill="#E8CEBF" fill-opacity="0.5"/>
<path d="M259.673 327.189C263.992 327.617 267.847 324.439 268.24 320.119C268.668 315.798 265.491 311.942 261.172 311.549C256.853 311.121 252.998 314.299 252.606 318.619C252.177 322.94 255.354 326.796 259.673 327.189Z" fill="#E8CEBF" fill-opacity="0.5"/>
<path d="M170.545 290.839C174.864 291.267 178.719 288.089 179.112 283.769C179.54 279.448 176.363 275.591 172.044 275.199C167.725 274.77 163.871 277.948 163.478 282.269C163.05 286.589 166.226 290.41 170.545 290.839Z" fill="#E8CEBF" fill-opacity="0.5"/>
<path d="M215.234 323.832C218.125 324.118 220.66 321.976 220.945 319.119C221.231 316.227 219.089 313.691 216.234 313.406C213.342 313.12 210.808 315.263 210.523 318.119C210.237 321.012 212.343 323.583 215.234 323.832Z" fill="#E8CEBF" fill-opacity="0.5"/>
<path d="M239.435 262.915C242.326 263.201 244.86 261.058 245.146 258.202C245.431 255.31 243.29 252.774 240.434 252.489C237.543 252.203 235.009 254.345 234.723 257.202C234.438 260.094 236.579 262.63 239.435 262.915Z" fill="#E8CEBF" fill-opacity="0.5"/>
<path d="M234.473 296.695C237.364 296.98 239.899 294.838 240.184 291.981C240.47 289.089 238.328 286.554 235.473 286.268C232.581 285.982 230.047 288.125 229.762 290.981C229.476 293.874 231.582 296.409 234.473 296.695Z" fill="#E8CEBF" fill-opacity="0.5"/>
<path d="M197.316 272.092C200.207 272.378 202.741 270.235 203.027 267.379C203.312 264.486 201.171 261.951 198.315 261.665C195.424 261.38 192.89 263.522 192.604 266.379C192.319 269.235 194.425 271.806 197.316 272.092Z" fill="#E8CEBF" fill-opacity="0.5"/>
<path d="M160.23 265.058C163.121 265.343 165.655 263.201 165.941 260.344C166.227 257.452 164.085 254.917 161.229 254.631C158.338 254.345 155.804 256.488 155.518 259.345C155.233 262.201 157.339 264.772 160.23 265.058Z" fill="#E8CEBF" fill-opacity="0.5"/>
<path d="M189.356 355.648C192.247 355.934 194.782 353.791 195.067 350.935C195.353 348.042 193.211 345.507 190.355 345.221C187.464 344.936 184.93 347.078 184.644 349.935C184.359 352.791 186.501 355.362 189.356 355.648Z" fill="#E8CEBF" fill-opacity="0.5"/>
<path d="M170.724 348.578C173.615 348.864 176.149 346.721 176.435 343.864C176.72 340.972 174.579 338.437 171.723 338.151C168.832 337.866 166.298 340.008 166.012 342.865C165.727 345.757 167.833 348.328 170.724 348.578Z" fill="#E8CEBF" fill-opacity="0.5"/>
<path d="M153.519 298.659C156.411 298.944 158.945 296.802 159.23 293.945C159.516 291.053 157.374 288.518 154.519 288.232C151.628 287.946 149.093 290.089 148.808 292.945C148.522 295.802 150.664 298.373 153.519 298.659Z" fill="#E8CEBF" fill-opacity="0.5"/>
<path d="M217.054 304.693C218.982 304.872 220.695 303.479 220.874 301.551C221.052 299.623 219.66 297.909 217.733 297.73C215.805 297.552 214.092 298.944 213.913 300.872C213.699 302.801 215.127 304.515 217.054 304.693Z" fill="#E8CEBF" fill-opacity="0.5"/>
<path d="M215.912 344.114C217.84 344.293 219.553 342.9 219.732 340.972C219.91 339.044 218.518 337.33 216.591 337.151C214.663 336.973 212.95 338.365 212.771 340.294C212.593 342.222 213.985 343.936 215.912 344.114Z" fill="#E8CEBF" fill-opacity="0.5"/>
<path d="M247.573 343.614C249.5 343.793 251.213 342.4 251.392 340.472C251.57 338.544 250.178 336.83 248.251 336.651C246.323 336.473 244.61 337.866 244.432 339.794C244.253 341.722 245.645 343.436 247.573 343.614Z" fill="#E8CEBF" fill-opacity="0.5"/>
<path d="M162.8 311.835C164.727 312.013 166.441 310.621 166.619 308.692C166.798 306.764 165.406 305.05 163.478 304.872C161.551 304.693 159.837 306.086 159.659 308.014C159.48 309.942 160.908 311.656 162.8 311.835Z" fill="#E8CEBF" fill-opacity="0.5"/>
<path d="M184.073 337.58C186.001 337.758 187.714 336.366 187.893 334.438C188.071 332.509 186.679 330.795 184.752 330.617C182.824 330.438 181.111 331.831 180.932 333.759C180.718 335.687 182.146 337.366 184.073 337.58Z" fill="#E8CEBF" fill-opacity="0.5"/>
<path d="M182.538 326.011C186.857 326.439 190.712 323.261 191.105 318.941C191.533 314.62 188.357 310.763 184.038 310.371C179.719 309.942 175.864 313.12 175.471 317.441C175.043 321.761 178.22 325.582 182.538 326.011Z" fill="#E8CEBF" fill-opacity="0.5"/>
<path d="M233.367 336.116C237.686 336.544 241.54 333.366 241.933 329.046C242.361 324.725 239.185 320.869 234.866 320.476C230.547 320.047 226.692 323.225 226.299 327.546C225.871 331.867 229.048 335.687 233.367 336.116Z" fill="#E8CEBF" fill-opacity="0.5"/>
<path d="M199.101 340.544C201.992 340.829 204.526 338.687 204.812 335.83C205.097 332.938 202.956 330.403 200.1 330.117C197.209 329.831 194.675 331.974 194.389 334.83C194.103 337.687 196.209 340.258 199.101 340.544Z" fill="#E8CEBF" fill-opacity="0.5"/>
<path d="M215.306 359.861C218.197 360.147 220.731 358.005 221.017 355.148C221.302 352.256 219.161 349.721 216.305 349.435C213.414 349.149 210.88 351.292 210.594 354.148C210.308 357.005 212.414 359.576 215.306 359.861Z" fill="#E8CEBF" fill-opacity="0.5"/>
<path d="M212.629 258.63C215.52 258.916 218.054 256.774 218.34 253.917C218.625 251.025 216.483 248.489 213.628 248.204C210.737 247.918 208.202 250.061 207.917 252.917C207.631 255.774 209.773 258.345 212.629 258.63Z" fill="#E8CEBF" fill-opacity="0.5"/>
<path d="M208.809 289.875C211.7 290.16 214.235 288.018 214.52 285.161C214.806 282.269 212.664 279.734 209.809 279.448C206.918 279.162 204.383 281.305 204.098 284.161C203.812 287.018 205.918 289.589 208.809 289.875Z" fill="#E8CEBF" fill-opacity="0.5"/>
<path d="M188.535 290.553C191.426 290.839 193.961 288.696 194.246 285.84C194.532 282.947 192.39 280.412 189.535 280.126C186.643 279.841 184.109 281.983 183.824 284.84C183.538 287.732 185.644 290.303 188.535 290.553Z" fill="#E8CEBF" fill-opacity="0.5"/>
<path d="M166.048 333.224C168.939 333.509 171.474 331.367 171.759 328.51C172.045 325.618 169.903 323.083 167.047 322.797C164.156 322.511 161.622 324.654 161.336 327.51C161.051 330.367 163.157 332.938 166.048 333.224Z" fill="#E8CEBF" fill-opacity="0.5"/>
<path d="M232.724 314.977C235.615 315.263 238.15 313.12 238.435 310.264C238.721 307.371 236.579 304.836 233.724 304.55C230.832 304.265 228.298 306.407 228.013 309.264C227.727 312.156 229.869 314.691 232.724 314.977Z" fill="#E8CEBF" fill-opacity="0.5"/>
<path d="M200.921 321.404C202.848 321.583 204.562 320.19 204.74 318.262C204.919 316.334 203.527 314.62 201.599 314.441C199.672 314.263 197.958 315.655 197.78 317.584C197.601 319.512 198.993 321.19 200.921 321.404Z" fill="#E8CEBF" fill-opacity="0.5"/>
<path d="M261.315 291.338C263.242 291.517 264.956 290.124 265.134 288.196C265.313 286.268 263.921 284.554 261.993 284.376C260.066 284.197 258.352 285.59 258.174 287.518C257.995 289.446 259.387 291.16 261.315 291.338Z" fill="#E8CEBF" fill-opacity="0.5"/>
<path d="M249.001 300.73C250.928 300.908 252.641 299.516 252.82 297.587C252.998 295.659 251.606 293.945 249.679 293.767C247.751 293.588 246.038 294.981 245.86 296.909C245.681 298.837 247.109 300.515 249.001 300.73Z" fill="#E8CEBF" fill-opacity="0.5"/>
<path d="M163.228 362.789C165.156 362.968 166.869 361.575 167.047 359.647C167.226 357.719 165.834 356.005 163.906 355.826C161.979 355.648 160.266 357.04 160.087 358.969C159.909 360.897 161.301 362.611 163.228 362.789Z" fill="#E8CEBF" fill-opacity="0.5"/>
<path d="M182.931 266.343C184.859 266.522 186.572 265.129 186.75 263.201C186.929 261.273 185.537 259.559 183.609 259.38C181.682 259.202 179.969 260.594 179.79 262.522C179.612 264.451 181.004 266.129 182.931 266.343Z" fill="#E8CEBF" fill-opacity="0.5"/>
<path d="M180.183 304.693C182.11 304.872 183.824 303.479 184.002 301.551C184.181 299.623 182.789 297.909 180.861 297.73C178.934 297.552 177.22 298.944 177.042 300.872C176.828 302.801 178.255 304.515 180.183 304.693Z" fill="#E8CEBF" fill-opacity="0.5"/>
<path d="M244.931 279.234C246.859 279.412 248.572 278.02 248.751 276.091C248.929 274.163 247.537 272.449 245.61 272.271C243.682 272.092 241.969 273.485 241.79 275.413C241.576 277.377 243.004 279.055 244.931 279.234Z" fill="#E8CEBF" fill-opacity="0.5"/>
<path d="M145.453 318.976C147.38 319.155 149.093 317.762 149.272 315.834C149.45 313.906 148.058 312.192 146.131 312.013C144.203 311.835 142.49 313.227 142.312 315.156C142.133 317.084 143.525 318.762 145.453 318.976Z" fill="#E8CEBF" fill-opacity="0.5"/>
<path d="M199.529 368.895C201.456 369.074 203.17 367.681 203.348 365.753C203.527 363.825 202.134 362.111 200.207 361.932C198.28 361.754 196.566 363.147 196.388 365.075C196.174 367.003 197.601 368.717 199.529 368.895Z" fill="#E8CEBF" fill-opacity="0.5"/>
<path d="M233.438 353.684C235.365 353.863 237.079 352.47 237.257 350.542C237.436 348.614 236.044 346.9 234.116 346.721C232.189 346.543 230.475 347.935 230.297 349.863C230.118 351.792 231.511 353.506 233.438 353.684Z" fill="#E8CEBF" fill-opacity="0.5"/>
<path d="M225.228 273.877C227.156 274.056 228.869 272.663 229.048 270.735C229.226 268.807 227.834 267.093 225.907 266.915C223.979 266.736 222.266 268.129 222.087 270.057C221.909 271.985 223.301 273.663 225.228 273.877Z" fill="#E8CEBF" fill-opacity="0.5"/>
<path d="M81.4891 323.404C85.8081 323.832 89.663 320.654 90.0557 316.334C90.484 312.013 87.3073 308.157 82.9883 307.764C78.6693 307.336 74.8144 310.514 74.4218 314.834C73.9934 319.155 77.1702 322.975 81.4891 323.404Z" fill="#E8CEBF" fill-opacity="0.5"/>
<path d="M142.49 341.293C146.809 341.722 150.664 338.544 151.056 334.223C151.485 329.903 148.308 326.046 143.989 325.654C139.67 325.225 135.815 328.403 135.422 332.724C134.994 337.044 138.171 340.865 142.49 341.293Z" fill="#E8CEBF" fill-opacity="0.5"/>
<path d="M53.3981 304.907C57.717 305.336 61.572 302.158 61.9646 297.837C62.3929 293.517 59.2162 289.66 54.8972 289.267C50.5783 288.839 46.7233 292.017 46.3307 296.338C45.9024 300.658 49.0791 304.515 53.3981 304.907Z" fill="#E8CEBF" fill-opacity="0.5"/>
<path d="M98.051 337.937C100.942 338.223 103.476 336.08 103.762 333.224C104.048 330.331 101.906 327.796 99.0504 327.51C96.1592 327.225 93.625 329.367 93.3394 332.224C93.0538 335.116 95.1598 337.651 98.051 337.937Z" fill="#E8CEBF" fill-opacity="0.5"/>
<path d="M122.287 277.02C125.178 277.305 127.713 275.163 127.998 272.306C128.284 269.414 126.142 266.879 123.287 266.593C120.395 266.307 117.861 268.45 117.575 271.307C117.29 274.163 119.396 276.734 122.287 277.02Z" fill="#E8CEBF" fill-opacity="0.5"/>
<path d="M117.326 310.799C120.217 311.085 122.751 308.942 123.037 306.086C123.322 303.193 121.181 300.658 118.325 300.373C115.434 300.087 112.9 302.229 112.614 305.086C112.329 307.943 114.434 310.514 117.326 310.799Z" fill="#E8CEBF" fill-opacity="0.5"/>
<path d="M80.1684 286.161C83.0596 286.447 85.5939 284.304 85.8794 281.448C86.165 278.555 84.0234 276.02 81.1679 275.734C78.3123 275.449 75.7424 277.591 75.4568 280.448C75.1713 283.34 77.2772 285.911 80.1684 286.161Z" fill="#E8CEBF" fill-opacity="0.5"/>
<path d="M43.0825 279.127C45.9737 279.412 48.508 277.27 48.7935 274.413C49.0791 271.521 46.9374 268.986 44.0819 268.7C41.1907 268.414 38.6564 270.557 38.3709 273.413C38.0853 276.306 40.1913 278.877 43.0825 279.127Z" fill="#E8CEBF" fill-opacity="0.5"/>
<path d="M72.2087 369.717C75.0999 370.002 77.6342 367.86 77.9197 365.003C78.2053 362.111 76.0637 359.576 73.2081 359.29C70.3169 359.004 67.7827 361.147 67.4971 364.004C67.2116 366.896 69.3175 369.431 72.2087 369.717Z" fill="#E8CEBF" fill-opacity="0.5"/>
<path d="M53.5764 362.682C56.4676 362.968 59.0019 360.826 59.2874 357.969C59.573 355.077 57.4313 352.541 54.5758 352.256C51.6846 351.97 49.1503 354.113 48.8648 356.969C48.5792 359.861 50.6852 362.397 53.5764 362.682Z" fill="#E8CEBF" fill-opacity="0.5"/>
<path d="M36.372 312.727C39.2632 313.013 41.7975 310.871 42.0831 308.014C42.3686 305.122 40.227 302.586 37.3715 302.301C34.4803 302.015 31.946 304.158 31.6604 307.014C31.3749 309.906 33.4808 312.477 36.372 312.727Z" fill="#E8CEBF" fill-opacity="0.5"/>
<path d="M99.8713 318.798C101.799 318.976 103.512 317.584 103.691 315.655C103.869 313.727 102.477 312.013 100.549 311.835C98.622 311.656 96.9087 313.049 96.7302 314.977C96.5518 316.905 97.9438 318.619 99.8713 318.798Z" fill="#E8CEBF" fill-opacity="0.5"/>
<path d="M98.7649 358.183C100.692 358.362 102.406 356.969 102.584 355.041C102.763 353.113 101.371 351.399 99.443 351.22C97.5156 351.042 95.8023 352.434 95.6238 354.362C95.4453 356.326 96.8374 358.005 98.7649 358.183Z" fill="#E8CEBF" fill-opacity="0.5"/>
<path d="M130.425 357.683C132.353 357.862 134.066 356.469 134.245 354.541C134.423 352.613 133.031 350.899 131.103 350.72C129.176 350.542 127.463 351.934 127.284 353.863C127.07 355.791 128.498 357.505 130.425 357.683Z" fill="#E8CEBF" fill-opacity="0.5"/>
<path d="M45.6523 325.939C47.5798 326.118 49.2931 324.725 49.4716 322.797C49.65 320.869 48.258 319.155 46.3305 318.976C44.403 318.798 42.6897 320.19 42.5113 322.118C42.3328 324.047 43.7248 325.725 45.6523 325.939Z" fill="#E8CEBF" fill-opacity="0.5"/>
<path d="M66.8903 351.649C68.8177 351.827 70.531 350.435 70.7095 348.506C70.888 346.578 69.4959 344.864 67.5685 344.686C65.641 344.507 63.9277 345.9 63.7492 347.828C63.5707 349.756 64.9985 351.47 66.8903 351.649Z" fill="#E8CEBF" fill-opacity="0.5"/>
<path d="M65.3554 340.079C69.6743 340.508 73.5293 337.33 73.9219 333.009C74.3502 328.689 71.1735 324.832 66.8545 324.439C62.5355 324.011 58.6806 327.189 58.288 331.51C57.8596 335.83 61.0364 339.687 65.3554 340.079Z" fill="#E8CEBF" fill-opacity="0.5"/>
<path d="M116.183 350.185C120.502 350.613 124.357 347.435 124.75 343.115C125.178 338.794 122.002 334.938 117.683 334.545C113.364 334.116 109.509 337.294 109.116 341.615C108.688 345.935 111.865 349.792 116.183 350.185Z" fill="#E8CEBF" fill-opacity="0.5"/>
<path d="M81.9531 354.612C84.8443 354.898 87.3786 352.756 87.6641 349.899C87.9497 347.007 85.808 344.472 82.9525 344.186C80.0613 343.9 77.5271 346.043 77.2415 348.899C76.9559 351.792 79.0619 354.363 81.9531 354.612Z" fill="#E8CEBF" fill-opacity="0.5"/>
<path d="M98.1582 373.93C101.049 374.216 103.584 372.073 103.869 369.217C104.155 366.325 102.013 363.789 99.1576 363.504C96.2664 363.218 93.7321 365.36 93.4466 368.217C93.161 371.109 95.267 373.68 98.1582 373.93Z" fill="#E8CEBF" fill-opacity="0.5"/>
<path d="M95.4812 272.699C98.3724 272.985 100.907 270.842 101.192 267.986C101.478 265.093 99.3361 262.558 96.4806 262.273C93.5894 261.987 91.0551 264.129 90.7696 266.986C90.484 269.878 92.59 272.413 95.4812 272.699Z" fill="#E8CEBF" fill-opacity="0.5"/>
<path d="M91.6262 303.943C94.5174 304.229 97.0517 302.087 97.3372 299.23C97.6228 296.338 95.4811 293.802 92.6256 293.517C89.7344 293.231 87.2001 295.373 86.9146 298.23C86.629 301.122 88.735 303.693 91.6262 303.943Z" fill="#E8CEBF" fill-opacity="0.5"/>
<path d="M71.3877 304.657C74.2789 304.943 76.8131 302.801 77.0987 299.944C77.3842 297.052 75.2426 294.516 72.3871 294.231C69.4959 293.945 66.9616 296.088 66.6761 298.944C66.3905 301.837 68.4965 304.372 71.3877 304.657Z" fill="#E8CEBF" fill-opacity="0.5"/>
<path d="M48.9006 347.292C51.7918 347.578 54.3261 345.436 54.6116 342.579C54.8972 339.687 52.7555 337.151 49.9 336.866C47.0088 336.58 44.4746 338.723 44.189 341.579C43.9035 344.471 46.0094 347.042 48.9006 347.292Z" fill="#E8CEBF" fill-opacity="0.5"/>
<path d="M115.577 329.046C118.468 329.331 121.002 327.189 121.288 324.332C121.573 321.44 119.432 318.905 116.576 318.619C113.685 318.334 111.151 320.476 110.865 323.333C110.579 326.225 112.685 328.796 115.577 329.046Z" fill="#E8CEBF" fill-opacity="0.5"/>
<path d="M83.7734 335.473C85.7009 335.652 87.4142 334.259 87.5927 332.331C87.7711 330.403 86.3791 328.689 84.4516 328.51C82.5241 328.332 80.8108 329.724 80.6324 331.652C80.4182 333.581 81.846 335.295 83.7734 335.473Z" fill="#E8CEBF" fill-opacity="0.5"/>
<path d="M144.167 305.443C146.095 305.622 147.808 304.229 147.987 302.301C148.165 300.373 146.773 298.659 144.846 298.48C142.918 298.301 141.205 299.694 141.026 301.622C140.812 303.551 142.24 305.264 144.167 305.443Z" fill="#E8CEBF" fill-opacity="0.5"/>
<path d="M131.853 314.798C133.781 314.977 135.494 313.584 135.672 311.656C135.851 309.728 134.459 308.014 132.531 307.835C130.604 307.657 128.891 309.049 128.712 310.978C128.534 312.906 129.926 314.62 131.853 314.798Z" fill="#E8CEBF" fill-opacity="0.5"/>
<path d="M46.0808 376.894C48.0083 377.073 49.7216 375.68 49.9 373.752C50.0785 371.824 48.6865 370.11 46.759 369.931C44.8315 369.752 43.1182 371.145 42.9397 373.073C42.7256 375.002 44.1533 376.715 46.0808 376.894Z" fill="#E8CEBF" fill-opacity="0.5"/>
<path d="M65.7837 280.412C67.7111 280.591 69.4244 279.198 69.6029 277.27C69.7814 275.342 68.3893 273.628 66.4619 273.449C64.5344 273.27 62.8211 274.663 62.6426 276.591C62.4641 278.519 63.8562 280.233 65.7837 280.412Z" fill="#E8CEBF" fill-opacity="0.5"/>
<path d="M62.9997 318.798C64.9272 318.976 66.6405 317.584 66.819 315.655C66.9974 313.727 65.6054 312.013 63.6779 311.835C61.7504 311.656 60.0371 313.049 59.8587 314.977C59.6802 316.905 61.0723 318.619 62.9997 318.798Z" fill="#E8CEBF" fill-opacity="0.5"/>
<path d="M127.748 293.338C129.676 293.517 131.389 292.124 131.568 290.196C131.746 288.268 130.354 286.554 128.426 286.375C126.499 286.197 124.786 287.589 124.607 289.517C124.429 291.446 125.821 293.16 127.748 293.338Z" fill="#E8CEBF" fill-opacity="0.5"/>
<path d="M28.3052 333.045C30.2326 333.224 31.9459 331.831 32.1244 329.903C32.3029 327.975 30.9108 326.261 28.9833 326.082C27.0559 325.903 25.3426 327.296 25.1641 329.224C24.9499 331.152 26.3777 332.866 28.3052 333.045Z" fill="#E8CEBF" fill-opacity="0.5"/>
<path d="M82.3458 383C84.2733 383.179 85.9866 381.786 86.1651 379.858C86.3435 377.93 84.9515 376.216 83.024 376.037C81.0965 375.858 79.3832 377.251 79.2048 379.179C79.0263 381.108 80.4541 382.786 82.3458 383Z" fill="#E8CEBF" fill-opacity="0.5"/>
<path d="M116.291 367.753C118.218 367.931 119.931 366.539 120.11 364.611C120.288 362.682 118.896 360.968 116.969 360.79C115.041 360.611 113.328 362.004 113.149 363.932C112.971 365.896 114.363 367.574 116.291 367.753Z" fill="#E8CEBF" fill-opacity="0.5"/>
<path d="M108.081 287.946C110.009 288.125 111.722 286.732 111.9 284.804C112.079 282.876 110.687 281.162 108.759 280.983C106.832 280.805 105.118 282.197 104.94 284.126C104.726 286.054 106.154 287.768 108.081 287.946Z" fill="#E8CEBF" fill-opacity="0.5"/>
<path d="M56.3605 197.785C60.6794 198.213 64.5344 195.035 64.927 190.714C65.3553 186.394 62.1786 182.537 57.8596 182.145C53.5407 181.716 49.6857 184.894 49.2931 189.215C48.8648 193.535 52.0415 197.392 56.3605 197.785Z" fill="#E8CEBF" fill-opacity="0.5"/>
<path d="M117.361 215.674C121.68 216.103 125.535 212.925 125.928 208.604C126.356 204.283 123.18 200.427 118.861 200.034C114.542 199.606 110.687 202.784 110.294 207.104C109.866 211.425 113.043 215.281 117.361 215.674Z" fill="#E8CEBF" fill-opacity="0.5"/>
<path d="M236.651 239.277C240.969 239.705 244.824 236.527 245.217 232.207C245.645 227.886 242.469 224.03 238.15 223.637C233.831 223.208 229.976 226.386 229.583 230.707C229.155 235.028 232.332 238.884 236.651 239.277Z" fill="#E8CEBF" fill-opacity="0.5"/>
<path d="M28.2694 179.324C32.5884 179.752 36.4433 176.574 36.836 172.254C37.2643 167.933 34.0875 164.077 29.7686 163.684C25.4496 163.255 21.5947 166.433 21.202 170.754C20.7737 175.074 23.9505 178.895 28.2694 179.324Z" fill="#E8CEBF" fill-opacity="0.5"/>
<path d="M72.9226 212.318C75.8138 212.603 78.348 210.461 78.6336 207.604C78.9192 204.712 76.7775 202.177 73.922 201.891C71.0308 201.605 68.4965 203.748 68.211 206.604C67.9254 209.497 70.0314 212.068 72.9226 212.318Z" fill="#E8CEBF" fill-opacity="0.5"/>
<path d="M78.2411 265.201C81.1323 265.486 83.6665 263.344 83.9521 260.487C84.2376 257.595 82.096 255.06 79.2405 254.774C76.3493 254.488 73.815 256.631 73.5295 259.487C73.2439 262.38 75.3855 264.915 78.2411 265.201Z" fill="#E8CEBF" fill-opacity="0.5"/>
<path d="M144.453 235.028C147.344 235.313 149.879 233.171 150.164 230.314C150.45 227.422 148.308 224.887 145.453 224.601C142.561 224.315 140.027 226.458 139.742 229.314C139.456 232.207 141.562 234.778 144.453 235.028Z" fill="#E8CEBF" fill-opacity="0.5"/>
<path d="M97.1587 151.4C100.05 151.686 102.584 149.544 102.87 146.687C103.155 143.795 101.014 141.259 98.1581 140.974C95.2669 140.688 92.7326 142.83 92.4471 145.687C92.1615 148.579 94.2675 151.15 97.1587 151.4Z" fill="#E8CEBF" fill-opacity="0.5"/>
<path d="M111.686 155.721C114.577 156.007 117.111 153.864 117.397 151.008C117.683 148.115 115.541 145.58 112.685 145.294C109.794 145.009 107.26 147.151 106.974 150.008C106.689 152.864 108.795 155.435 111.686 155.721Z" fill="#E8CEBF" fill-opacity="0.5"/>
<path d="M135.922 128.833C138.814 129.119 141.348 126.976 141.633 124.12C141.919 121.227 139.777 118.692 136.922 118.406C134.031 118.121 131.496 120.263 131.211 123.12C130.925 125.976 133.031 128.547 135.922 128.833Z" fill="#E8CEBF" fill-opacity="0.5"/>
<path d="M228.334 113.086C231.225 113.372 233.759 111.229 234.045 108.373C234.33 105.516 232.189 102.945 229.333 102.659C226.442 102.374 223.908 104.516 223.622 107.373C223.337 110.265 225.443 112.8 228.334 113.086Z" fill="#E8CEBF" fill-opacity="0.5"/>
<path d="M92.1972 185.18C95.0884 185.465 97.6227 183.323 97.9083 180.466C98.1938 177.574 96.0522 175.039 93.1967 174.753C90.3055 174.467 87.7712 176.61 87.4856 179.467C87.2001 182.359 89.306 184.894 92.1972 185.18Z" fill="#E8CEBF" fill-opacity="0.5"/>
<path d="M55.04 160.577C57.9312 160.863 60.4655 158.72 60.751 155.864C61.0366 152.971 58.8949 150.436 56.0394 150.151C53.1482 149.865 50.614 152.007 50.3284 154.864C50.0429 157.721 52.1488 160.292 55.04 160.577Z" fill="#E8CEBF" fill-opacity="0.5"/>
<path d="M17.9541 153.543C20.8453 153.828 23.3795 151.686 23.6651 148.829C23.9506 145.937 21.809 143.402 18.9535 143.116C16.0623 142.83 13.528 144.973 13.2425 147.83C12.9569 150.686 15.0629 153.257 17.9541 153.543Z" fill="#E8CEBF" fill-opacity="0.5"/>
<path d="M47.0803 244.133C49.9715 244.419 52.5058 242.276 52.7913 239.42C53.0769 236.527 50.9352 233.992 48.0797 233.706C45.1885 233.421 42.6542 235.563 42.3687 238.42C42.0831 241.276 44.1891 243.847 47.0803 244.133Z" fill="#E8CEBF" fill-opacity="0.5"/>
<path d="M28.448 237.063C31.3392 237.349 33.8734 235.206 34.159 232.349C34.4445 229.457 32.3029 226.922 29.4474 226.636C26.5562 226.351 24.0219 228.493 23.7364 231.35C23.4508 234.242 25.5568 236.813 28.448 237.063Z" fill="#E8CEBF" fill-opacity="0.5"/>
<path d="M11.2436 187.144C14.1348 187.429 16.6691 185.287 16.9546 182.43C17.2402 179.538 15.0986 177.003 12.2431 176.717C9.35185 176.431 6.78188 178.538 6.53203 181.43C6.24648 184.323 8.35242 186.858 11.2436 187.144Z" fill="#E8CEBF" fill-opacity="0.5"/>
<path d="M74.7429 193.178C76.6704 193.357 78.3837 191.964 78.5621 190.036C78.7406 188.108 77.3485 186.394 75.4211 186.215C73.4936 186.037 71.7803 187.429 71.6018 189.358C71.4234 191.286 72.8154 193 74.7429 193.178Z" fill="#E8CEBF" fill-opacity="0.5"/>
<path d="M265.527 192.214C267.454 192.393 269.168 191 269.346 189.072C269.525 187.144 268.132 185.43 266.205 185.251C264.278 185.073 262.564 186.465 262.386 188.393C262.207 190.322 263.599 192 265.527 192.214Z" fill="#E8CEBF" fill-opacity="0.5"/>
<path d="M133.674 221.173C135.601 221.352 137.314 219.959 137.493 218.031C137.671 216.103 136.279 214.389 134.352 214.21C132.424 214.032 130.711 215.424 130.532 217.352C130.354 219.281 131.746 220.994 133.674 221.173Z" fill="#E8CEBF" fill-opacity="0.5"/>
<path d="M273.058 302.158C274.986 302.336 276.699 300.944 276.877 299.016C277.056 297.087 275.664 295.373 273.736 295.195C271.809 295.016 270.096 296.409 269.917 298.337C269.739 300.265 271.166 301.979 273.058 302.158Z" fill="#E8CEBF" fill-opacity="0.5"/>
<path d="M199.672 245.776C201.599 245.954 203.312 244.562 203.491 242.633C203.669 240.705 202.277 238.991 200.35 238.813C198.422 238.634 196.709 240.027 196.531 241.955C196.352 243.883 197.744 245.561 199.672 245.776Z" fill="#E8CEBF" fill-opacity="0.5"/>
<path d="M257.674 226.279C259.602 226.458 261.315 225.065 261.493 223.137C261.672 221.209 260.28 219.495 258.352 219.316C256.425 219.138 254.711 220.53 254.533 222.458C254.355 224.387 255.747 226.101 257.674 226.279Z" fill="#E8CEBF" fill-opacity="0.5"/>
<path d="M73.9577 232.599C75.8896 232.599 77.4557 231.033 77.4557 229.1C77.4557 227.167 75.8896 225.601 73.9577 225.601C72.0258 225.601 70.4597 227.167 70.4597 229.1C70.4597 231.033 72.0258 232.599 73.9577 232.599Z" fill="#E8CEBF" fill-opacity="0.5"/>
<path d="M121.68 231.35C123.608 231.528 125.321 230.136 125.5 228.207C125.678 226.279 124.286 224.565 122.359 224.387C120.431 224.208 118.718 225.601 118.539 227.529C118.361 229.457 119.753 231.135 121.68 231.35Z" fill="#E8CEBF" fill-opacity="0.5"/>
<path d="M131.96 263.129C133.888 263.308 135.601 261.915 135.779 259.987C135.958 258.059 134.566 256.345 132.638 256.166C130.711 255.988 128.998 257.381 128.819 259.309C128.641 261.237 130.033 262.951 131.96 263.129Z" fill="#E8CEBF" fill-opacity="0.5"/>
<path d="M146.595 277.234C148.522 277.413 150.235 276.02 150.414 274.092C150.592 272.164 149.2 270.45 147.273 270.271C145.345 270.092 143.632 271.485 143.454 273.413C143.239 275.342 144.667 277.055 146.595 277.234Z" fill="#E8CEBF" fill-opacity="0.5"/>
<path d="M105.297 232.1C107.224 232.278 108.938 230.886 109.116 228.957C109.295 227.029 107.903 225.315 105.975 225.137C104.048 224.958 102.334 226.351 102.156 228.279C101.942 230.207 103.369 231.921 105.297 232.1Z" fill="#E8CEBF" fill-opacity="0.5"/>
<path d="M148.736 253.31C150.664 253.488 152.377 252.096 152.556 250.168C152.734 248.239 151.342 246.525 149.415 246.347C147.487 246.168 145.774 247.561 145.595 249.489C145.417 251.417 146.845 253.131 148.736 253.31Z" fill="#E8CEBF" fill-opacity="0.5"/>
<path d="M20.5239 200.32C22.4514 200.498 24.1647 199.106 24.3431 197.177C24.5216 195.249 23.1296 193.535 21.2021 193.357C19.2746 193.178 17.5613 194.571 17.3828 196.499C17.2044 198.427 18.5964 200.141 20.5239 200.32Z" fill="#E8CEBF" fill-opacity="0.5"/>
<path d="M41.7618 226.065C43.6893 226.244 45.4026 224.851 45.5811 222.923C45.7596 220.994 44.3675 219.281 42.44 219.102C40.5126 218.923 38.7993 220.316 38.6208 222.244C38.4423 224.172 39.8701 225.851 41.7618 226.065Z" fill="#E8CEBF" fill-opacity="0.5"/>
<path d="M40.2269 214.496C44.5459 214.924 48.4008 211.746 48.7935 207.426C49.2218 203.105 46.045 199.249 41.7261 198.856C37.4071 198.427 33.5522 201.605 33.1596 205.926C32.7312 210.246 35.908 214.067 40.2269 214.496Z" fill="#E8CEBF" fill-opacity="0.5"/>
<path d="M91.0551 224.601C95.374 225.029 99.229 221.851 99.6216 217.531C100.05 213.21 96.8732 209.354 92.5542 208.961C88.2352 208.533 84.3803 211.711 83.9877 216.031C83.5593 220.352 86.7361 224.172 91.0551 224.601Z" fill="#E8CEBF" fill-opacity="0.5"/>
<path d="M110.08 257.381C114.399 257.809 118.254 254.631 118.647 250.31C119.075 245.99 115.898 242.133 111.579 241.741C107.26 241.312 103.405 244.49 103.013 248.811C102.584 253.131 105.761 256.952 110.08 257.381Z" fill="#E8CEBF" fill-opacity="0.5"/>
<path d="M56.8247 229.029C59.7159 229.314 62.2501 227.172 62.5357 224.315C62.8212 221.423 60.6796 218.888 57.8241 218.602C54.9329 218.316 52.3986 220.459 52.1131 223.315C51.8275 226.172 53.9335 228.743 56.8247 229.029Z" fill="#E8CEBF" fill-opacity="0.5"/>
<path d="M73.0295 248.347C75.9207 248.632 78.455 246.49 78.7405 243.633C79.0261 240.741 76.8845 238.206 74.0289 237.92C71.1377 237.634 68.6035 239.777 68.3179 242.633C68.0324 245.49 70.1383 248.061 73.0295 248.347Z" fill="#E8CEBF" fill-opacity="0.5"/>
<path d="M131.353 244.419C134.245 244.704 136.779 242.562 137.065 239.705C137.35 236.813 135.208 234.278 132.353 233.992C129.462 233.706 126.927 235.849 126.642 238.705C126.356 241.562 128.462 244.133 131.353 244.419Z" fill="#E8CEBF" fill-opacity="0.5"/>
<path d="M70.3525 147.115C73.2437 147.401 75.778 145.259 76.0635 142.402C76.3491 139.51 74.2074 136.974 71.3519 136.689C68.4607 136.403 65.9265 138.546 65.6409 141.402C65.3554 144.259 67.4613 146.83 70.3525 147.115Z" fill="#E8CEBF" fill-opacity="0.5"/>
<path d="M66.4975 178.36C69.3887 178.645 71.923 176.503 72.2086 173.646C72.4941 170.754 70.3525 168.219 67.497 167.933C64.6058 167.647 62.0715 169.79 61.7859 172.646C61.5004 175.503 63.6063 178.074 66.4975 178.36Z" fill="#E8CEBF" fill-opacity="0.5"/>
<path d="M46.2592 179.038C49.1505 179.324 51.6847 177.181 51.9703 174.325C52.2558 171.432 50.1142 168.897 47.2587 168.611C44.3675 168.326 41.8332 170.468 41.5477 173.325C41.2621 176.217 43.368 178.788 46.2592 179.038Z" fill="#E8CEBF" fill-opacity="0.5"/>
<path d="M23.7722 221.709C26.6634 221.994 29.1977 219.852 29.4832 216.995C29.7688 214.103 27.6271 211.568 24.7716 211.282C21.8804 210.996 19.3461 213.139 19.0606 215.995C18.775 218.852 20.881 221.423 23.7722 221.709Z" fill="#E8CEBF" fill-opacity="0.5"/>
<path d="M90.4482 203.462C93.3394 203.748 95.8737 201.605 96.1592 198.749C96.4448 195.856 94.3032 193.321 91.4476 193.035C88.5564 192.75 86.0222 194.892 85.7366 197.749C85.4511 200.641 87.557 203.176 90.4482 203.462Z" fill="#E8CEBF" fill-opacity="0.5"/>
<path d="M289.299 318.976C292.19 319.262 294.725 317.119 295.01 314.263C295.296 311.371 293.154 308.835 290.298 308.55C287.407 308.264 284.873 310.406 284.587 313.263C284.302 316.12 286.408 318.691 289.299 318.976Z" fill="#E8CEBF" fill-opacity="0.5"/>
<path d="M58.645 209.889C60.5725 210.068 62.2858 208.675 62.4643 206.747C62.6427 204.819 61.2507 203.105 59.3232 202.926C57.3957 202.748 55.6824 204.14 55.5039 206.069C55.2898 207.997 56.7175 209.711 58.645 209.889Z" fill="#E8CEBF" fill-opacity="0.5"/>
<path d="M129.533 195.928C131.461 196.106 133.174 194.714 133.352 192.785C133.531 190.857 132.139 189.143 130.211 188.965C128.284 188.786 126.571 190.179 126.392 192.107C126.214 194.035 127.606 195.749 129.533 195.928Z" fill="#E8CEBF" fill-opacity="0.5"/>
<path d="M119.039 179.824C120.967 180.002 122.68 178.61 122.858 176.681C123.037 174.753 121.645 173.039 119.717 172.861C117.79 172.682 116.076 174.075 115.898 176.003C115.684 177.931 117.112 179.645 119.039 179.824Z" fill="#E8CEBF" fill-opacity="0.5"/>
<path d="M106.725 189.215C108.652 189.393 110.365 188.001 110.544 186.072C110.722 184.144 109.33 182.43 107.403 182.252C105.475 182.073 103.762 183.466 103.584 185.394C103.405 187.322 104.797 189.036 106.725 189.215Z" fill="#E8CEBF" fill-opacity="0.5"/>
<path d="M248.179 198.57C250.107 198.749 251.82 197.356 251.999 195.428C252.177 193.5 250.785 191.786 248.858 191.607C246.93 191.429 245.217 192.821 245.038 194.749C244.824 196.678 246.252 198.356 248.179 198.57Z" fill="#E8CEBF" fill-opacity="0.5"/>
<path d="M160.48 239.67C162.407 239.848 164.12 238.456 164.299 236.527C164.477 234.599 163.085 232.885 161.158 232.707C159.23 232.528 157.517 233.921 157.339 235.849C157.124 237.813 158.552 239.491 160.48 239.67Z" fill="#E8CEBF" fill-opacity="0.5"/>
<path d="M20.9521 251.275C22.8796 251.453 24.5929 250.06 24.7714 248.132C24.9499 246.204 23.5578 244.49 21.6303 244.312C19.7029 244.133 17.9895 245.526 17.8111 247.454C17.5969 249.418 19.0247 251.096 20.9521 251.275Z" fill="#E8CEBF" fill-opacity="0.5"/>
<path d="M40.6553 154.828C42.5827 155.007 44.296 153.614 44.4745 151.686C44.653 149.758 43.2609 148.044 41.3334 147.865C39.406 147.687 37.6927 149.079 37.5142 151.008C37.3 152.936 38.7278 154.614 40.6553 154.828Z" fill="#E8CEBF" fill-opacity="0.5"/>
<path d="M37.8711 193.178C39.7985 193.357 41.5118 191.964 41.6903 190.036C41.8688 188.108 40.4767 186.394 38.5493 186.215C36.6218 186.037 34.9085 187.429 34.73 189.358C34.5515 191.286 35.9436 193 37.8711 193.178Z" fill="#E8CEBF" fill-opacity="0.5"/>
<path d="M102.62 167.719C104.547 167.897 106.261 166.505 106.439 164.576C106.618 162.648 105.226 160.934 103.298 160.756C101.371 160.577 99.6573 161.97 99.4788 163.898C99.3003 165.862 100.692 167.54 102.62 167.719Z" fill="#E8CEBF" fill-opacity="0.5"/>
<path d="M129.533 163.791C131.461 163.969 133.174 162.577 133.352 160.649C133.531 158.72 132.139 157.006 130.211 156.828C128.284 156.649 126.571 158.042 126.392 159.97C126.214 161.898 127.606 163.612 129.533 163.791Z" fill="#E8CEBF" fill-opacity="0.5"/>
<path d="M210.344 114.3C212.272 114.479 213.985 113.086 214.163 111.158C214.342 109.23 212.95 107.516 211.022 107.337C209.095 107.159 207.382 108.551 207.203 110.479C207.025 112.408 208.452 114.122 210.344 114.3Z" fill="#E8CEBF" fill-opacity="0.5"/>
<path d="M218.661 124.477C220.588 124.655 222.302 123.263 222.48 121.335C222.658 119.406 221.266 117.692 219.339 117.514C217.411 117.335 215.698 118.728 215.52 120.656C215.341 122.584 216.769 124.263 218.661 124.477Z" fill="#E8CEBF" fill-opacity="0.5"/>
<path d="M3.17669 207.461C5.10416 207.64 6.81746 206.247 6.99593 204.319C7.1744 202.391 5.78234 200.677 3.85487 200.498C1.89171 200.32 0.214094 201.712 -6.88676e-05 203.641C-0.178538 205.569 1.24922 207.247 3.17669 207.461Z" fill="#E8CEBF" fill-opacity="0.5"/>
<path d="M57.2172 257.381C59.1446 257.559 60.858 256.166 61.0364 254.238C61.2149 252.31 59.8228 250.596 57.8954 250.418C55.9679 250.239 54.2546 251.632 54.0761 253.56C53.8976 255.488 55.3254 257.202 57.2172 257.381Z" fill="#E8CEBF" fill-opacity="0.5"/>
<path d="M91.1621 242.169C93.0896 242.348 94.8029 240.955 94.9813 239.027C95.1598 237.099 93.7677 235.385 91.8403 235.206C89.9128 235.028 88.1995 236.42 88.021 238.348C87.8426 240.277 89.2346 241.991 91.1621 242.169Z" fill="#E8CEBF" fill-opacity="0.5"/>
<path d="M82.9526 162.363C84.8801 162.541 86.5934 161.148 86.7719 159.22C86.9503 157.292 85.5583 155.578 83.6308 155.4C81.7033 155.221 79.99 156.614 79.8116 158.542C79.5974 160.47 81.0252 162.184 82.9526 162.363Z" fill="#E8CEBF" fill-opacity="0.5"/>
<path d="M118.325 133.511C120.253 133.689 121.966 132.297 122.144 130.369C122.323 128.44 120.931 126.726 119.003 126.548C117.076 126.369 115.362 127.762 115.184 129.69C115.006 131.618 116.433 133.332 118.325 133.511Z" fill="#E8CEBF" fill-opacity="0.5"/>
<path d="M188.856 170.897C188.856 175.253 192.39 178.752 196.709 178.752C201.064 178.752 204.562 175.217 204.562 170.897C204.562 166.576 201.028 163.041 196.709 163.041C192.39 163.041 188.856 166.54 188.856 170.897Z" fill="#E8CEBF" fill-opacity="0.5"/>
<path d="M176.863 233.349C176.863 237.706 180.397 241.205 184.716 241.205C189.07 241.205 192.568 237.67 192.568 233.349C192.568 228.993 189.035 225.494 184.716 225.494C180.361 225.494 176.863 229.029 176.863 233.349Z" fill="#E8CEBF" fill-opacity="0.5"/>
<path d="M204.597 141.188C204.597 145.544 208.131 149.044 212.45 149.044C216.804 149.044 220.302 145.509 220.302 141.188C220.302 136.867 216.769 133.332 212.45 133.332C208.131 133.297 204.597 136.832 204.597 141.188Z" fill="#E8CEBF" fill-opacity="0.5"/>
<path d="M175.971 188.786C175.971 191.679 178.327 194.035 181.218 194.035C184.109 194.035 186.465 191.679 186.465 188.786C186.465 185.894 184.109 183.537 181.218 183.537C178.327 183.537 175.971 185.894 175.971 188.786Z" fill="#E8CEBF" fill-opacity="0.5"/>
<path d="M238.899 207.14C238.899 210.032 241.255 212.389 244.146 212.389C247.037 212.389 249.393 210.032 249.393 207.14C249.393 204.248 247.037 201.891 244.146 201.891C241.255 201.891 238.899 204.248 238.899 207.14Z" fill="#E8CEBF" fill-opacity="0.5"/>
<path d="M204.812 205.39C204.812 208.283 207.167 210.639 210.059 210.639C212.95 210.639 215.306 208.283 215.306 205.39C215.306 202.498 212.95 200.141 210.059 200.141C207.167 200.141 204.812 202.498 204.812 205.39Z" fill="#E8CEBF" fill-opacity="0.5"/>
<path d="M225.799 166.04C225.799 168.933 228.155 171.289 231.046 171.289C233.938 171.289 236.293 168.933 236.293 166.04C236.293 163.148 233.938 160.791 231.046 160.791C228.119 160.791 225.799 163.148 225.799 166.04Z" fill="#E8CEBF" fill-opacity="0.5"/>
<path d="M229.297 128.476C229.297 131.368 231.653 133.725 234.544 133.725C237.436 133.725 239.791 131.368 239.791 128.476C239.791 125.584 237.436 123.227 234.544 123.227C231.617 123.227 229.297 125.548 229.297 128.476Z" fill="#E8CEBF" fill-opacity="0.5"/>
<path d="M141.883 166.04C141.883 168.933 144.239 171.289 147.13 171.289C150.021 171.289 152.377 168.933 152.377 166.04C152.377 163.148 150.021 160.791 147.13 160.791C144.239 160.791 141.883 163.148 141.883 166.04Z" fill="#E8CEBF" fill-opacity="0.5"/>
<path d="M147.13 146.83C147.13 149.722 149.486 152.079 152.377 152.079C155.268 152.079 157.624 149.722 157.624 146.83C157.624 143.937 155.268 141.581 152.377 141.581C149.486 141.581 147.13 143.937 147.13 146.83Z" fill="#E8CEBF" fill-opacity="0.5"/>
<path d="M195.21 124.977C195.21 127.869 197.566 130.226 200.457 130.226C203.348 130.226 205.704 127.869 205.704 124.977C205.704 122.084 203.348 119.728 200.457 119.728C197.566 119.728 195.21 122.049 195.21 124.977Z" fill="#E8CEBF" fill-opacity="0.5"/>
<path d="M198.708 192.286C200.64 192.286 202.206 190.719 202.206 188.786C202.206 186.854 200.64 185.287 198.708 185.287C196.776 185.287 195.21 186.854 195.21 188.786C195.21 190.719 196.776 192.286 198.708 192.286Z" fill="#E8CEBF" fill-opacity="0.5"/>
<path d="M159.373 194.892C161.305 194.892 162.871 193.326 162.871 191.393C162.871 189.46 161.305 187.894 159.373 187.894C157.441 187.894 155.875 189.46 155.875 191.393C155.875 193.326 157.441 194.892 159.373 194.892Z" fill="#E8CEBF" fill-opacity="0.5"/>
<path d="M162.871 226.386C164.803 226.386 166.369 224.82 166.369 222.887C166.369 220.954 164.803 219.388 162.871 219.388C160.939 219.388 159.373 220.954 159.373 222.887C159.373 224.82 160.939 226.386 162.871 226.386Z" fill="#E8CEBF" fill-opacity="0.5"/>
<path d="M186.465 138.938C188.397 138.938 189.963 137.372 189.963 135.439C189.963 133.506 188.397 131.94 186.465 131.94C184.533 131.94 182.967 133.506 182.967 135.439C182.967 137.372 184.533 138.938 186.465 138.938Z" fill="#E8CEBF" fill-opacity="0.5"/>
<path d="M159.373 159.042C159.373 160.97 160.944 162.541 162.871 162.541C164.799 162.541 166.369 160.97 166.369 159.042C166.369 157.114 164.799 155.542 162.871 155.542C160.944 155.542 159.373 157.114 159.373 159.042Z" fill="#E8CEBF" fill-opacity="0.5"/>
<path d="M170.724 156.435C170.724 160.791 174.257 164.291 178.576 164.291C182.931 164.291 186.429 160.756 186.429 156.435C186.429 152.079 182.895 148.579 178.576 148.579C174.257 148.579 170.724 152.079 170.724 156.435Z" fill="#E8CEBF" fill-opacity="0.5"/>
<path d="M165.477 207.997C165.477 212.353 169.011 215.853 173.329 215.853C177.684 215.853 181.182 212.318 181.182 207.997C181.182 203.641 177.648 200.141 173.329 200.141C169.011 200.141 165.477 203.676 165.477 207.997Z" fill="#E8CEBF" fill-opacity="0.5"/>
<path d="M157.838 174.325C157.838 177.217 160.194 179.574 163.085 179.574C165.977 179.574 168.332 177.217 168.332 174.325C168.332 171.432 165.977 169.076 163.085 169.076C160.194 169.076 157.838 171.432 157.838 174.325Z" fill="#E8CEBF" fill-opacity="0.5"/>
<path d="M140.134 192.286C140.134 195.178 142.49 197.535 145.381 197.535C148.272 197.535 150.628 195.178 150.628 192.286C150.628 189.393 148.272 187.037 145.381 187.037C142.49 187.037 140.134 189.393 140.134 192.286Z" fill="#E8CEBF" fill-opacity="0.5"/>
<path d="M240.648 180.038C240.648 182.93 243.004 185.287 245.895 185.287C248.786 185.287 251.142 182.93 251.142 180.038C251.142 177.146 248.786 174.789 245.895 174.789C243.004 174.789 240.648 177.146 240.648 180.038Z" fill="#E8CEBF" fill-opacity="0.5"/>
<path d="M209.202 179.181C209.202 182.073 211.557 184.43 214.449 184.43C217.34 184.43 219.696 182.073 219.696 179.181C219.696 176.289 217.34 173.932 214.449 173.932C211.522 173.932 209.202 176.253 209.202 179.181Z" fill="#E8CEBF" fill-opacity="0.5"/>
<path d="M206.56 159.042C206.56 161.934 208.916 164.291 211.807 164.291C214.699 164.291 217.054 161.934 217.054 159.042C217.054 156.149 214.699 153.793 211.807 153.793C208.916 153.828 206.56 156.149 206.56 159.042Z" fill="#E8CEBF" fill-opacity="0.5"/>
<path d="M161.979 140.688C161.979 143.58 164.335 145.937 167.226 145.937C170.117 145.937 172.473 143.58 172.473 140.688C172.473 137.796 170.117 135.439 167.226 135.439C164.335 135.439 161.979 137.796 161.979 140.688Z" fill="#E8CEBF" fill-opacity="0.5"/>
<path d="M186.465 205.39C186.465 208.283 188.821 210.639 191.712 210.639C194.603 210.639 196.959 208.283 196.959 205.39C196.959 202.498 194.603 200.141 191.712 200.141C188.821 200.141 186.465 202.498 186.465 205.39Z" fill="#E8CEBF" fill-opacity="0.5"/>
<path d="M180.575 177.824C182.507 177.824 184.073 176.257 184.073 174.325C184.073 172.392 182.507 170.825 180.575 170.825C178.643 170.825 177.077 172.392 177.077 174.325C177.077 176.257 178.643 177.824 180.575 177.824Z" fill="#E8CEBF" fill-opacity="0.5"/>
<path d="M216.162 235.099C218.094 235.099 219.66 233.532 219.66 231.6C219.66 229.667 218.094 228.1 216.162 228.1C214.23 228.1 212.664 229.667 212.664 231.6C212.664 233.532 214.23 235.099 216.162 235.099Z" fill="#E8CEBF" fill-opacity="0.5"/>
<path d="M205.704 223.744C207.636 223.744 209.202 222.177 209.202 220.245C209.202 218.312 207.636 216.745 205.704 216.745C203.772 216.745 202.206 218.312 202.206 220.245C202.206 222.177 203.772 223.744 205.704 223.744Z" fill="#E8CEBF" fill-opacity="0.5"/>
<path d="M135.779 144.187C137.711 144.187 139.277 142.621 139.277 140.688C139.277 138.755 137.711 137.189 135.779 137.189C133.848 137.189 132.281 138.755 132.281 140.688C132.281 142.621 133.848 144.187 135.779 144.187Z" fill="#E8CEBF" fill-opacity="0.5"/>
<path d="M230.154 151.186C230.154 153.114 231.725 154.685 233.652 154.685C235.58 154.685 237.15 153.114 237.15 151.186C237.15 149.258 235.58 147.687 233.652 147.687C231.725 147.687 230.154 149.258 230.154 151.186Z" fill="#E8CEBF" fill-opacity="0.5"/>
<path d="M195.21 155.578C197.142 155.578 198.708 154.011 198.708 152.079C198.708 150.146 197.142 148.579 195.21 148.579C193.278 148.579 191.712 150.146 191.712 152.079C191.712 154.011 193.278 155.578 195.21 155.578Z" fill="#E8CEBF" fill-opacity="0.5"/>
<path d="M226.656 217.638C228.588 217.638 230.154 216.071 230.154 214.139C230.154 212.206 228.588 210.639 226.656 210.639C224.724 210.639 223.158 212.206 223.158 214.139C223.158 216.071 224.724 217.638 226.656 217.638Z" fill="#E8CEBF" fill-opacity="0.5"/>
<path d="M174.222 118.835C174.222 120.763 175.792 122.334 177.72 122.334C179.647 122.334 181.218 120.763 181.218 118.835C181.218 116.907 179.647 115.336 177.72 115.336C175.792 115.336 174.222 116.907 174.222 118.835Z" fill="#E8CEBF" fill-opacity="0.5"/>
<path d="M133.174 180.931C135.106 180.931 136.672 179.364 136.672 177.431C136.672 175.499 135.106 173.932 133.174 173.932C131.242 173.932 129.676 175.499 129.676 177.431C129.676 179.364 131.242 180.931 133.174 180.931Z" fill="#E8CEBF" fill-opacity="0.5"/>
<path d="M148.022 209.747C148.022 211.675 149.593 213.246 151.52 213.246C153.448 213.246 155.018 211.675 155.018 209.747C155.018 207.818 153.448 206.247 151.52 206.247C149.593 206.247 148.022 207.818 148.022 209.747Z" fill="#E8CEBF" fill-opacity="0.5"/>
<path d="M230.154 197.535C232.086 197.535 233.652 195.968 233.652 194.035C233.652 192.103 232.086 190.536 230.154 190.536C228.222 190.536 226.656 192.103 226.656 194.035C226.656 195.968 228.222 197.535 230.154 197.535Z" fill="#E8CEBF" fill-opacity="0.5"/>
<path d="M163.763 55.5611C163.763 59.9174 167.297 63.4167 171.616 63.4167C175.971 63.4167 179.469 59.8817 179.469 55.5611C179.469 51.2404 175.935 47.7054 171.616 47.7054C167.261 47.7054 163.763 51.2047 163.763 55.5611Z" fill="#E8CEBF" fill-opacity="0.5"/>
<path d="M151.735 118.014C151.735 122.37 155.268 125.869 159.587 125.869C163.942 125.869 167.44 122.334 167.44 118.014C167.44 113.657 163.906 110.158 159.587 110.158C155.268 110.158 151.735 113.657 151.735 118.014Z" fill="#E8CEBF" fill-opacity="0.5"/>
<path d="M179.469 25.8166C179.469 30.1729 183.002 33.6723 187.321 33.6723C191.676 33.6723 195.174 30.1372 195.174 25.8166C195.174 21.496 191.64 17.9609 187.321 17.9609C183.002 17.9609 179.469 21.496 179.469 25.8166Z" fill="#E8CEBF" fill-opacity="0.5"/>
<path d="M150.878 73.4506C150.878 76.3429 153.234 78.6996 156.125 78.6996C159.016 78.6996 161.372 76.3429 161.372 73.4506C161.372 70.5583 159.016 68.2016 156.125 68.2016C153.198 68.2016 150.878 70.5226 150.878 73.4506Z" fill="#E8CEBF" fill-opacity="0.5"/>
<path d="M213.771 91.8043C213.771 94.6966 216.127 97.0533 219.018 97.0533C221.909 97.0533 224.265 94.6966 224.265 91.8043C224.265 88.912 221.909 86.5553 219.018 86.5553C216.127 86.5553 213.771 88.912 213.771 91.8043Z" fill="#E8CEBF" fill-opacity="0.5"/>
<path d="M179.683 90.0546C179.683 92.9469 182.039 95.3036 184.93 95.3036C187.821 95.3036 190.177 92.9469 190.177 90.0546C190.177 87.1623 187.821 84.8056 184.93 84.8056C182.039 84.8056 179.683 87.1623 179.683 90.0546Z" fill="#E8CEBF" fill-opacity="0.5"/>
<path d="M200.671 50.7048C200.671 53.5971 203.027 55.9539 205.918 55.9539C208.809 55.9539 211.165 53.5971 211.165 50.7048C211.165 47.8125 208.809 45.4558 205.918 45.4558C203.027 45.4558 200.671 47.8125 200.671 50.7048Z" fill="#E8CEBF" fill-opacity="0.5"/>
<path d="M204.169 13.1047C204.169 15.997 206.525 18.3537 209.416 18.3537C212.307 18.3537 214.663 15.997 214.663 13.1047C214.663 10.2124 212.307 7.85568 209.416 7.85568C206.525 7.85568 204.169 10.2124 204.169 13.1047Z" fill="#E8CEBF" fill-opacity="0.5"/>
<path d="M116.79 50.7048C116.79 53.5971 119.146 55.9539 122.037 55.9539C124.928 55.9539 127.284 53.5971 127.284 50.7048C127.284 47.8125 124.928 45.4558 122.037 45.4558C119.11 45.4558 116.79 47.8125 116.79 50.7048Z" fill="#E8CEBF" fill-opacity="0.5"/>
<path d="M122.037 31.4584C122.037 34.3508 124.393 36.7075 127.284 36.7075C130.176 36.7075 132.531 34.3508 132.531 31.4584C132.531 28.5661 130.176 26.2094 127.284 26.2094C124.357 26.2094 122.037 28.5661 122.037 31.4584Z" fill="#E8CEBF" fill-opacity="0.5"/>
<path d="M170.081 9.60534C170.081 12.4977 172.437 14.8544 175.328 14.8544C178.219 14.8544 180.575 12.4977 180.575 9.60534C180.575 6.71303 178.219 4.35632 175.328 4.35632C172.437 4.35632 170.081 6.71303 170.081 9.60534Z" fill="#E8CEBF" fill-opacity="0.5"/>
<path d="M173.579 76.9499C175.511 76.9499 177.077 75.3832 177.077 73.4506C177.077 71.5179 175.511 69.9512 173.579 69.9512C171.647 69.9512 170.081 71.5179 170.081 73.4506C170.081 75.3832 171.647 76.9499 173.579 76.9499Z" fill="#E8CEBF" fill-opacity="0.5"/>
<path d="M134.245 79.5566C136.176 79.5566 137.743 77.9899 137.743 76.0572C137.743 74.1246 136.176 72.5579 134.245 72.5579C132.313 72.5579 130.747 74.1246 130.747 76.0572C130.747 77.9899 132.313 79.5566 134.245 79.5566Z" fill="#E8CEBF" fill-opacity="0.5"/>
<path d="M137.743 111.015C139.675 111.015 141.241 109.448 141.241 107.516C141.241 105.583 139.675 104.016 137.743 104.016C135.811 104.016 134.245 105.583 134.245 107.516C134.245 109.448 135.811 111.015 137.743 111.015Z" fill="#E8CEBF" fill-opacity="0.5"/>
<path d="M161.336 23.6027C163.268 23.6027 164.834 22.036 164.834 20.1034C164.834 18.1707 163.268 16.604 161.336 16.604C159.404 16.604 157.838 18.1707 157.838 20.1034C157.838 22.036 159.404 23.6027 161.336 23.6027Z" fill="#E8CEBF" fill-opacity="0.5"/>
<path d="M137.743 47.2055C139.675 47.2055 141.241 45.6388 141.241 43.7061C141.241 41.7735 139.675 40.2068 137.743 40.2068C135.811 40.2068 134.245 41.7735 134.245 43.7061C134.245 45.6388 135.811 47.2055 137.743 47.2055Z" fill="#E8CEBF" fill-opacity="0.5"/>
<path d="M145.631 41.0995C145.631 45.4558 149.165 48.9552 153.484 48.9552C157.838 48.9552 161.336 45.4201 161.336 41.0995C161.336 36.7431 157.803 33.2438 153.484 33.2438C149.129 33.2081 145.631 36.7431 145.631 41.0995Z" fill="#E8CEBF" fill-opacity="0.5"/>
<path d="M140.384 92.6613C140.384 97.0176 143.918 100.517 148.237 100.517C152.556 100.517 156.089 96.9819 156.089 92.6613C156.089 88.305 152.556 84.8056 148.237 84.8056C143.918 84.8056 140.384 88.305 140.384 92.6613Z" fill="#E8CEBF" fill-opacity="0.5"/>
<path d="M132.71 58.9533C132.71 61.8456 135.066 64.2023 137.957 64.2023C140.848 64.2023 143.204 61.8456 143.204 58.9533C143.204 56.061 140.848 53.7043 137.957 53.7043C135.066 53.7043 132.71 56.061 132.71 58.9533Z" fill="#E8CEBF" fill-opacity="0.5"/>
<path d="M115.041 76.9142C115.041 79.8066 117.397 82.1633 120.288 82.1633C123.179 82.1633 125.535 79.8066 125.535 76.9142C125.535 74.0219 123.179 71.6652 120.288 71.6652C117.397 71.7009 115.041 74.0219 115.041 76.9142Z" fill="#E8CEBF" fill-opacity="0.5"/>
<path d="M215.52 64.7022C215.52 67.5945 217.876 69.9512 220.767 69.9512C223.658 69.9512 226.014 67.5945 226.014 64.7022C226.014 61.8099 223.658 59.4532 220.767 59.4532C217.876 59.4532 215.52 61.8099 215.52 64.7022Z" fill="#E8CEBF" fill-opacity="0.5"/>
<path d="M184.073 63.8095C184.073 66.7019 186.429 69.0586 189.32 69.0586C192.211 69.0586 194.567 66.7019 194.567 63.8095C194.567 60.9172 192.211 58.5605 189.32 58.5605C186.429 58.5605 184.073 60.9172 184.073 63.8095Z" fill="#E8CEBF" fill-opacity="0.5"/>
<path d="M181.432 43.7061C181.432 46.5985 183.788 48.9552 186.679 48.9552C189.57 48.9552 191.926 46.5985 191.926 43.7061C191.926 40.8138 189.57 38.4571 186.679 38.4571C183.788 38.4571 181.432 40.8138 181.432 43.7061Z" fill="#E8CEBF" fill-opacity="0.5"/>
<path d="M136.886 25.3524C136.886 28.2447 139.242 30.6014 142.133 30.6014C145.024 30.6014 147.38 28.2447 147.38 25.3524C147.38 22.4601 145.024 20.1034 142.133 20.1034C139.242 20.1034 136.886 22.4601 136.886 25.3524Z" fill="#E8CEBF" fill-opacity="0.5"/>
<path d="M161.336 90.0546C161.336 92.9469 163.692 95.3036 166.583 95.3036C169.475 95.3036 171.83 92.9469 171.83 90.0546C171.83 87.1623 169.475 84.8056 166.583 84.8056C163.692 84.8056 161.336 87.1623 161.336 90.0546Z" fill="#E8CEBF" fill-opacity="0.5"/>
<path d="M155.447 62.4526C157.379 62.4526 158.945 60.8859 158.945 58.9533C158.945 57.0207 157.379 55.4539 155.447 55.4539C153.515 55.4539 151.949 57.0207 151.949 58.9533C151.949 60.8859 153.515 62.4526 155.447 62.4526Z" fill="#E8CEBF" fill-opacity="0.5"/>
<path d="M191.069 119.763C193.001 119.763 194.567 118.197 194.567 116.264C194.567 114.331 193.001 112.765 191.069 112.765C189.137 112.765 187.571 114.331 187.571 116.264C187.571 118.197 189.137 119.763 191.069 119.763Z" fill="#E8CEBF" fill-opacity="0.5"/>
<path d="M180.575 108.408C182.507 108.408 184.073 106.842 184.073 104.909C184.073 102.976 182.507 101.41 180.575 101.41C178.643 101.41 177.077 102.976 177.077 104.909C177.077 106.842 178.643 108.408 180.575 108.408Z" fill="#E8CEBF" fill-opacity="0.5"/>
<path d="M110.651 28.8518C112.583 28.8518 114.149 27.285 114.149 25.3524C114.149 23.4198 112.583 21.8531 110.651 21.8531C108.719 21.8531 107.153 23.4198 107.153 25.3524C107.153 27.285 108.719 28.8518 110.651 28.8518Z" fill="#E8CEBF" fill-opacity="0.5"/>
<path d="M208.524 39.3498C210.456 39.3498 212.022 37.7831 212.022 35.8505C212.022 33.9178 210.456 32.3511 208.524 32.3511C206.592 32.3511 205.026 33.9178 205.026 35.8505C205.026 37.7831 206.592 39.3498 208.524 39.3498Z" fill="#E8CEBF" fill-opacity="0.5"/>
<path d="M166.583 36.7074C166.583 38.6357 168.154 40.2068 170.081 40.2068C172.009 40.2068 173.579 38.6357 173.579 36.7074C173.579 34.7792 172.009 33.2081 170.081 33.2081C168.154 33.2081 166.583 34.7792 166.583 36.7074Z" fill="#E8CEBF" fill-opacity="0.5"/>
<path d="M201.563 102.302C203.495 102.302 205.061 100.736 205.061 98.803C205.061 96.8704 203.495 95.3036 201.563 95.3036C199.632 95.3036 198.065 96.8704 198.065 98.803C198.065 100.736 199.632 102.302 201.563 102.302Z" fill="#E8CEBF" fill-opacity="0.5"/>
<path d="M152.591 6.99869C154.523 6.99869 156.089 5.43198 156.089 3.49935C156.089 1.56671 154.523 0 152.591 0C150.659 0 149.093 1.56671 149.093 3.49935C149.093 5.43198 150.659 6.99869 152.591 6.99869Z" fill="#E8CEBF" fill-opacity="0.5"/>
<path d="M108.045 65.5592C109.977 65.5592 111.543 63.9925 111.543 62.0599C111.543 60.1272 109.977 58.5605 108.045 58.5605C106.113 58.5605 104.547 60.1272 104.547 62.0599C104.547 63.9925 106.113 65.5592 108.045 65.5592Z" fill="#E8CEBF" fill-opacity="0.5"/>
<path d="M126.392 97.9103C128.324 97.9103 129.89 96.3436 129.89 94.411C129.89 92.4783 128.324 90.9116 126.392 90.9116C124.46 90.9116 122.894 92.4783 122.894 94.411C122.894 96.3436 124.46 97.9103 126.392 97.9103Z" fill="#E8CEBF" fill-opacity="0.5"/>
<path d="M201.563 78.6639C201.563 80.5921 203.134 82.1632 205.061 82.1632C206.989 82.1632 208.559 80.5921 208.559 78.6639C208.559 76.7357 206.989 75.1646 205.061 75.1646C203.098 75.2003 201.563 76.7357 201.563 78.6639Z" fill="#E8CEBF" fill-opacity="0.5"/>
</g>
<defs>
<clipPath id="clip0_325_6441">
<rect width="375" height="383" fill="white"/>
</clipPath>
</defs>
</svg>
