<svg width="292" height="383" viewBox="0 0 292 383" fill="none" xmlns="http://www.w3.org/2000/svg">
<g clip-path="url(#clip0_325_6919)">
<path d="M237.602 244.276C241.939 244.276 245.454 240.759 245.454 236.42C245.454 232.082 241.939 228.565 237.602 228.565C233.265 228.565 229.749 232.082 229.749 236.42C229.749 240.759 233.265 244.276 237.602 244.276Z" fill="#E8CEBF" fill-opacity="0.5"/>
<path d="M217.72 298.873C217.72 303.229 221.254 306.729 225.573 306.729C229.928 306.729 233.426 303.193 233.426 298.873C233.426 294.516 229.892 291.017 225.573 291.017C221.218 291.017 217.72 294.552 217.72 298.873Z" fill="#E8CEBF" fill-opacity="0.5"/>
<path d="M245.454 206.711C245.454 211.068 248.988 214.567 253.307 214.567C257.662 214.567 261.16 211.032 261.16 206.711C261.16 202.391 257.626 198.856 253.307 198.856C248.988 198.82 245.454 202.355 245.454 206.711Z" fill="#E8CEBF" fill-opacity="0.5"/>
<path d="M216.828 254.31C216.828 257.202 219.184 259.559 222.075 259.559C224.966 259.559 227.322 257.202 227.322 254.31C227.322 251.417 224.966 249.061 222.075 249.061C219.184 249.061 216.828 251.417 216.828 254.31Z" fill="#E8CEBF" fill-opacity="0.5"/>
<path d="M279.756 272.663C279.756 275.556 282.112 277.912 285.003 277.912C287.895 277.912 290.25 275.556 290.25 272.663C290.25 269.771 287.895 267.414 285.003 267.414C282.112 267.414 279.756 269.771 279.756 272.663Z" fill="#E8CEBF" fill-opacity="0.5"/>
<path d="M245.669 270.914C245.669 273.806 248.025 276.163 250.916 276.163C253.807 276.163 256.163 273.806 256.163 270.914C256.163 268.021 253.807 265.665 250.916 265.665C248.025 265.665 245.669 268.021 245.669 270.914Z" fill="#E8CEBF" fill-opacity="0.5"/>
<path d="M266.656 231.564C266.656 234.456 269.012 236.813 271.904 236.813C274.795 236.813 277.151 234.456 277.151 231.564C277.151 228.672 274.795 226.315 271.904 226.315C269.012 226.315 266.656 228.672 266.656 231.564Z" fill="#E8CEBF" fill-opacity="0.5"/>
<path d="M270.155 193.964C270.155 196.856 272.51 199.213 275.402 199.213C278.293 199.213 280.649 196.856 280.649 193.964C280.649 191.072 278.293 188.715 275.402 188.715C272.51 188.751 270.155 191.072 270.155 193.964Z" fill="#E8CEBF" fill-opacity="0.5"/>
<path d="M182.776 231.564C182.776 234.456 185.132 236.813 188.023 236.813C190.914 236.813 193.27 234.456 193.27 231.564C193.27 228.672 190.914 226.315 188.023 226.315C185.132 226.315 182.776 228.672 182.776 231.564Z" fill="#E8CEBF" fill-opacity="0.5"/>
<path d="M187.987 212.353C187.987 215.246 190.343 217.602 193.234 217.602C196.126 217.602 198.481 215.246 198.481 212.353C198.481 209.461 196.126 207.104 193.234 207.104C190.343 207.104 187.987 209.425 187.987 212.353Z" fill="#E8CEBF" fill-opacity="0.5"/>
<path d="M236.067 190.464C236.067 193.357 238.423 195.714 241.314 195.714C244.205 195.714 246.561 193.357 246.561 190.464C246.561 187.572 244.205 185.215 241.314 185.215C238.423 185.251 236.067 187.572 236.067 190.464Z" fill="#E8CEBF" fill-opacity="0.5"/>
<path d="M236.067 254.31C236.067 256.238 237.637 257.809 239.565 257.809C241.492 257.809 243.063 256.238 243.063 254.31C243.063 252.381 241.492 250.81 239.565 250.81C237.637 250.81 236.067 252.381 236.067 254.31Z" fill="#E8CEBF" fill-opacity="0.5"/>
<path d="M196.732 256.916C196.732 258.845 198.303 260.416 200.23 260.416C202.158 260.416 203.728 258.845 203.728 256.916C203.728 254.988 202.158 253.417 200.23 253.417C198.303 253.417 196.732 254.988 196.732 256.916Z" fill="#E8CEBF" fill-opacity="0.5"/>
<path d="M203.728 291.91C205.66 291.91 207.226 290.343 207.226 288.41C207.226 286.478 205.66 284.911 203.728 284.911C201.796 284.911 200.23 286.478 200.23 288.41C200.23 290.343 201.796 291.91 203.728 291.91Z" fill="#E8CEBF" fill-opacity="0.5"/>
<path d="M227.322 204.462C229.254 204.462 230.82 202.895 230.82 200.963C230.82 199.03 229.254 197.463 227.322 197.463C225.39 197.463 223.824 199.03 223.824 200.963C223.824 202.895 225.39 204.462 227.322 204.462Z" fill="#E8CEBF" fill-opacity="0.5"/>
<path d="M203.728 228.065C205.66 228.065 207.226 226.498 207.226 224.565C207.226 222.633 205.66 221.066 203.728 221.066C201.796 221.066 200.23 222.633 200.23 224.565C200.23 226.498 201.796 228.065 203.728 228.065Z" fill="#E8CEBF" fill-opacity="0.5"/>
<path d="M211.581 221.959C211.581 226.315 215.115 229.814 219.434 229.814C223.788 229.814 227.286 226.279 227.286 221.959C227.286 217.602 223.753 214.103 219.434 214.103C215.115 214.103 211.581 217.602 211.581 221.959Z" fill="#E8CEBF" fill-opacity="0.5"/>
<path d="M206.37 273.52C206.37 277.877 209.903 281.376 214.222 281.376C218.577 281.376 222.075 277.841 222.075 273.52C222.075 269.164 218.541 265.665 214.222 265.665C209.868 265.665 206.37 269.2 206.37 273.52Z" fill="#E8CEBF" fill-opacity="0.5"/>
<path d="M198.695 239.848C198.695 242.74 201.051 245.097 203.942 245.097C206.834 245.097 209.189 242.74 209.189 239.848C209.189 236.956 206.834 234.599 203.942 234.599C201.051 234.599 198.695 236.92 198.695 239.848Z" fill="#E8CEBF" fill-opacity="0.5"/>
<path d="M181.027 257.809C181.027 260.701 183.383 263.058 186.274 263.058C189.165 263.058 191.521 260.701 191.521 257.809C191.521 254.917 189.165 252.56 186.274 252.56C183.383 252.56 181.027 254.917 181.027 257.809Z" fill="#E8CEBF" fill-opacity="0.5"/>
<path d="M281.505 245.561C281.505 248.454 283.861 250.81 286.752 250.81C289.644 250.81 291.999 248.454 291.999 245.561C291.999 242.669 289.644 240.312 286.752 240.312C283.861 240.312 281.505 242.669 281.505 245.561Z" fill="#E8CEBF" fill-opacity="0.5"/>
<path d="M250.059 244.669C250.059 247.561 252.415 249.918 255.306 249.918C258.197 249.918 260.553 247.561 260.553 244.669C260.553 241.776 258.197 239.42 255.306 239.42C252.415 239.42 250.059 241.776 250.059 244.669Z" fill="#E8CEBF" fill-opacity="0.5"/>
<path d="M247.417 224.565C247.417 227.458 249.773 229.814 252.664 229.814C255.556 229.814 257.911 227.458 257.911 224.565C257.911 221.673 255.556 219.316 252.664 219.316C249.773 219.316 247.417 221.673 247.417 224.565Z" fill="#E8CEBF" fill-opacity="0.5"/>
<path d="M202.872 206.212C202.872 209.104 205.227 211.461 208.119 211.461C211.01 211.461 213.366 209.104 213.366 206.212C213.366 203.319 211.01 200.963 208.119 200.963C205.192 200.963 202.872 203.319 202.872 206.212Z" fill="#E8CEBF" fill-opacity="0.5"/>
<path d="M227.322 270.914C227.322 273.806 229.678 276.163 232.569 276.163C235.46 276.163 237.816 273.806 237.816 270.914C237.816 268.021 235.46 265.665 232.569 265.665C229.678 265.665 227.322 268.021 227.322 270.914Z" fill="#E8CEBF" fill-opacity="0.5"/>
<path d="M221.432 243.347C223.364 243.347 224.93 241.781 224.93 239.848C224.93 237.915 223.364 236.349 221.432 236.349C219.5 236.349 217.934 237.915 217.934 239.848C217.934 241.781 219.5 243.347 221.432 243.347Z" fill="#E8CEBF" fill-opacity="0.5"/>
<path d="M253.557 297.123C253.557 299.051 255.127 300.623 257.055 300.623C258.982 300.623 260.553 299.051 260.553 297.123C260.553 295.195 258.982 293.624 257.055 293.624C255.092 293.624 253.557 295.195 253.557 297.123Z" fill="#E8CEBF" fill-opacity="0.5"/>
<path d="M246.561 289.267C248.493 289.267 250.059 287.701 250.059 285.768C250.059 283.835 248.493 282.269 246.561 282.269C244.629 282.269 243.063 283.835 243.063 285.768C243.063 287.701 244.629 289.267 246.561 289.267Z" fill="#E8CEBF" fill-opacity="0.5"/>
<path d="M176.637 209.711C178.569 209.711 180.135 208.144 180.135 206.212C180.135 204.279 178.569 202.712 176.637 202.712C174.705 202.712 173.139 204.279 173.139 206.212C173.139 208.144 174.705 209.711 176.637 209.711Z" fill="#E8CEBF" fill-opacity="0.5"/>
<path d="M274.509 220.209C276.441 220.209 278.007 218.642 278.007 216.71C278.007 214.777 276.441 213.21 274.509 213.21C272.577 213.21 271.011 214.777 271.011 216.71C271.011 218.642 272.577 220.209 274.509 220.209Z" fill="#E8CEBF" fill-opacity="0.5"/>
<path d="M236.067 221.066C237.999 221.066 239.565 219.499 239.565 217.567C239.565 215.634 237.999 214.067 236.067 214.067C234.135 214.067 232.569 215.634 232.569 217.567C232.569 219.499 234.135 221.066 236.067 221.066Z" fill="#E8CEBF" fill-opacity="0.5"/>
<path d="M264.015 279.662C264.015 281.59 265.586 283.161 267.513 283.161C269.441 283.161 271.011 281.59 271.011 279.662C271.011 277.734 269.441 276.163 267.513 276.163C265.586 276.163 264.015 277.734 264.015 279.662Z" fill="#E8CEBF" fill-opacity="0.5"/>
<path d="M215.079 184.358C215.079 186.287 216.649 187.858 218.577 187.858C220.504 187.858 222.075 186.287 222.075 184.358C222.075 182.43 220.504 180.859 218.577 180.859C216.649 180.859 215.079 182.43 215.079 184.358Z" fill="#E8CEBF" fill-opacity="0.5"/>
<path d="M174.031 246.418C175.963 246.418 177.529 244.852 177.529 242.919C177.529 240.986 175.963 239.42 174.031 239.42C172.099 239.42 170.533 240.986 170.533 242.919C170.533 244.852 172.099 246.418 174.031 246.418Z" fill="#E8CEBF" fill-opacity="0.5"/>
<path d="M192.378 278.769C194.31 278.769 195.876 277.203 195.876 275.27C195.876 273.337 194.31 271.771 192.378 271.771C190.446 271.771 188.88 273.337 188.88 275.27C188.88 277.203 190.446 278.769 192.378 278.769Z" fill="#E8CEBF" fill-opacity="0.5"/>
<path d="M267.513 259.559C267.513 261.487 269.084 263.058 271.011 263.058C272.939 263.058 274.509 261.487 274.509 259.559C274.509 257.631 272.939 256.059 271.011 256.059C269.084 256.059 267.513 257.631 267.513 259.559Z" fill="#E8CEBF" fill-opacity="0.5"/>
<path d="M204.621 121.085C204.621 125.441 208.154 128.94 212.473 128.94C216.828 128.94 220.326 125.405 220.326 121.085C220.326 116.764 216.792 113.229 212.473 113.229C208.154 113.193 204.621 116.728 204.621 121.085Z" fill="#E8CEBF" fill-opacity="0.5"/>
<path d="M192.592 183.537C192.592 187.894 196.126 191.393 200.444 191.393C204.799 191.393 208.297 187.858 208.297 183.537C208.297 179.217 204.763 175.682 200.444 175.682C196.126 175.682 192.592 179.181 192.592 183.537Z" fill="#E8CEBF" fill-opacity="0.5"/>
<path d="M220.362 91.3401C220.362 95.6964 223.896 99.1958 228.214 99.1958C232.569 99.1958 236.067 95.6607 236.067 91.3401C236.067 87.0195 232.533 83.4844 228.214 83.4844C223.86 83.4844 220.362 87.0195 220.362 91.3401Z" fill="#E8CEBF" fill-opacity="0.5"/>
<path d="M191.735 138.938C191.735 141.831 194.091 144.187 196.982 144.187C199.873 144.187 202.229 141.831 202.229 138.938C202.229 136.046 199.873 133.689 196.982 133.689C194.055 133.725 191.735 136.046 191.735 138.938Z" fill="#E8CEBF" fill-opacity="0.5"/>
<path d="M254.628 157.328C254.628 160.22 256.984 162.577 259.875 162.577C262.766 162.577 265.122 160.22 265.122 157.328C265.122 154.435 262.766 152.079 259.875 152.079C256.984 152.079 254.628 154.4 254.628 157.328Z" fill="#E8CEBF" fill-opacity="0.5"/>
<path d="M220.576 155.578C220.576 158.47 222.932 160.827 225.823 160.827C228.714 160.827 231.07 158.47 231.07 155.578C231.07 152.686 228.714 150.329 225.823 150.329C222.932 150.329 220.576 152.65 220.576 155.578Z" fill="#E8CEBF" fill-opacity="0.5"/>
<path d="M241.528 116.228C241.528 119.121 243.884 121.477 246.775 121.477C249.666 121.477 252.022 119.121 252.022 116.228C252.022 113.336 249.666 110.979 246.775 110.979C243.884 110.979 241.528 113.336 241.528 116.228Z" fill="#E8CEBF" fill-opacity="0.5"/>
<path d="M245.026 78.6282C245.026 81.5205 247.382 83.8772 250.273 83.8772C253.164 83.8772 255.52 81.5205 255.52 78.6282C255.52 75.7359 253.164 73.3792 250.273 73.3792C247.382 73.3792 245.026 75.7359 245.026 78.6282Z" fill="#E8CEBF" fill-opacity="0.5"/>
<path d="M157.647 116.228C157.647 119.121 160.003 121.477 162.894 121.477C165.786 121.477 168.141 119.121 168.141 116.228C168.141 113.336 165.786 110.979 162.894 110.979C160.003 110.979 157.647 113.336 157.647 116.228Z" fill="#E8CEBF" fill-opacity="0.5"/>
<path d="M162.895 96.9819C162.895 99.8742 165.25 102.231 168.142 102.231C171.033 102.231 173.389 99.8742 173.389 96.9819C173.389 94.0896 171.033 91.7329 168.142 91.7329C165.25 91.7329 162.895 94.0896 162.895 96.9819Z" fill="#E8CEBF" fill-opacity="0.5"/>
<path d="M210.938 75.1288C210.938 78.0212 213.294 80.3779 216.185 80.3779C219.077 80.3779 221.432 78.0212 221.432 75.1288C221.432 72.2365 219.077 69.8798 216.185 69.8798C213.294 69.8798 210.938 72.2365 210.938 75.1288Z" fill="#E8CEBF" fill-opacity="0.5"/>
<path d="M210.938 138.938C210.938 140.867 212.509 142.438 214.436 142.438C216.364 142.438 217.934 140.867 217.934 138.938C217.934 137.01 216.364 135.439 214.436 135.439C212.509 135.475 210.938 137.01 210.938 138.938Z" fill="#E8CEBF" fill-opacity="0.5"/>
<path d="M175.102 145.08C177.034 145.08 178.6 143.513 178.6 141.581C178.6 139.648 177.034 138.081 175.102 138.081C173.17 138.081 171.604 139.648 171.604 141.581C171.604 143.513 173.17 145.08 175.102 145.08Z" fill="#E8CEBF" fill-opacity="0.5"/>
<path d="M178.6 176.538C180.532 176.538 182.098 174.972 182.098 173.039C182.098 171.107 180.532 169.54 178.6 169.54C176.668 169.54 175.102 171.107 175.102 173.039C175.102 174.972 176.668 176.538 178.6 176.538Z" fill="#E8CEBF" fill-opacity="0.5"/>
<path d="M202.194 89.1262C204.125 89.1262 205.692 87.5595 205.692 85.6269C205.692 83.6942 204.125 82.1275 202.194 82.1275C200.262 82.1275 198.696 83.6942 198.696 85.6269C198.696 87.5595 200.262 89.1262 202.194 89.1262Z" fill="#E8CEBF" fill-opacity="0.5"/>
<path d="M178.6 112.729C180.532 112.729 182.098 111.162 182.098 109.23C182.098 107.297 180.532 105.73 178.6 105.73C176.668 105.73 175.102 107.297 175.102 109.23C175.102 111.162 176.668 112.729 178.6 112.729Z" fill="#E8CEBF" fill-opacity="0.5"/>
<path d="M186.488 106.623C186.488 110.979 190.022 114.479 194.341 114.479C198.696 114.479 202.194 110.944 202.194 106.623C202.194 102.267 198.66 98.7673 194.341 98.7673C189.986 98.7316 186.488 102.267 186.488 106.623Z" fill="#E8CEBF" fill-opacity="0.5"/>
<path d="M181.241 158.185C181.241 162.541 184.775 166.04 189.094 166.04C193.449 166.04 196.947 162.505 196.947 158.185C196.947 153.828 193.413 150.329 189.094 150.329C184.775 150.329 181.241 153.828 181.241 158.185Z" fill="#E8CEBF" fill-opacity="0.5"/>
<path d="M173.567 124.477C173.567 127.369 175.923 129.726 178.814 129.726C181.705 129.726 184.061 127.369 184.061 124.477C184.061 121.584 181.705 119.228 178.814 119.228C175.923 119.228 173.567 121.584 173.567 124.477Z" fill="#E8CEBF" fill-opacity="0.5"/>
<path d="M155.898 142.438C155.898 145.33 158.254 147.687 161.145 147.687C164.037 147.687 166.392 145.33 166.392 142.438C166.392 139.545 164.037 137.189 161.145 137.189C158.254 137.189 155.898 139.545 155.898 142.438Z" fill="#E8CEBF" fill-opacity="0.5"/>
<path d="M256.377 130.226C256.377 133.118 258.733 135.475 261.624 135.475C264.515 135.475 266.871 133.118 266.871 130.226C266.871 127.333 264.515 124.977 261.624 124.977C258.733 124.977 256.377 127.298 256.377 130.226Z" fill="#E8CEBF" fill-opacity="0.5"/>
<path d="M224.93 129.333C224.93 132.225 227.286 134.582 230.177 134.582C233.069 134.582 235.424 132.225 235.424 129.333C235.424 126.441 233.069 124.084 230.177 124.084C227.286 124.084 224.93 126.441 224.93 129.333Z" fill="#E8CEBF" fill-opacity="0.5"/>
<path d="M222.325 109.23C222.325 112.122 224.681 114.479 227.572 114.479C230.463 114.479 232.819 112.122 232.819 109.23C232.819 106.337 230.463 103.981 227.572 103.981C224.681 103.981 222.325 106.337 222.325 109.23Z" fill="#E8CEBF" fill-opacity="0.5"/>
<path d="M177.743 90.8759C177.743 93.7682 180.099 96.1249 182.99 96.1249C185.881 96.1249 188.237 93.7682 188.237 90.8759C188.237 87.9836 185.881 85.6269 182.99 85.6269C180.099 85.6269 177.743 87.9836 177.743 90.8759Z" fill="#E8CEBF" fill-opacity="0.5"/>
<path d="M202.194 155.578C202.194 158.47 204.549 160.827 207.441 160.827C210.332 160.827 212.688 158.47 212.688 155.578C212.688 152.686 210.332 150.329 207.441 150.329C204.549 150.329 202.194 152.65 202.194 155.578Z" fill="#E8CEBF" fill-opacity="0.5"/>
<path d="M196.304 127.976C198.236 127.976 199.802 126.409 199.802 124.477C199.802 122.544 198.236 120.977 196.304 120.977C194.372 120.977 192.806 122.544 192.806 124.477C192.806 126.409 194.372 127.976 196.304 127.976Z" fill="#E8CEBF" fill-opacity="0.5"/>
<path d="M228.428 181.788C228.428 183.716 229.999 185.287 231.926 185.287C233.854 185.287 235.424 183.716 235.424 181.788C235.424 179.859 233.854 178.288 231.926 178.288C229.999 178.288 228.428 179.859 228.428 181.788Z" fill="#E8CEBF" fill-opacity="0.5"/>
<path d="M217.935 170.432C217.935 172.361 219.505 173.932 221.433 173.932C223.36 173.932 224.931 172.361 224.931 170.432C224.931 168.504 223.36 166.933 221.433 166.933C219.505 166.933 217.935 168.504 217.935 170.432Z" fill="#E8CEBF" fill-opacity="0.5"/>
<path d="M151.508 94.3753C153.44 94.3753 155.006 92.8085 155.006 90.8759C155.006 88.9433 153.44 87.3766 151.508 87.3766C149.576 87.3766 148.01 88.9433 148.01 90.8759C148.01 92.8085 149.576 94.3753 151.508 94.3753Z" fill="#E8CEBF" fill-opacity="0.5"/>
<path d="M245.918 101.374C245.918 103.302 247.489 104.873 249.416 104.873C251.344 104.873 252.914 103.302 252.914 101.374C252.914 99.4457 251.344 97.8746 249.416 97.8746C247.453 97.8746 245.918 99.4457 245.918 101.374Z" fill="#E8CEBF" fill-opacity="0.5"/>
<path d="M210.938 105.73C212.87 105.73 214.436 104.164 214.436 102.231C214.436 100.298 212.87 98.7316 210.938 98.7316C209.007 98.7316 207.44 100.298 207.44 102.231C207.44 104.164 209.007 105.73 210.938 105.73Z" fill="#E8CEBF" fill-opacity="0.5"/>
<path d="M242.421 167.79C244.352 167.79 245.919 166.223 245.919 164.291C245.919 162.358 244.352 160.791 242.421 160.791C240.489 160.791 238.923 162.358 238.923 164.291C238.923 166.223 240.489 167.79 242.421 167.79Z" fill="#E8CEBF" fill-opacity="0.5"/>
<path d="M189.986 69.0228C189.986 70.951 191.557 72.5222 193.484 72.5222C195.412 72.5222 196.982 70.951 196.982 69.0228C196.982 67.0946 195.412 65.5235 193.484 65.5235C191.557 65.5235 189.986 67.0946 189.986 69.0228Z" fill="#E8CEBF" fill-opacity="0.5"/>
<path d="M148.903 131.083C150.834 131.083 152.401 129.516 152.401 127.583C152.401 125.651 150.834 124.084 148.903 124.084C146.971 124.084 145.405 125.651 145.405 127.583C145.405 129.516 146.971 131.083 148.903 131.083Z" fill="#E8CEBF" fill-opacity="0.5"/>
<path d="M163.751 159.934C163.751 161.863 165.322 163.434 167.249 163.434C169.177 163.434 170.747 161.863 170.747 159.934C170.747 158.006 169.177 156.435 167.249 156.435C165.322 156.435 163.751 158.006 163.751 159.934Z" fill="#E8CEBF" fill-opacity="0.5"/>
<path d="M245.918 147.687C247.85 147.687 249.416 146.12 249.416 144.187C249.416 142.255 247.85 140.688 245.918 140.688C243.987 140.688 242.42 142.255 242.42 144.187C242.42 146.12 243.987 147.687 245.918 147.687Z" fill="#E8CEBF" fill-opacity="0.5"/>
<path d="M115.637 309.299C119.956 309.728 123.811 306.55 124.203 302.229C124.631 297.909 121.455 294.052 117.136 293.66C112.817 293.231 108.962 296.409 108.569 300.73C108.141 305.05 111.318 308.907 115.637 309.299Z" fill="#E8CEBF" fill-opacity="0.5"/>
<path d="M176.673 327.189C180.992 327.617 184.847 324.439 185.24 320.119C185.668 315.798 182.491 311.942 178.172 311.549C173.853 311.121 169.998 314.299 169.606 318.619C169.177 322.94 172.354 326.796 176.673 327.189Z" fill="#E8CEBF" fill-opacity="0.5"/>
<path d="M87.5453 290.839C91.8643 291.267 95.7192 288.089 96.1118 283.768C96.5402 279.448 93.3634 275.591 89.0444 275.199C84.7255 274.77 80.8705 277.948 80.4779 282.269C80.0496 286.589 83.2263 290.41 87.5453 290.839Z" fill="#E8CEBF" fill-opacity="0.5"/>
<path d="M132.234 323.832C135.125 324.118 137.66 321.976 137.945 319.119C138.231 316.227 136.089 313.691 133.234 313.406C130.342 313.12 127.808 315.263 127.523 318.119C127.237 321.012 129.343 323.583 132.234 323.832Z" fill="#E8CEBF" fill-opacity="0.5"/>
<path d="M156.435 262.915C159.326 263.201 161.86 261.058 162.146 258.202C162.431 255.31 160.29 252.774 157.434 252.489C154.543 252.203 152.009 254.345 151.723 257.202C151.438 260.094 153.579 262.63 156.435 262.915Z" fill="#E8CEBF" fill-opacity="0.5"/>
<path d="M151.473 296.695C154.364 296.98 156.899 294.838 157.184 291.981C157.47 289.089 155.328 286.554 152.473 286.268C149.581 285.982 147.047 288.125 146.762 290.981C146.476 293.874 148.582 296.409 151.473 296.695Z" fill="#E8CEBF" fill-opacity="0.5"/>
<path d="M114.316 272.092C117.207 272.378 119.741 270.235 120.027 267.379C120.312 264.486 118.171 261.951 115.315 261.665C112.424 261.38 109.89 263.522 109.604 266.379C109.319 269.236 111.425 271.806 114.316 272.092Z" fill="#E8CEBF" fill-opacity="0.5"/>
<path d="M77.2299 265.058C80.1212 265.343 82.6554 263.201 82.941 260.344C83.2265 257.452 81.0849 254.917 78.2294 254.631C75.3382 254.345 72.8039 256.488 72.5184 259.344C72.2328 262.201 74.3387 264.772 77.2299 265.058Z" fill="#E8CEBF" fill-opacity="0.5"/>
<path d="M106.356 355.648C109.247 355.934 111.782 353.791 112.067 350.935C112.353 348.042 110.211 345.507 107.355 345.221C104.464 344.936 101.93 347.078 101.644 349.935C101.359 352.791 103.501 355.362 106.356 355.648Z" fill="#E8CEBF" fill-opacity="0.5"/>
<path d="M87.7239 348.578C90.6151 348.864 93.1493 346.721 93.4349 343.864C93.7204 340.972 91.5788 338.437 88.7233 338.151C85.8321 337.866 83.2978 340.008 83.0123 342.865C82.7267 345.757 84.8327 348.328 87.7239 348.578Z" fill="#E8CEBF" fill-opacity="0.5"/>
<path d="M70.5194 298.659C73.4106 298.944 75.9449 296.802 76.2304 293.945C76.516 291.053 74.3743 288.518 71.5188 288.232C68.6276 287.946 66.0933 290.089 65.8078 292.945C65.5222 295.802 67.6639 298.373 70.5194 298.659Z" fill="#E8CEBF" fill-opacity="0.5"/>
<path d="M134.054 304.693C135.982 304.872 137.695 303.479 137.874 301.551C138.052 299.623 136.66 297.909 134.733 297.73C132.805 297.552 131.092 298.944 130.913 300.872C130.699 302.801 132.127 304.515 134.054 304.693Z" fill="#E8CEBF" fill-opacity="0.5"/>
<path d="M132.912 344.114C134.84 344.293 136.553 342.9 136.732 340.972C136.91 339.044 135.518 337.33 133.591 337.151C131.663 336.973 129.95 338.365 129.771 340.294C129.593 342.222 130.985 343.936 132.912 344.114Z" fill="#E8CEBF" fill-opacity="0.5"/>
<path d="M164.573 343.614C166.5 343.793 168.213 342.4 168.392 340.472C168.57 338.544 167.178 336.83 165.251 336.651C163.323 336.473 161.61 337.866 161.432 339.794C161.253 341.722 162.645 343.436 164.573 343.614Z" fill="#E8CEBF" fill-opacity="0.5"/>
<path d="M79.7999 311.835C81.7274 312.013 83.4407 310.621 83.6192 308.692C83.7977 306.764 82.4056 305.05 80.4781 304.872C78.5506 304.693 76.8373 306.086 76.6589 308.014C76.4804 309.942 77.9082 311.656 79.7999 311.835Z" fill="#E8CEBF" fill-opacity="0.5"/>
<path d="M101.073 337.58C103.001 337.758 104.714 336.366 104.893 334.438C105.071 332.509 103.679 330.795 101.752 330.617C99.8242 330.438 98.1109 331.831 97.9324 333.759C97.7182 335.687 99.146 337.366 101.073 337.58Z" fill="#E8CEBF" fill-opacity="0.5"/>
<path d="M99.5385 326.011C103.857 326.439 107.712 323.261 108.105 318.941C108.533 314.62 105.357 310.763 101.038 310.371C96.7187 309.942 92.8637 313.12 92.4711 317.441C92.0427 321.761 95.2195 325.582 99.5385 326.011Z" fill="#E8CEBF" fill-opacity="0.5"/>
<path d="M150.367 336.116C154.686 336.544 158.54 333.366 158.933 329.046C159.361 324.725 156.185 320.869 151.866 320.476C147.547 320.047 143.692 323.225 143.299 327.546C142.871 331.867 146.048 335.687 150.367 336.116Z" fill="#E8CEBF" fill-opacity="0.5"/>
<path d="M116.101 340.544C118.992 340.829 121.526 338.687 121.812 335.83C122.097 332.938 119.956 330.403 117.1 330.117C114.209 329.831 111.675 331.974 111.389 334.83C111.103 337.687 113.209 340.258 116.101 340.544Z" fill="#E8CEBF" fill-opacity="0.5"/>
<path d="M132.306 359.861C135.197 360.147 137.731 358.005 138.017 355.148C138.302 352.256 136.161 349.72 133.305 349.435C130.414 349.149 127.88 351.292 127.594 354.148C127.308 357.005 129.414 359.576 132.306 359.861Z" fill="#E8CEBF" fill-opacity="0.5"/>
<path d="M129.629 258.63C132.52 258.916 135.054 256.774 135.34 253.917C135.625 251.025 133.483 248.489 130.628 248.204C127.737 247.918 125.202 250.061 124.917 252.917C124.631 255.774 126.773 258.345 129.629 258.63Z" fill="#E8CEBF" fill-opacity="0.5"/>
<path d="M125.809 289.875C128.7 290.16 131.235 288.018 131.52 285.161C131.806 282.269 129.664 279.734 126.809 279.448C123.918 279.162 121.383 281.305 121.098 284.161C120.812 287.018 122.918 289.589 125.809 289.875Z" fill="#E8CEBF" fill-opacity="0.5"/>
<path d="M105.535 290.553C108.426 290.839 110.961 288.696 111.246 285.84C111.532 282.947 109.39 280.412 106.535 280.126C103.643 279.841 101.109 281.983 100.824 284.84C100.538 287.732 102.644 290.303 105.535 290.553Z" fill="#E8CEBF" fill-opacity="0.5"/>
<path d="M83.0481 333.224C85.9393 333.509 88.4735 331.367 88.7591 328.51C89.0446 325.618 86.903 323.083 84.0475 322.797C81.1563 322.511 78.622 324.654 78.3365 327.51C78.0509 330.367 80.1569 332.938 83.0481 333.224Z" fill="#E8CEBF" fill-opacity="0.5"/>
<path d="M149.724 314.977C152.615 315.263 155.15 313.12 155.435 310.264C155.721 307.371 153.579 304.836 150.724 304.55C147.832 304.265 145.298 306.407 145.013 309.264C144.727 312.156 146.869 314.691 149.724 314.977Z" fill="#E8CEBF" fill-opacity="0.5"/>
<path d="M117.921 321.404C119.848 321.583 121.562 320.19 121.74 318.262C121.919 316.334 120.527 314.62 118.599 314.441C116.672 314.263 114.958 315.655 114.78 317.584C114.601 319.512 115.993 321.19 117.921 321.404Z" fill="#E8CEBF" fill-opacity="0.5"/>
<path d="M178.315 291.338C180.242 291.517 181.956 290.124 182.134 288.196C182.313 286.268 180.921 284.554 178.993 284.376C177.066 284.197 175.352 285.59 175.174 287.518C174.995 289.446 176.387 291.16 178.315 291.338Z" fill="#E8CEBF" fill-opacity="0.5"/>
<path d="M166.001 300.73C167.928 300.908 169.641 299.516 169.82 297.587C169.998 295.659 168.606 293.945 166.679 293.767C164.751 293.588 163.038 294.981 162.86 296.909C162.681 298.837 164.109 300.515 166.001 300.73Z" fill="#E8CEBF" fill-opacity="0.5"/>
<path d="M80.2282 362.789C82.1557 362.968 83.869 361.575 84.0475 359.647C84.226 357.719 82.8339 356.005 80.9064 355.826C78.979 355.648 77.2657 357.041 77.0872 358.969C76.9087 360.897 78.3008 362.611 80.2282 362.789Z" fill="#E8CEBF" fill-opacity="0.5"/>
<path d="M99.9311 266.343C101.859 266.522 103.572 265.129 103.75 263.201C103.929 261.273 102.537 259.559 100.609 259.38C98.6818 259.202 96.9685 260.594 96.7901 262.522C96.6116 264.451 98.0037 266.129 99.9311 266.343Z" fill="#E8CEBF" fill-opacity="0.5"/>
<path d="M97.1829 304.693C99.1103 304.872 100.824 303.479 101.002 301.551C101.181 299.623 99.7885 297.909 97.861 297.73C95.9336 297.552 94.2203 298.944 94.0418 300.872C93.8276 302.801 95.2554 304.515 97.1829 304.693Z" fill="#E8CEBF" fill-opacity="0.5"/>
<path d="M161.931 279.234C163.859 279.412 165.572 278.02 165.751 276.091C165.929 274.163 164.537 272.449 162.61 272.271C160.682 272.092 158.969 273.485 158.79 275.413C158.576 277.377 160.004 279.055 161.931 279.234Z" fill="#E8CEBF" fill-opacity="0.5"/>
<path d="M62.4526 318.976C64.3801 319.155 66.0934 317.762 66.2719 315.834C66.4503 313.906 65.0583 312.192 63.1308 312.013C61.2033 311.835 59.49 313.227 59.3115 315.156C59.1331 317.084 60.5251 318.762 62.4526 318.976Z" fill="#E8CEBF" fill-opacity="0.5"/>
<path d="M116.529 368.895C118.456 369.074 120.17 367.681 120.348 365.753C120.527 363.825 119.134 362.111 117.207 361.932C115.28 361.754 113.566 363.147 113.388 365.075C113.174 367.003 114.601 368.717 116.529 368.895Z" fill="#E8CEBF" fill-opacity="0.5"/>
<path d="M150.438 353.684C152.365 353.863 154.079 352.47 154.257 350.542C154.436 348.614 153.044 346.9 151.116 346.721C149.189 346.543 147.475 347.935 147.297 349.863C147.118 351.792 148.511 353.506 150.438 353.684Z" fill="#E8CEBF" fill-opacity="0.5"/>
<path d="M142.228 273.877C144.156 274.056 145.869 272.663 146.048 270.735C146.226 268.807 144.834 267.093 142.907 266.914C140.979 266.736 139.266 268.129 139.087 270.057C138.909 271.985 140.301 273.663 142.228 273.877Z" fill="#E8CEBF" fill-opacity="0.5"/>
<path d="M-1.51085 323.404C2.80811 323.832 6.66305 320.654 7.05568 316.334C7.48401 312.013 4.30725 308.157 -0.0117102 307.764C-4.33067 307.336 -8.18561 310.513 -8.57824 314.834C-9.00657 319.155 -5.82981 322.975 -1.51085 323.404Z" fill="#E8CEBF" fill-opacity="0.5"/>
<path d="M59.4899 341.293C63.8088 341.722 67.6638 338.544 68.0564 334.223C68.4847 329.903 65.308 326.046 60.989 325.654C56.6701 325.225 52.8151 328.403 52.4225 332.724C51.9942 337.044 55.1709 340.865 59.4899 341.293Z" fill="#E8CEBF" fill-opacity="0.5"/>
<path d="M15.051 337.937C17.9422 338.223 20.4765 336.08 20.762 333.224C21.0476 330.331 18.9059 327.796 16.0504 327.51C13.1592 327.225 10.625 329.367 10.3394 332.224C10.0538 335.116 12.1598 337.651 15.051 337.937Z" fill="#E8CEBF" fill-opacity="0.5"/>
<path d="M39.2871 277.02C42.1783 277.305 44.7126 275.163 44.9981 272.306C45.2837 269.414 43.142 266.879 40.2865 266.593C37.3953 266.308 34.861 268.45 34.5755 271.307C34.2899 274.163 36.3959 276.734 39.2871 277.02Z" fill="#E8CEBF" fill-opacity="0.5"/>
<path d="M34.3257 310.799C37.2169 311.085 39.7511 308.942 40.0367 306.086C40.3222 303.193 38.1806 300.658 35.3251 300.373C32.4339 300.087 29.8996 302.229 29.6141 305.086C29.3285 307.943 31.4344 310.514 34.3257 310.799Z" fill="#E8CEBF" fill-opacity="0.5"/>
<path d="M-2.83157 286.161C0.0596304 286.447 2.5939 284.304 2.87945 281.448C3.165 278.555 1.02337 276.02 -1.83214 275.734C-4.68765 275.449 -7.25762 277.591 -7.54317 280.448C-7.82872 283.34 -5.72278 285.911 -2.83157 286.161Z" fill="#E8CEBF" fill-opacity="0.5"/>
<path d="M16.8713 318.798C18.7988 318.976 20.5121 317.584 20.6906 315.655C20.869 313.727 19.477 312.013 17.5495 311.835C15.622 311.656 13.9087 313.049 13.7302 314.977C13.5518 316.905 14.9438 318.619 16.8713 318.798Z" fill="#E8CEBF" fill-opacity="0.5"/>
<path d="M15.7649 358.183C17.6923 358.362 19.4056 356.969 19.5841 355.041C19.7626 353.113 18.3705 351.399 16.443 351.22C14.5156 351.042 12.8023 352.434 12.6238 354.362C12.4453 356.326 13.8374 358.005 15.7649 358.183Z" fill="#E8CEBF" fill-opacity="0.5"/>
<path d="M47.4253 357.683C49.3528 357.862 51.0661 356.469 51.2445 354.541C51.423 352.613 50.0309 350.899 48.1035 350.72C46.176 350.542 44.4627 351.934 44.2842 353.863C44.0701 355.791 45.4978 357.505 47.4253 357.683Z" fill="#E8CEBF" fill-opacity="0.5"/>
<path d="M33.1835 350.185C37.5024 350.613 41.3574 347.435 41.75 343.115C42.1783 338.794 39.0016 334.938 34.6826 334.545C30.3637 334.116 26.5087 337.294 26.1161 341.615C25.6878 345.935 28.8645 349.792 33.1835 350.185Z" fill="#E8CEBF" fill-opacity="0.5"/>
<path d="M-1.04691 354.612C1.8443 354.898 4.37857 352.756 4.66412 349.899C4.94967 347.007 2.80804 344.471 -0.0474758 344.186C-2.93868 343.9 -5.47295 346.043 -5.7585 348.899C-6.04405 351.792 -3.93811 354.362 -1.04691 354.612Z" fill="#E8CEBF" fill-opacity="0.5"/>
<path d="M15.1582 373.93C18.0494 374.216 20.5836 372.073 20.8692 369.217C21.1547 366.325 19.0131 363.789 16.1576 363.504C13.2664 363.218 10.7321 365.36 10.4466 368.217C10.161 371.109 12.267 373.68 15.1582 373.93Z" fill="#E8CEBF" fill-opacity="0.5"/>
<path d="M12.4812 272.699C15.3724 272.985 17.9066 270.842 18.1922 267.986C18.4777 265.093 16.3361 262.558 13.4806 262.273C10.5894 261.987 8.05513 264.129 7.76958 266.986C7.48403 269.878 9.58996 272.413 12.4812 272.699Z" fill="#E8CEBF" fill-opacity="0.5"/>
<path d="M8.62619 303.943C11.5174 304.229 14.0517 302.087 14.3372 299.23C14.6228 296.338 12.4811 293.802 9.62562 293.517C6.73441 293.231 4.20015 295.373 3.9146 298.23C3.62905 301.122 5.73498 303.693 8.62619 303.943Z" fill="#E8CEBF" fill-opacity="0.5"/>
<path d="M32.5766 329.046C35.4678 329.331 38.0021 327.189 38.2877 324.332C38.5732 321.44 36.4316 318.905 33.5761 318.619C30.6849 318.334 28.1506 320.476 27.865 323.333C27.5795 326.225 29.6854 328.796 32.5766 329.046Z" fill="#E8CEBF" fill-opacity="0.5"/>
<path d="M0.773422 335.473C2.70089 335.652 4.41421 334.259 4.59267 332.331C4.77114 330.403 3.37908 328.689 1.45161 328.51C-0.475862 328.332 -2.18917 329.724 -2.36764 331.652C-2.5818 333.581 -1.15405 335.295 0.773422 335.473Z" fill="#E8CEBF" fill-opacity="0.5"/>
<path d="M61.1675 305.443C63.0949 305.622 64.8082 304.229 64.9867 302.301C65.1652 300.373 63.7731 298.659 61.8457 298.48C59.9182 298.301 58.2049 299.694 58.0264 301.622C57.8122 303.551 59.24 305.264 61.1675 305.443Z" fill="#E8CEBF" fill-opacity="0.5"/>
<path d="M48.8532 314.798C50.7807 314.977 52.494 313.584 52.6725 311.656C52.851 309.728 51.4589 308.014 49.5314 307.835C47.604 307.657 45.8907 309.049 45.7122 310.978C45.5337 312.906 46.9258 314.62 48.8532 314.798Z" fill="#E8CEBF" fill-opacity="0.5"/>
<path d="M44.7483 293.338C46.6757 293.517 48.389 292.124 48.5675 290.196C48.746 288.268 47.3539 286.554 45.4264 286.375C43.499 286.197 41.7857 287.589 41.6072 289.517C41.4287 291.446 42.8208 293.16 44.7483 293.338Z" fill="#E8CEBF" fill-opacity="0.5"/>
<path d="M-0.654169 383C1.2733 383.179 2.98661 381.786 3.16508 379.858C3.34355 377.929 1.95149 376.216 0.0240169 376.037C-1.90345 375.858 -3.61676 377.251 -3.79523 379.179C-3.9737 381.107 -2.54595 382.786 -0.654169 383Z" fill="#E8CEBF" fill-opacity="0.5"/>
<path d="M33.2905 367.753C35.218 367.931 36.9313 366.539 37.1097 364.611C37.2882 362.682 35.8962 360.968 33.9687 360.79C32.0412 360.611 30.3279 362.004 30.1494 363.932C29.971 365.896 31.363 367.574 33.2905 367.753Z" fill="#E8CEBF" fill-opacity="0.5"/>
<path d="M25.081 287.946C27.0085 288.125 28.7218 286.732 28.9003 284.804C29.0788 282.876 27.6867 281.162 25.7592 280.983C23.8318 280.805 22.1184 282.197 21.94 284.126C21.7258 286.054 23.1536 287.768 25.081 287.946Z" fill="#E8CEBF" fill-opacity="0.5"/>
<path d="M34.3615 215.674C38.6804 216.103 42.5354 212.925 42.928 208.604C43.3563 204.283 40.1796 200.427 35.8606 200.034C31.5416 199.606 27.6867 202.784 27.2941 207.104C26.8657 211.425 30.0425 215.281 34.3615 215.674Z" fill="#E8CEBF" fill-opacity="0.5"/>
<path d="M153.651 239.277C157.969 239.705 161.824 236.527 162.217 232.207C162.645 227.886 159.469 224.03 155.15 223.637C150.831 223.208 146.976 226.386 146.583 230.707C146.155 235.028 149.332 238.884 153.651 239.277Z" fill="#E8CEBF" fill-opacity="0.5"/>
<path d="M-4.75895 265.201C-1.86774 265.486 0.666528 263.344 0.952079 260.487C1.23763 257.595 -0.904003 255.06 -3.75951 254.774C-6.65072 254.488 -9.18499 256.631 -9.47054 259.487C-9.75609 262.38 -7.61446 264.915 -4.75895 265.201Z" fill="#E8CEBF" fill-opacity="0.5"/>
<path d="M61.4531 235.028C64.3443 235.313 66.8786 233.171 67.1641 230.314C67.4497 227.422 65.308 224.887 62.4525 224.601C59.5613 224.315 57.0271 226.458 56.7415 229.314C56.4559 232.207 58.5619 234.778 61.4531 235.028Z" fill="#E8CEBF" fill-opacity="0.5"/>
<path d="M14.1587 151.4C17.0499 151.686 19.5841 149.544 19.8697 146.687C20.1552 143.795 18.0136 141.259 15.1581 140.974C12.2669 140.688 9.73262 142.83 9.44707 145.687C9.16152 148.579 11.2675 151.15 14.1587 151.4Z" fill="#E8CEBF" fill-opacity="0.5"/>
<path d="M28.686 155.721C31.5772 156.007 34.1115 153.864 34.397 151.008C34.6826 148.115 32.5409 145.58 29.6854 145.294C26.7942 145.009 24.26 147.151 23.9744 150.008C23.6889 152.864 25.7948 155.435 28.686 155.721Z" fill="#E8CEBF" fill-opacity="0.5"/>
<path d="M52.9223 128.833C55.8136 129.119 58.3478 126.976 58.6334 124.12C58.9189 121.227 56.7773 118.692 53.9218 118.406C51.0306 118.121 48.4963 120.263 48.2107 123.12C47.9252 125.977 50.0311 128.547 52.9223 128.833Z" fill="#E8CEBF" fill-opacity="0.5"/>
<path d="M145.334 113.086C148.225 113.372 150.759 111.229 151.045 108.373C151.33 105.516 149.189 102.945 146.333 102.659C143.442 102.374 140.908 104.516 140.622 107.373C140.337 110.265 142.443 112.8 145.334 113.086Z" fill="#E8CEBF" fill-opacity="0.5"/>
<path d="M9.19723 185.18C12.0884 185.465 14.6227 183.323 14.9083 180.466C15.1938 177.574 13.0522 175.039 10.1967 174.753C7.30546 174.467 4.77119 176.61 4.48564 179.467C4.20009 182.359 6.30603 184.894 9.19723 185.18Z" fill="#E8CEBF" fill-opacity="0.5"/>
<path d="M182.527 192.214C184.454 192.393 186.168 191 186.346 189.072C186.525 187.144 185.132 185.43 183.205 185.251C181.278 185.073 179.564 186.465 179.386 188.393C179.207 190.322 180.599 192 182.527 192.214Z" fill="#E8CEBF" fill-opacity="0.5"/>
<path d="M50.6736 221.173C52.601 221.352 54.3143 219.959 54.4928 218.031C54.6713 216.103 53.2792 214.389 51.3517 214.21C49.4243 214.032 47.711 215.424 47.5325 217.352C47.354 219.281 48.7461 220.994 50.6736 221.173Z" fill="#E8CEBF" fill-opacity="0.5"/>
<path d="M190.058 302.158C191.986 302.336 193.699 300.944 193.877 299.016C194.056 297.087 192.664 295.373 190.736 295.195C188.809 295.016 187.096 296.409 186.917 298.337C186.739 300.265 188.166 301.979 190.058 302.158Z" fill="#E8CEBF" fill-opacity="0.5"/>
<path d="M116.672 245.776C118.599 245.954 120.312 244.562 120.491 242.633C120.669 240.705 119.277 238.991 117.35 238.813C115.422 238.634 113.709 240.027 113.531 241.955C113.352 243.883 114.744 245.561 116.672 245.776Z" fill="#E8CEBF" fill-opacity="0.5"/>
<path d="M174.674 226.279C176.602 226.458 178.315 225.065 178.493 223.137C178.672 221.209 177.28 219.495 175.352 219.316C173.425 219.138 171.711 220.53 171.533 222.458C171.355 224.387 172.747 226.101 174.674 226.279Z" fill="#E8CEBF" fill-opacity="0.5"/>
<path d="M38.6804 231.35C40.6079 231.528 42.3212 230.136 42.4996 228.207C42.6781 226.279 41.286 224.565 39.3586 224.387C37.4311 224.208 35.7178 225.601 35.5393 227.529C35.3609 229.457 36.7529 231.135 38.6804 231.35Z" fill="#E8CEBF" fill-opacity="0.5"/>
<path d="M48.9602 263.13C50.8877 263.308 52.601 261.915 52.7794 259.987C52.9579 258.059 51.5658 256.345 49.6384 256.167C47.7109 255.988 45.9976 257.381 45.8191 259.309C45.6406 261.237 47.0327 262.951 48.9602 263.13Z" fill="#E8CEBF" fill-opacity="0.5"/>
<path d="M63.5947 277.234C65.5222 277.413 67.2355 276.02 67.414 274.092C67.5924 272.164 66.2004 270.45 64.2729 270.271C62.3454 270.092 60.6321 271.485 60.4537 273.413C60.2395 275.342 61.6672 277.055 63.5947 277.234Z" fill="#E8CEBF" fill-opacity="0.5"/>
<path d="M22.2969 232.1C24.2243 232.278 25.9376 230.886 26.1161 228.957C26.2946 227.029 24.9025 225.315 22.975 225.137C21.0476 224.958 19.3343 226.351 19.1558 228.279C18.9416 230.207 20.3694 231.921 22.2969 232.1Z" fill="#E8CEBF" fill-opacity="0.5"/>
<path d="M65.7364 253.31C67.6639 253.488 69.3772 252.096 69.5557 250.168C69.7342 248.239 68.3421 246.525 66.4146 246.347C64.4872 246.168 62.7739 247.561 62.5954 249.489C62.4169 251.417 63.8447 253.131 65.7364 253.31Z" fill="#E8CEBF" fill-opacity="0.5"/>
<path d="M8.05506 224.601C12.374 225.029 16.229 221.851 16.6216 217.531C17.0499 213.21 13.8732 209.354 9.55421 208.961C5.23525 208.533 1.38031 211.711 0.987675 216.031C0.559348 220.352 3.7361 224.172 8.05506 224.601Z" fill="#E8CEBF" fill-opacity="0.5"/>
<path d="M27.08 257.381C31.3989 257.809 35.2539 254.631 35.6465 250.31C36.0748 245.99 32.8981 242.133 28.5791 241.741C24.2601 241.312 20.4052 244.49 20.0126 248.811C19.5843 253.131 22.761 256.952 27.08 257.381Z" fill="#E8CEBF" fill-opacity="0.5"/>
<path d="M48.3535 244.419C51.2447 244.704 53.779 242.562 54.0645 239.705C54.3501 236.813 52.2084 234.278 49.3529 233.992C46.4617 233.706 43.9274 235.849 43.6419 238.705C43.3563 241.562 45.4623 244.133 48.3535 244.419Z" fill="#E8CEBF" fill-opacity="0.5"/>
<path d="M7.44821 203.462C10.3394 203.748 12.8737 201.605 13.1592 198.749C13.4448 195.856 11.3032 193.321 8.44764 193.035C5.55644 192.75 3.02217 194.892 2.73662 197.749C2.45107 200.641 4.557 203.176 7.44821 203.462Z" fill="#E8CEBF" fill-opacity="0.5"/>
<path d="M206.299 318.976C209.19 319.262 211.725 317.119 212.01 314.263C212.296 311.371 210.154 308.835 207.298 308.55C204.407 308.264 201.873 310.406 201.587 313.263C201.302 316.12 203.408 318.691 206.299 318.976Z" fill="#E8CEBF" fill-opacity="0.5"/>
<path d="M46.5332 195.928C48.4607 196.106 50.174 194.714 50.3524 192.785C50.5309 190.857 49.1388 189.143 47.2114 188.965C45.2839 188.786 43.5706 190.179 43.3921 192.107C43.2136 194.035 44.6057 195.749 46.5332 195.928Z" fill="#E8CEBF" fill-opacity="0.5"/>
<path d="M36.039 179.824C37.9665 180.002 39.6798 178.61 39.8583 176.681C40.0368 174.753 38.6447 173.039 36.7172 172.861C34.7898 172.682 33.0765 174.075 32.898 176.003C32.6838 177.931 34.1116 179.645 36.039 179.824Z" fill="#E8CEBF" fill-opacity="0.5"/>
<path d="M23.7246 189.215C25.6521 189.393 27.3654 188.001 27.5438 186.072C27.7223 184.144 26.3302 182.43 24.4028 182.252C22.4753 182.073 20.762 183.466 20.5835 185.394C20.4051 187.322 21.7971 189.036 23.7246 189.215Z" fill="#E8CEBF" fill-opacity="0.5"/>
<path d="M165.179 198.57C167.107 198.749 168.82 197.356 168.999 195.428C169.177 193.5 167.785 191.786 165.858 191.607C163.93 191.429 162.217 192.821 162.038 194.749C161.824 196.678 163.252 198.356 165.179 198.57Z" fill="#E8CEBF" fill-opacity="0.5"/>
<path d="M77.4797 239.67C79.4072 239.848 81.1205 238.456 81.299 236.527C81.4774 234.599 80.0854 232.885 78.1579 232.707C76.2304 232.528 74.5171 233.921 74.3387 235.849C74.1245 237.813 75.5522 239.491 77.4797 239.67Z" fill="#E8CEBF" fill-opacity="0.5"/>
<path d="M19.6198 167.719C21.5473 167.897 23.2606 166.505 23.4391 164.576C23.6176 162.648 22.2255 160.934 20.298 160.756C18.3706 160.577 16.6573 161.97 16.4788 163.898C16.3003 165.862 17.6924 167.54 19.6198 167.719Z" fill="#E8CEBF" fill-opacity="0.5"/>
<path d="M46.5332 163.791C48.4607 163.969 50.174 162.577 50.3524 160.649C50.5309 158.72 49.1388 157.006 47.2114 156.828C45.2839 156.649 43.5706 158.042 43.3921 159.97C43.2136 161.898 44.6057 163.612 46.5332 163.791Z" fill="#E8CEBF" fill-opacity="0.5"/>
<path d="M127.344 114.3C129.272 114.479 130.985 113.086 131.163 111.158C131.342 109.23 129.95 107.516 128.022 107.337C126.095 107.159 124.382 108.551 124.203 110.479C124.025 112.408 125.452 114.122 127.344 114.3Z" fill="#E8CEBF" fill-opacity="0.5"/>
<path d="M135.661 124.477C137.588 124.655 139.302 123.263 139.48 121.335C139.658 119.406 138.266 117.692 136.339 117.514C134.411 117.335 132.698 118.728 132.52 120.656C132.341 122.584 133.769 124.263 135.661 124.477Z" fill="#E8CEBF" fill-opacity="0.5"/>
<path d="M8.16209 242.169C10.0896 242.348 11.8029 240.955 11.9813 239.027C12.1598 237.099 10.7677 235.385 8.84027 235.206C6.9128 235.028 5.19949 236.42 5.02102 238.348C4.84255 240.277 6.23462 241.991 8.16209 242.169Z" fill="#E8CEBF" fill-opacity="0.5"/>
<path d="M-0.0473788 162.363C1.88009 162.541 3.5934 161.149 3.77187 159.22C3.95034 157.292 2.55828 155.578 0.630807 155.4C-1.29666 155.221 -3.00997 156.614 -3.18844 158.542C-3.4026 160.47 -1.97485 162.184 -0.0473788 162.363Z" fill="#E8CEBF" fill-opacity="0.5"/>
<path d="M35.3251 133.511C37.2526 133.689 38.9659 132.297 39.1443 130.369C39.3228 128.44 37.9307 126.726 36.0033 126.548C34.0758 126.369 32.3625 127.762 32.184 129.69C32.0056 131.618 33.4333 133.332 35.3251 133.511Z" fill="#E8CEBF" fill-opacity="0.5"/>
<path d="M105.856 170.897C105.856 175.253 109.39 178.752 113.709 178.752C118.064 178.752 121.562 175.217 121.562 170.897C121.562 166.576 118.028 163.041 113.709 163.041C109.39 163.041 105.856 166.54 105.856 170.897Z" fill="#E8CEBF" fill-opacity="0.5"/>
<path d="M93.863 233.349C93.863 237.706 97.3967 241.205 101.716 241.205C106.07 241.205 109.568 237.67 109.568 233.349C109.568 228.993 106.035 225.494 101.716 225.494C97.361 225.494 93.863 229.029 93.863 233.349Z" fill="#E8CEBF" fill-opacity="0.5"/>
<path d="M121.597 141.188C121.597 145.544 125.131 149.044 129.45 149.044C133.804 149.044 137.302 145.509 137.302 141.188C137.302 136.867 133.769 133.332 129.45 133.332C125.131 133.297 121.597 136.832 121.597 141.188Z" fill="#E8CEBF" fill-opacity="0.5"/>
<path d="M92.9707 188.786C92.9707 191.679 95.3265 194.035 98.2177 194.035C101.109 194.035 103.465 191.679 103.465 188.786C103.465 185.894 101.109 183.537 98.2177 183.537C95.3265 183.537 92.9707 185.894 92.9707 188.786Z" fill="#E8CEBF" fill-opacity="0.5"/>
<path d="M155.899 207.14C155.899 210.032 158.255 212.389 161.146 212.389C164.037 212.389 166.393 210.032 166.393 207.14C166.393 204.248 164.037 201.891 161.146 201.891C158.255 201.891 155.899 204.248 155.899 207.14Z" fill="#E8CEBF" fill-opacity="0.5"/>
<path d="M121.812 205.39C121.812 208.283 124.167 210.639 127.059 210.639C129.95 210.639 132.306 208.283 132.306 205.39C132.306 202.498 129.95 200.141 127.059 200.141C124.167 200.141 121.812 202.498 121.812 205.39Z" fill="#E8CEBF" fill-opacity="0.5"/>
<path d="M142.799 166.04C142.799 168.933 145.155 171.289 148.046 171.289C150.938 171.289 153.293 168.933 153.293 166.04C153.293 163.148 150.938 160.791 148.046 160.791C145.119 160.791 142.799 163.148 142.799 166.04Z" fill="#E8CEBF" fill-opacity="0.5"/>
<path d="M146.297 128.476C146.297 131.368 148.653 133.725 151.544 133.725C154.436 133.725 156.791 131.368 156.791 128.476C156.791 125.584 154.436 123.227 151.544 123.227C148.617 123.227 146.297 125.548 146.297 128.476Z" fill="#E8CEBF" fill-opacity="0.5"/>
<path d="M58.8831 166.04C58.8831 168.933 61.2389 171.289 64.1301 171.289C67.0213 171.289 69.3771 168.933 69.3771 166.04C69.3771 163.148 67.0213 160.791 64.1301 160.791C61.2389 160.791 58.8831 163.148 58.8831 166.04Z" fill="#E8CEBF" fill-opacity="0.5"/>
<path d="M64.1301 146.83C64.1301 149.722 66.4859 152.079 69.3771 152.079C72.2683 152.079 74.6241 149.722 74.6241 146.83C74.6241 143.937 72.2683 141.581 69.3771 141.581C66.4859 141.581 64.1301 143.937 64.1301 146.83Z" fill="#E8CEBF" fill-opacity="0.5"/>
<path d="M112.21 124.977C112.21 127.869 114.566 130.226 117.457 130.226C120.348 130.226 122.704 127.869 122.704 124.977C122.704 122.084 120.348 119.728 117.457 119.728C114.566 119.728 112.21 122.049 112.21 124.977Z" fill="#E8CEBF" fill-opacity="0.5"/>
<path d="M115.708 192.286C117.64 192.286 119.206 190.719 119.206 188.786C119.206 186.854 117.64 185.287 115.708 185.287C113.776 185.287 112.21 186.854 112.21 188.786C112.21 190.719 113.776 192.286 115.708 192.286Z" fill="#E8CEBF" fill-opacity="0.5"/>
<path d="M76.373 194.892C78.3049 194.892 79.871 193.326 79.871 191.393C79.871 189.46 78.3049 187.894 76.373 187.894C74.4411 187.894 72.875 189.46 72.875 191.393C72.875 193.326 74.4411 194.892 76.373 194.892Z" fill="#E8CEBF" fill-opacity="0.5"/>
<path d="M79.871 226.386C81.8029 226.386 83.369 224.82 83.369 222.887C83.369 220.954 81.8029 219.388 79.871 219.388C77.9392 219.388 76.373 220.954 76.373 222.887C76.373 224.82 77.9392 226.386 79.871 226.386Z" fill="#E8CEBF" fill-opacity="0.5"/>
<path d="M103.465 138.938C105.397 138.938 106.963 137.372 106.963 135.439C106.963 133.506 105.397 131.94 103.465 131.94C101.533 131.94 99.9668 133.506 99.9668 135.439C99.9668 137.372 101.533 138.938 103.465 138.938Z" fill="#E8CEBF" fill-opacity="0.5"/>
<path d="M76.373 159.042C76.373 160.97 77.9436 162.541 79.871 162.541C81.7985 162.541 83.369 160.97 83.369 159.042C83.369 157.114 81.7985 155.542 79.871 155.542C77.9436 155.542 76.373 157.114 76.373 159.042Z" fill="#E8CEBF" fill-opacity="0.5"/>
<path d="M87.7236 156.435C87.7236 160.791 91.2573 164.291 95.5763 164.291C99.9309 164.291 103.429 160.756 103.429 156.435C103.429 152.079 99.8952 148.579 95.5763 148.579C91.2573 148.579 87.7236 152.079 87.7236 156.435Z" fill="#E8CEBF" fill-opacity="0.5"/>
<path d="M82.4768 207.997C82.4768 212.353 86.0105 215.853 90.3295 215.853C94.6841 215.853 98.1821 212.318 98.1821 207.997C98.1821 203.641 94.6484 200.141 90.3295 200.141C86.0105 200.141 82.4768 203.676 82.4768 207.997Z" fill="#E8CEBF" fill-opacity="0.5"/>
<path d="M74.8384 174.325C74.8384 177.217 77.1942 179.574 80.0854 179.574C82.9766 179.574 85.3324 177.217 85.3324 174.325C85.3324 171.432 82.9766 169.076 80.0854 169.076C77.1942 169.076 74.8384 171.432 74.8384 174.325Z" fill="#E8CEBF" fill-opacity="0.5"/>
<path d="M57.134 192.286C57.134 195.178 59.4898 197.535 62.381 197.535C65.2722 197.535 67.628 195.178 67.628 192.286C67.628 189.393 65.2722 187.037 62.381 187.037C59.4898 187.037 57.134 189.393 57.134 192.286Z" fill="#E8CEBF" fill-opacity="0.5"/>
<path d="M157.648 180.038C157.648 182.93 160.004 185.287 162.895 185.287C165.786 185.287 168.142 182.93 168.142 180.038C168.142 177.146 165.786 174.789 162.895 174.789C160.004 174.789 157.648 177.146 157.648 180.038Z" fill="#E8CEBF" fill-opacity="0.5"/>
<path d="M126.202 179.181C126.202 182.073 128.557 184.43 131.449 184.43C134.34 184.43 136.696 182.073 136.696 179.181C136.696 176.289 134.34 173.932 131.449 173.932C128.522 173.932 126.202 176.253 126.202 179.181Z" fill="#E8CEBF" fill-opacity="0.5"/>
<path d="M123.56 159.042C123.56 161.934 125.916 164.291 128.807 164.291C131.699 164.291 134.054 161.934 134.054 159.042C134.054 156.149 131.699 153.793 128.807 153.793C125.916 153.828 123.56 156.149 123.56 159.042Z" fill="#E8CEBF" fill-opacity="0.5"/>
<path d="M78.9788 140.688C78.9788 143.58 81.3345 145.937 84.2258 145.937C87.117 145.937 89.4728 143.58 89.4728 140.688C89.4728 137.796 87.117 135.439 84.2258 135.439C81.3345 135.439 78.9788 137.796 78.9788 140.688Z" fill="#E8CEBF" fill-opacity="0.5"/>
<path d="M103.465 205.39C103.465 208.283 105.821 210.639 108.712 210.639C111.603 210.639 113.959 208.283 113.959 205.39C113.959 202.498 111.603 200.141 108.712 200.141C105.821 200.141 103.465 202.498 103.465 205.39Z" fill="#E8CEBF" fill-opacity="0.5"/>
<path d="M97.5751 177.824C99.507 177.824 101.073 176.257 101.073 174.325C101.073 172.392 99.507 170.825 97.5751 170.825C95.6433 170.825 94.0771 172.392 94.0771 174.325C94.0771 176.257 95.6433 177.824 97.5751 177.824Z" fill="#E8CEBF" fill-opacity="0.5"/>
<path d="M133.162 235.099C135.094 235.099 136.66 233.532 136.66 231.6C136.66 229.667 135.094 228.1 133.162 228.1C131.23 228.1 129.664 229.667 129.664 231.6C129.664 233.532 131.23 235.099 133.162 235.099Z" fill="#E8CEBF" fill-opacity="0.5"/>
<path d="M122.704 223.744C124.636 223.744 126.202 222.177 126.202 220.245C126.202 218.312 124.636 216.745 122.704 216.745C120.772 216.745 119.206 218.312 119.206 220.245C119.206 222.177 120.772 223.744 122.704 223.744Z" fill="#E8CEBF" fill-opacity="0.5"/>
<path d="M52.7795 144.187C54.7114 144.187 56.2775 142.621 56.2775 140.688C56.2775 138.755 54.7114 137.189 52.7795 137.189C50.8476 137.189 49.2815 138.755 49.2815 140.688C49.2815 142.621 50.8476 144.187 52.7795 144.187Z" fill="#E8CEBF" fill-opacity="0.5"/>
<path d="M147.154 151.186C147.154 153.114 148.725 154.685 150.652 154.685C152.58 154.685 154.15 153.114 154.15 151.186C154.15 149.258 152.58 147.687 150.652 147.687C148.725 147.687 147.154 149.258 147.154 151.186Z" fill="#E8CEBF" fill-opacity="0.5"/>
<path d="M112.21 155.578C114.142 155.578 115.708 154.011 115.708 152.079C115.708 150.146 114.142 148.579 112.21 148.579C110.278 148.579 108.712 150.146 108.712 152.079C108.712 154.011 110.278 155.578 112.21 155.578Z" fill="#E8CEBF" fill-opacity="0.5"/>
<path d="M143.656 217.638C145.588 217.638 147.154 216.071 147.154 214.139C147.154 212.206 145.588 210.639 143.656 210.639C141.724 210.639 140.158 212.206 140.158 214.139C140.158 216.071 141.724 217.638 143.656 217.638Z" fill="#E8CEBF" fill-opacity="0.5"/>
<path d="M91.2217 118.835C91.2217 120.763 92.7922 122.334 94.7197 122.334C96.6471 122.334 98.2177 120.763 98.2177 118.835C98.2177 116.907 96.6471 115.336 94.7197 115.336C92.7922 115.336 91.2217 116.907 91.2217 118.835Z" fill="#E8CEBF" fill-opacity="0.5"/>
<path d="M50.1738 180.931C52.1057 180.931 53.6718 179.364 53.6718 177.431C53.6718 175.499 52.1057 173.932 50.1738 173.932C48.2419 173.932 46.6758 175.499 46.6758 177.431C46.6758 179.364 48.2419 180.931 50.1738 180.931Z" fill="#E8CEBF" fill-opacity="0.5"/>
<path d="M65.0225 209.747C65.0225 211.675 66.593 213.246 68.5205 213.246C70.4479 213.246 72.0185 211.675 72.0185 209.747C72.0185 207.818 70.4479 206.247 68.5205 206.247C66.593 206.247 65.0225 207.818 65.0225 209.747Z" fill="#E8CEBF" fill-opacity="0.5"/>
<path d="M147.154 197.535C149.086 197.535 150.652 195.968 150.652 194.035C150.652 192.103 149.086 190.536 147.154 190.536C145.222 190.536 143.656 192.103 143.656 194.035C143.656 195.968 145.222 197.535 147.154 197.535Z" fill="#E8CEBF" fill-opacity="0.5"/>
<path d="M80.7634 55.5611C80.7634 59.9174 84.2971 63.4167 88.6161 63.4167C92.9707 63.4167 96.4687 59.8817 96.4687 55.5611C96.4687 51.2404 92.935 47.7054 88.6161 47.7054C84.2614 47.7054 80.7634 51.2047 80.7634 55.5611Z" fill="#E8CEBF" fill-opacity="0.5"/>
<path d="M68.7346 118.014C68.7346 122.37 72.2683 125.869 76.5873 125.869C80.9419 125.869 84.4399 122.334 84.4399 118.014C84.4399 113.657 80.9062 110.158 76.5873 110.158C72.2683 110.158 68.7346 113.657 68.7346 118.014Z" fill="#E8CEBF" fill-opacity="0.5"/>
<path d="M96.4688 25.8166C96.4688 30.1729 100.002 33.6723 104.321 33.6723C108.676 33.6723 112.174 30.1372 112.174 25.8166C112.174 21.496 108.64 17.9609 104.321 17.9609C100.002 17.9609 96.4688 21.496 96.4688 25.8166Z" fill="#E8CEBF" fill-opacity="0.5"/>
<path d="M67.8779 73.4506C67.8779 76.3429 70.2337 78.6996 73.1249 78.6996C76.0161 78.6996 78.3719 76.3429 78.3719 73.4506C78.3719 70.5583 76.0161 68.2016 73.1249 68.2016C70.198 68.2016 67.8779 70.5226 67.8779 73.4506Z" fill="#E8CEBF" fill-opacity="0.5"/>
<path d="M130.771 91.8043C130.771 94.6966 133.127 97.0533 136.018 97.0533C138.909 97.0533 141.265 94.6966 141.265 91.8043C141.265 88.912 138.909 86.5553 136.018 86.5553C133.127 86.5553 130.771 88.912 130.771 91.8043Z" fill="#E8CEBF" fill-opacity="0.5"/>
<path d="M96.6831 90.0546C96.6831 92.9469 99.0389 95.3037 101.93 95.3037C104.821 95.3037 107.177 92.9469 107.177 90.0546C107.177 87.1623 104.821 84.8056 101.93 84.8056C99.0389 84.8056 96.6831 87.1623 96.6831 90.0546Z" fill="#E8CEBF" fill-opacity="0.5"/>
<path d="M117.671 50.7048C117.671 53.5971 120.027 55.9538 122.918 55.9538C125.809 55.9538 128.165 53.5971 128.165 50.7048C128.165 47.8125 125.809 45.4558 122.918 45.4558C120.027 45.4558 117.671 47.8125 117.671 50.7048Z" fill="#E8CEBF" fill-opacity="0.5"/>
<path d="M121.169 13.1047C121.169 15.997 123.525 18.3537 126.416 18.3537C129.307 18.3537 131.663 15.997 131.663 13.1047C131.663 10.2124 129.307 7.85568 126.416 7.85568C123.525 7.85568 121.169 10.2124 121.169 13.1047Z" fill="#E8CEBF" fill-opacity="0.5"/>
<path d="M33.7903 50.7048C33.7903 53.5971 36.1461 55.9538 39.0373 55.9538C41.9285 55.9538 44.2843 53.5971 44.2843 50.7048C44.2843 47.8125 41.9285 45.4558 39.0373 45.4558C36.1104 45.4558 33.7903 47.8125 33.7903 50.7048Z" fill="#E8CEBF" fill-opacity="0.5"/>
<path d="M39.0374 31.4584C39.0374 34.3507 41.3932 36.7074 44.2844 36.7074C47.1756 36.7074 49.5314 34.3507 49.5314 31.4584C49.5314 28.5661 47.1756 26.2094 44.2844 26.2094C41.3575 26.2094 39.0374 28.5661 39.0374 31.4584Z" fill="#E8CEBF" fill-opacity="0.5"/>
<path d="M87.0813 9.60535C87.0813 12.4977 89.4371 14.8544 92.3283 14.8544C95.2195 14.8544 97.5753 12.4977 97.5753 9.60535C97.5753 6.71303 95.2195 4.35633 92.3283 4.35633C89.4371 4.35633 87.0813 6.71303 87.0813 9.60535Z" fill="#E8CEBF" fill-opacity="0.5"/>
<path d="M90.5793 76.9499C92.5112 76.9499 94.0773 75.3832 94.0773 73.4506C94.0773 71.518 92.5112 69.9512 90.5793 69.9512C88.6474 69.9512 87.0813 71.518 87.0813 73.4506C87.0813 75.3832 88.6474 76.9499 90.5793 76.9499Z" fill="#E8CEBF" fill-opacity="0.5"/>
<path d="M51.2446 79.5566C53.1765 79.5566 54.7426 77.9899 54.7426 76.0572C54.7426 74.1246 53.1765 72.5579 51.2446 72.5579C49.3127 72.5579 47.7466 74.1246 47.7466 76.0572C47.7466 77.9899 49.3127 79.5566 51.2446 79.5566Z" fill="#E8CEBF" fill-opacity="0.5"/>
<path d="M54.7426 111.015C56.6745 111.015 58.2406 109.448 58.2406 107.516C58.2406 105.583 56.6745 104.016 54.7426 104.016C52.8107 104.016 51.2446 105.583 51.2446 107.516C51.2446 109.448 52.8107 111.015 54.7426 111.015Z" fill="#E8CEBF" fill-opacity="0.5"/>
<path d="M78.3364 23.6027C80.2683 23.6027 81.8344 22.036 81.8344 20.1034C81.8344 18.1708 80.2683 16.604 78.3364 16.604C76.4045 16.604 74.8384 18.1708 74.8384 20.1034C74.8384 22.036 76.4045 23.6027 78.3364 23.6027Z" fill="#E8CEBF" fill-opacity="0.5"/>
<path d="M54.7426 47.2055C56.6745 47.2055 58.2406 45.6388 58.2406 43.7061C58.2406 41.7735 56.6745 40.2068 54.7426 40.2068C52.8107 40.2068 51.2446 41.7735 51.2446 43.7061C51.2446 45.6388 52.8107 47.2055 54.7426 47.2055Z" fill="#E8CEBF" fill-opacity="0.5"/>
<path d="M62.6311 41.0995C62.6311 45.4558 66.1648 48.9552 70.4838 48.9552C74.8384 48.9552 78.3364 45.4201 78.3364 41.0995C78.3364 36.7431 74.8027 33.2438 70.4838 33.2438C66.1291 33.2081 62.6311 36.7431 62.6311 41.0995Z" fill="#E8CEBF" fill-opacity="0.5"/>
<path d="M57.384 92.6613C57.384 97.0176 60.9177 100.517 65.2367 100.517C69.5556 100.517 73.0893 96.9819 73.0893 92.6613C73.0893 88.305 69.5556 84.8056 65.2367 84.8056C60.9177 84.8056 57.384 88.305 57.384 92.6613Z" fill="#E8CEBF" fill-opacity="0.5"/>
<path d="M49.71 58.9533C49.71 61.8456 52.0658 64.2023 54.957 64.2023C57.8482 64.2023 60.204 61.8456 60.204 58.9533C60.204 56.061 57.8482 53.7043 54.957 53.7043C52.0658 53.7043 49.71 56.061 49.71 58.9533Z" fill="#E8CEBF" fill-opacity="0.5"/>
<path d="M32.0413 76.9142C32.0413 79.8066 34.3971 82.1633 37.2883 82.1633C40.1795 82.1633 42.5353 79.8066 42.5353 76.9142C42.5353 74.0219 40.1795 71.6652 37.2883 71.6652C34.3971 71.7009 32.0413 74.0219 32.0413 76.9142Z" fill="#E8CEBF" fill-opacity="0.5"/>
<path d="M132.52 64.7022C132.52 67.5945 134.876 69.9512 137.767 69.9512C140.658 69.9512 143.014 67.5945 143.014 64.7022C143.014 61.8099 140.658 59.4532 137.767 59.4532C134.876 59.4532 132.52 61.8099 132.52 64.7022Z" fill="#E8CEBF" fill-opacity="0.5"/>
<path d="M101.073 63.8095C101.073 66.7018 103.429 69.0585 106.32 69.0585C109.211 69.0585 111.567 66.7018 111.567 63.8095C111.567 60.9172 109.211 58.5605 106.32 58.5605C103.429 58.5605 101.073 60.9172 101.073 63.8095Z" fill="#E8CEBF" fill-opacity="0.5"/>
<path d="M98.4321 43.7061C98.4321 46.5985 100.788 48.9552 103.679 48.9552C106.57 48.9552 108.926 46.5985 108.926 43.7061C108.926 40.8138 106.57 38.4571 103.679 38.4571C100.788 38.4571 98.4321 40.8138 98.4321 43.7061Z" fill="#E8CEBF" fill-opacity="0.5"/>
<path d="M53.886 25.3524C53.886 28.2447 56.2418 30.6014 59.133 30.6014C62.0242 30.6014 64.38 28.2447 64.38 25.3524C64.38 22.4601 62.0242 20.1034 59.133 20.1034C56.2418 20.1034 53.886 22.4601 53.886 25.3524Z" fill="#E8CEBF" fill-opacity="0.5"/>
<path d="M78.3364 90.0546C78.3364 92.9469 80.6922 95.3037 83.5834 95.3037C86.4746 95.3037 88.8304 92.9469 88.8304 90.0546C88.8304 87.1623 86.4746 84.8056 83.5834 84.8056C80.6922 84.8056 78.3364 87.1623 78.3364 90.0546Z" fill="#E8CEBF" fill-opacity="0.5"/>
<path d="M72.4467 62.4526C74.3786 62.4526 75.9447 60.8859 75.9447 58.9533C75.9447 57.0207 74.3786 55.4539 72.4467 55.4539C70.5148 55.4539 68.9487 57.0207 68.9487 58.9533C68.9487 60.8859 70.5148 62.4526 72.4467 62.4526Z" fill="#E8CEBF" fill-opacity="0.5"/>
<path d="M108.069 119.763C110.001 119.763 111.567 118.197 111.567 116.264C111.567 114.331 110.001 112.765 108.069 112.765C106.137 112.765 104.571 114.331 104.571 116.264C104.571 118.197 106.137 119.763 108.069 119.763Z" fill="#E8CEBF" fill-opacity="0.5"/>
<path d="M97.5754 108.408C99.5073 108.408 101.073 106.842 101.073 104.909C101.073 102.976 99.5073 101.41 97.5754 101.41C95.6435 101.41 94.0774 102.976 94.0774 104.909C94.0774 106.842 95.6435 108.408 97.5754 108.408Z" fill="#E8CEBF" fill-opacity="0.5"/>
<path d="M27.6511 28.8518C29.583 28.8518 31.1491 27.285 31.1491 25.3524C31.1491 23.4198 29.583 21.8531 27.6511 21.8531C25.7192 21.8531 24.1531 23.4198 24.1531 25.3524C24.1531 27.285 25.7192 28.8518 27.6511 28.8518Z" fill="#E8CEBF" fill-opacity="0.5"/>
<path d="M125.524 39.3498C127.456 39.3498 129.022 37.7831 129.022 35.8505C129.022 33.9178 127.456 32.3511 125.524 32.3511C123.592 32.3511 122.026 33.9178 122.026 35.8505C122.026 37.7831 123.592 39.3498 125.524 39.3498Z" fill="#E8CEBF" fill-opacity="0.5"/>
<path d="M83.5833 36.7074C83.5833 38.6357 85.1538 40.2068 87.0813 40.2068C89.0087 40.2068 90.5793 38.6357 90.5793 36.7074C90.5793 34.7792 89.0087 33.2081 87.0813 33.2081C85.1538 33.2081 83.5833 34.7792 83.5833 36.7074Z" fill="#E8CEBF" fill-opacity="0.5"/>
<path d="M118.563 102.302C120.495 102.302 122.061 100.736 122.061 98.803C122.061 96.8704 120.495 95.3037 118.563 95.3037C116.632 95.3037 115.065 96.8704 115.065 98.803C115.065 100.736 116.632 102.302 118.563 102.302Z" fill="#E8CEBF" fill-opacity="0.5"/>
<path d="M69.5913 6.99869C71.5232 6.99869 73.0893 5.43198 73.0893 3.49935C73.0893 1.56671 71.5232 0 69.5913 0C67.6594 0 66.0933 1.56671 66.0933 3.49935C66.0933 5.43198 67.6594 6.99869 69.5913 6.99869Z" fill="#E8CEBF" fill-opacity="0.5"/>
<path d="M25.0454 65.5592C26.9773 65.5592 28.5434 63.9925 28.5434 62.0599C28.5434 60.1272 26.9773 58.5605 25.0454 58.5605C23.1135 58.5605 21.5474 60.1272 21.5474 62.0599C21.5474 63.9925 23.1135 65.5592 25.0454 65.5592Z" fill="#E8CEBF" fill-opacity="0.5"/>
<path d="M43.392 97.9103C45.3239 97.9103 46.89 96.3436 46.89 94.411C46.89 92.4783 45.3239 90.9116 43.392 90.9116C41.4601 90.9116 39.894 92.4783 39.894 94.411C39.894 96.3436 41.4601 97.9103 43.392 97.9103Z" fill="#E8CEBF" fill-opacity="0.5"/>
<path d="M118.563 78.6639C118.563 80.5921 120.134 82.1632 122.061 82.1632C123.989 82.1632 125.559 80.5921 125.559 78.6639C125.559 76.7357 123.989 75.1646 122.061 75.1646C120.098 75.2003 118.563 76.7357 118.563 78.6639Z" fill="#E8CEBF" fill-opacity="0.5"/>
</g>
<defs>
<clipPath id="clip0_325_6919">
<rect width="375" height="383" fill="white" transform="translate(-83)"/>
</clipPath>
</defs>
</svg>
