<svg width="288" height="320" viewBox="0 0 288 320" fill="none" xmlns="http://www.w3.org/2000/svg">
<path d="M148.33 266.14C148.31 266.14 148.29 266.13 148.27 266.11L127.09 242.87C127.06 242.83 127.05 242.77 127.06 242.72C127.07 242.67 127.11 242.63 127.15 242.63H149.65C149.68 242.63 149.7 242.65 149.72 242.67C149.74 242.7 149.75 242.73 149.75 242.77L148.43 266.01C148.43 266.06 148.4 266.1 148.37 266.12C148.36 266.14 148.35 266.14 148.33 266.14ZM127.43 242.89L148.25 265.74L149.55 242.89H127.43Z" fill="#DDAF94"/>
<path d="M127.16 242.89C127.14 242.89 127.12 242.88 127.11 242.87L81.8701 184.2C81.8401 184.17 81.8201 184.12 81.8301 184.07C81.8301 184.02 81.8601 183.98 81.9001 183.96L145.67 176.48C145.71 176.46 145.75 176.48 145.77 176.52C145.8 176.56 145.81 176.61 145.79 176.66L127.26 242.81C127.25 242.85 127.23 242.88 127.2 242.89C127.18 242.89 127.17 242.89 127.16 242.89ZM82.1401 184.13L127.11 242.56L145.53 176.82L82.1401 184.13Z" fill="#DDAF94"/>
<path d="M145.69 176.74C145.66 176.74 145.62 176.71 145.6 176.67C145.58 176.61 145.59 176.54 145.63 176.5L162.44 98.23C162.47 98.2 162.51 98.2 162.54 98.22C162.57 98.24 162.59 98.29 162.59 98.34L186.81 156.95C186.81 157.01 186.78 157.06 186.75 157.07L145.72 176.74C145.71 176.74 145.7 176.74 145.69 176.74ZM162.4 98.6L146.27 176.19L186.62 156.85L162.4 98.6Z" fill="#DDAF94"/>
<path d="M262.16 307.26C262.11 307.26 262.07 307.21 262.06 307.14L254.12 201.65C254.12 201.6 254.13 201.55 254.17 201.52C254.2 201.49 254.25 201.5 254.28 201.53L276.78 224.77C276.81 224.8 276.82 224.86 276.82 224.91L262.26 307.16C262.25 307.22 262.21 307.26 262.16 307.26ZM254.34 201.93L262.2 306.34L276.61 224.94L254.34 201.93Z" fill="#DDAF94"/>
<path d="M186.72 157.07C186.69 157.07 186.67 157.06 186.65 157.03C186.63 157.01 186.62 156.97 186.62 156.94L162.4 98.33C162.4 98.29 162.41 98.25 162.44 98.23C162.46 98.21 162.49 98.19 162.52 98.2L272.78 155.02C272.83 155.03 272.86 155.09 272.86 155.16C272.86 155.23 272.82 155.28 272.76 155.28L186.72 157.07ZM162.59 98.49L186.81 156.81L271.68 155.04L162.59 98.49Z" fill="#DDAF94"/>
<path d="M254.22 201.77C254.2 201.77 254.19 201.76 254.18 201.76L186.68 157.06C186.64 157.03 186.62 156.97 186.63 156.91C186.64 156.85 186.68 156.81 186.72 156.81L272.75 155.02C272.79 155.02 272.82 155.04 272.83 155.08C272.85 155.12 272.85 155.17 272.83 155.21L254.3 201.7C254.29 201.75 254.25 201.77 254.22 201.77ZM187.13 157.07L254.18 201.47L272.59 155.3L187.13 157.07Z" fill="#DDAF94"/>
<path d="M194.01 320.5H194.4L159.36 293.02L262 307.24L256.39 320.5H256.62L262.25 307.19C262.27 307.15 262.27 307.1 262.25 307.06C262.24 307.02 262.21 307 262.17 306.99L158.93 292.69C158.88 292.67 158.84 292.72 158.83 292.78C158.81 292.84 158.83 292.91 158.87 292.94L194.01 320.5Z" fill="#DDAF94"/>
<path d="M287.85 217.22L276.89 224.62L287.85 178.85V177.99L276.63 224.84C276.62 224.89 276.63 224.95 276.66 224.98C276.68 225 276.7 225.01 276.72 225.01C276.73 225.01 276.75 225.01 276.76 225L287.84 217.52V217.22H287.85Z" fill="#DDAF94"/>
<path d="M287.85 235.79L276.91 224.9L287.85 217.51V217.21L276.68 224.75C276.65 224.77 276.63 224.81 276.63 224.86C276.63 224.9 276.64 224.95 276.67 224.98L287.85 236.11V235.79Z" fill="#DDAF94"/>
<path d="M14.0501 320.5L12.1301 298.43L41.5401 320.5H41.9401L12.0601 298.07C12.0301 298.04 11.9901 298.05 11.9601 298.08C11.9301 298.11 11.9101 298.15 11.9201 298.21L13.8601 320.51H14.0501V320.5Z" fill="#DDAF94"/>
<path d="M41.5401 320.5H41.9401L12.5001 298.4L43.7001 303.67L46.8101 320.5H47.0101L43.8701 303.52C43.8601 303.47 43.8301 303.43 43.7901 303.42L12.0201 298.06C11.9701 298.04 11.9301 298.09 11.9201 298.15C11.9101 298.21 11.9201 298.28 11.9601 298.31L41.5401 320.5Z" fill="#DDAF94"/>
<path d="M127.16 242.89C127.15 242.89 127.14 242.89 127.13 242.88L87.42 223.21C87.39 223.2 87.37 223.16 87.36 223.12L81.83 184.11C81.82 184.06 81.83 184 81.87 183.97C81.9 183.94 81.95 183.94 81.98 183.97L127.21 242.63C127.25 242.65 127.27 242.69 127.27 242.75C127.26 242.83 127.22 242.89 127.16 242.89ZM87.53 222.99L126.42 242.25L82.08 184.39L87.53 222.99Z" fill="#DDAF94"/>
<path d="M43.77 303.68H43.76L11.99 298.32C11.96 298.32 11.93 298.29 11.92 298.26C11.91 298.23 11.9 298.18 11.91 298.15L31.76 221.27C31.77 221.21 31.82 221.17 31.86 221.18C31.9 221.18 31.94 221.23 31.95 221.29L43.86 303.53C43.87 303.57 43.86 303.61 43.84 303.64C43.82 303.67 43.8 303.68 43.77 303.68ZM12.14 298.08L43.65 303.4L31.83 221.81L12.14 298.08Z" fill="#DDAF94"/>
<path d="M43.77 303.68C43.76 303.68 43.76 303.68 43.75 303.68C43.71 303.67 43.68 303.63 43.67 303.58L31.76 221.33C31.76 221.29 31.76 221.25 31.78 221.22C31.8 221.19 31.83 221.17 31.86 221.17L87.45 222.96C87.49 222.96 87.52 222.99 87.53 223.03C87.55 223.07 87.54 223.13 87.52 223.17L43.84 303.63C43.83 303.66 43.8 303.68 43.77 303.68ZM31.98 221.44L43.83 303.23L87.26 223.22L31.98 221.44Z" fill="#DDAF94"/>
<path d="M87.45 223.23L31.85 221.44C31.8 221.44 31.76 221.39 31.76 221.32C31.76 221.26 31.79 221.19 31.83 221.18L81.88 183.96C81.93 183.94 81.99 183.98 82 184.05L87.53 223.02C87.54 223.04 87.55 223.07 87.55 223.09C87.55 223.17 87.51 223.23 87.45 223.23ZM32.57 221.2L87.32 222.96L81.85 184.25L32.57 221.2Z" fill="#DDAF94"/>
<path d="M152.2 320.5L158.98 293.02L194.02 320.5H194.41L158.98 292.71C158.95 292.69 158.93 292.69 158.9 292.7C158.87 292.72 158.85 292.74 158.84 292.78L152 320.5H152.2Z" fill="#DDAF94"/>
<path d="M126.33 320.5L158.75 293.13L152 320.5H152.21L159.03 292.87C159.04 292.82 159.03 292.76 159 292.72C158.97 292.69 158.92 292.68 158.89 292.71L125.97 320.5H126.33Z" fill="#DDAF94"/>
<path d="M113.92 287.59C113.9 287.59 113.87 287.58 113.85 287.55C113.82 287.51 113.81 287.45 113.83 287.4L127.07 242.7C127.08 242.66 127.11 242.63 127.14 242.62C127.17 242.61 127.2 242.62 127.23 242.65L148.41 265.89C148.44 265.92 148.45 265.96 148.45 266.01C148.45 266.05 148.42 266.09 148.39 266.11L113.98 287.57C113.95 287.59 113.93 287.59 113.92 287.59ZM127.2 242.98L114.1 287.21L148.15 265.98L127.2 242.98Z" fill="#DDAF94"/>
<path d="M158.92 292.96L113.91 287.6C113.87 287.59 113.83 287.55 113.82 287.49C113.81 287.43 113.83 287.37 113.87 287.35L148.28 265.9C148.33 265.87 148.38 265.9 148.41 265.96L158.99 292.75C159.01 292.77 159.02 292.81 159.02 292.84C159.02 292.9 158.97 292.94 158.92 292.96ZM114.29 287.37L158.75 292.67L148.29 266.18L114.29 287.37Z" fill="#DDAF94"/>
<path d="M47.01 320.5L43.89 303.66L113.1 287.78L55.44 320.5H55.94L113.96 287.58C114.01 287.55 114.03 287.49 114.02 287.42C114.01 287.36 113.96 287.32 113.91 287.33L43.76 303.42C43.73 303.43 43.71 303.45 43.7 303.48C43.68 303.51 43.68 303.55 43.69 303.58L46.82 320.5H47.01Z" fill="#DDAF94"/>
<path d="M43.7701 303.68C43.7401 303.68 43.7 303.66 43.69 303.62C43.67 303.58 43.67 303.52 43.69 303.47L87.3701 223.02C87.3901 222.98 87.42 222.96 87.45 222.97C87.48 222.97 87.51 223 87.53 223.04L114 287.41C114.01 287.45 114.02 287.49 114 287.53C113.99 287.57 113.96 287.6 113.93 287.6L43.78 303.69C43.78 303.68 43.7801 303.68 43.7701 303.68ZM87.4401 223.34L44.0001 303.37L113.78 287.36L87.4401 223.34Z" fill="#DDAF94"/>
<path d="M55.9401 320.5L113.84 287.65L115.95 320.5H116.15L114.02 287.45C114.02 287.41 114 287.37 113.97 287.35C113.94 287.33 113.91 287.32 113.88 287.34L55.4301 320.5H55.9401Z" fill="#DDAF94"/>
<path d="M113.92 287.59C113.88 287.59 113.85 287.56 113.83 287.52L87.36 223.16C87.34 223.11 87.34 223.05 87.37 223.01C87.4 222.97 87.44 222.95 87.48 222.97L127.19 242.64C127.21 242.65 127.23 242.68 127.25 242.71C127.26 242.74 127.26 242.78 127.25 242.81L114.01 287.51C114 287.56 113.96 287.59 113.92 287.59C113.93 287.59 113.92 287.59 113.92 287.59ZM87.66 223.34L113.9 287.15L127.02 242.84L87.66 223.34Z" fill="#DDAF94"/>
<path d="M116.15 320.5L114.03 287.61L158.62 292.92L125.95 320.5H126.32L158.97 292.94C159.01 292.91 159.02 292.85 159.01 292.8C159 292.75 158.97 292.7 158.92 292.7L113.92 287.34C113.89 287.34 113.86 287.35 113.84 287.38C113.82 287.41 113.81 287.45 113.81 287.49L115.94 320.52H116.15V320.5Z" fill="#DDAF94"/>
<path d="M254.22 201.77C254.2 201.77 254.18 201.76 254.16 201.74C254.12 201.7 254.11 201.63 254.13 201.57L272.66 155.08C272.67 155.05 272.69 155.02 272.72 155.02C272.75 155.01 272.77 155.02 272.8 155.03L283.39 163.97C283.42 163.99 283.43 164.03 283.44 164.07C283.44 164.11 283.43 164.15 283.41 164.18L254.29 201.73C254.27 201.76 254.24 201.77 254.22 201.77ZM272.79 155.34L254.6 200.97L283.18 164.12L272.79 155.34Z" fill="#DDAF94"/>
<path d="M276.72 225.02C276.7 225.02 276.68 225.01 276.66 224.99L254.16 201.75C254.14 201.73 254.12 201.69 254.12 201.65C254.12 201.61 254.13 201.57 254.15 201.55L283.27 164C283.3 163.96 283.35 163.95 283.38 163.98C283.42 164.01 283.44 164.06 283.43 164.12L276.81 224.91C276.8 224.96 276.78 225 276.75 225.01C276.74 225.01 276.73 225.02 276.72 225.02ZM254.37 201.63L276.65 224.64L283.2 164.45L254.37 201.63Z" fill="#DDAF94"/>
<path d="M287.85 163.96H283.37L273.57 155.68L287.85 162.57V162.29L272.78 155.02C272.74 155 272.68 155.03 272.66 155.09C272.64 155.15 272.65 155.23 272.7 155.26L283.29 164.2C283.3 164.21 283.32 164.22 283.34 164.22H287.85V163.96Z" fill="#DDAF94"/>
<path d="M287.85 178L276.99 223.34L283.43 164.23H287.85V163.97H283.34C283.29 163.97 283.25 164.02 283.24 164.08L276.62 224.87C276.61 224.94 276.64 225 276.69 225.02C276.7 225.02 276.7 225.02 276.71 225.02C276.75 225.02 276.79 224.98 276.8 224.93L287.83 178.86V178H287.85Z" fill="#DDAF94"/>
<path d="M287.85 162.3L272.94 155.11L287.85 136.65V136.29L272.69 155.06C272.66 155.09 272.65 155.14 272.66 155.19C272.67 155.23 272.69 155.27 272.72 155.29L287.85 162.59V162.3Z" fill="#DDAF94"/>
<path d="M190.69 232.17C190.67 232.17 190.64 232.16 190.62 232.13L145.62 176.71C145.59 176.68 145.58 176.63 145.59 176.59C145.6 176.54 145.62 176.51 145.65 176.49L186.68 156.82C186.71 156.8 186.74 156.81 186.77 156.83C186.8 156.85 186.81 156.89 186.81 156.93L190.78 231.98C190.78 232 190.79 232.01 190.79 232.03C190.79 232.11 190.75 232.17 190.69 232.17ZM145.87 176.66L190.57 231.71L186.63 157.12L145.87 176.66Z" fill="#DDAF94"/>
<path d="M158.92 292.96C158.88 292.96 158.85 292.93 158.83 292.89L148.24 266.07C148.22 266.01 148.23 265.93 148.28 265.9L190.63 231.93C190.67 231.9 190.72 231.91 190.75 231.95C190.78 232 190.79 232.06 190.76 232.12L158.99 292.91C158.98 292.93 158.95 292.96 158.92 292.96ZM148.46 266.05L158.93 292.57L190.34 232.46L148.46 266.05Z" fill="#DDAF94"/>
<path d="M262.16 307.26H262.15L158.91 292.96C158.88 292.96 158.84 292.92 158.83 292.88C158.82 292.84 158.82 292.79 158.84 292.75L190.61 231.96C190.62 231.93 190.65 231.91 190.67 231.91C190.7 231.91 190.72 231.91 190.74 231.94L262.21 307.03C262.25 307.07 262.26 307.13 262.24 307.18C262.24 307.23 262.2 307.26 262.16 307.26ZM159.1 292.71L261.83 306.94L190.71 232.21L159.1 292.71Z" fill="#DDAF94"/>
<path d="M190.69 232.17C190.67 232.17 190.65 232.16 190.64 232.15C190.62 232.13 190.6 232.09 190.6 232.05L186.63 156.96C186.63 156.91 186.64 156.87 186.67 156.84C186.7 156.81 186.74 156.81 186.77 156.83L254.27 201.53C254.31 201.55 254.33 201.6 254.33 201.66C254.33 201.71 254.3 201.76 254.26 201.78L190.72 232.16C190.71 232.16 190.7 232.17 190.69 232.17ZM186.83 157.16L190.78 231.85L253.97 201.62L186.83 157.16Z" fill="#DDAF94"/>
<path d="M262.16 307.26C262.14 307.26 262.12 307.25 262.1 307.23L190.63 232.14C190.6 232.11 190.59 232.06 190.59 232.01C190.6 231.96 190.62 231.92 190.65 231.91L254.18 201.52C254.21 201.51 254.24 201.51 254.26 201.53C254.28 201.55 254.3 201.59 254.3 201.63L262.24 307.08C262.24 307.1 262.25 307.11 262.25 307.13C262.26 307.2 262.22 307.26 262.16 307.26ZM190.89 232.08L262.04 306.83L254.14 201.82L190.89 232.08Z" fill="#DDAF94"/>
<path d="M162.49 98.47C162.47 98.47 162.46 98.47 162.44 98.45C162.4 98.42 162.38 98.35 162.4 98.29L217.06 35.32C217.07 35.28 217.1 35.25 217.13 35.24C217.16 35.23 217.19 35.24 217.22 35.27L233.1 54.94C233.14 54.99 233.14 55.06 233.11 55.12L162.56 98.43C162.55 98.45 162.52 98.47 162.49 98.47ZM217.2 35.59L162.86 97.49L232.91 55.04L217.2 35.59Z" fill="#DDAF94"/>
<path d="M272.75 155.29C272.75 155.29 272.74 155.29 272.73 155.29L162.47 98.47C162.44 98.46 162.41 98.43 162.4 98.39C162.39 98.35 162.39 98.3 162.41 98.26L232.96 54.96C232.98 54.92 233.01 54.9 233.04 54.91C233.07 54.91 233.1 54.94 233.12 54.98L272.83 155.1C272.85 155.15 272.85 155.2 272.82 155.24C272.81 155.27 272.78 155.29 272.75 155.29ZM162.67 98.25L272.57 154.98L233.03 55.27L162.67 98.25Z" fill="#DDAF94"/>
<path d="M127.16 242.89C127.13 242.89 127.1 242.87 127.08 242.84C127.06 242.8 127.05 242.76 127.07 242.71L145.6 176.56C145.62 176.5 145.65 176.46 145.7 176.48C145.74 176.48 145.78 176.53 145.79 176.59L153.73 239.17C153.73 239.21 153.73 239.24 153.71 239.27C153.69 239.3 153.67 239.32 153.64 239.32L127.17 242.9C127.16 242.89 127.16 242.89 127.16 242.89ZM145.65 177.11L127.3 242.61L153.51 239.07L145.65 177.11Z" fill="#DDAF94"/>
<path d="M149.66 242.89H127.16C127.11 242.89 127.07 242.84 127.06 242.77C127.06 242.7 127.1 242.64 127.15 242.63L153.62 239.05C153.67 239.05 153.71 239.08 153.72 239.14C153.74 239.2 153.72 239.26 153.68 239.29L149.71 242.86C149.69 242.89 149.68 242.89 149.66 242.89ZM129.12 242.63H149.63L153.25 239.37L129.12 242.63Z" fill="#DDAF94"/>
<path d="M153.63 239.32C153.58 239.32 153.54 239.28 153.53 239.21L145.59 176.63C145.58 176.58 145.6 176.52 145.64 176.49C145.68 176.47 145.72 176.47 145.75 176.51L190.75 231.93C190.78 231.97 190.79 232.02 190.78 232.07C190.77 232.12 190.74 232.15 190.7 232.16L153.64 239.31C153.64 239.32 153.63 239.32 153.63 239.32ZM145.83 176.97L153.7 239.04L190.46 231.95L145.83 176.97Z" fill="#DDAF94"/>
<path d="M148.33 266.14C148.32 266.14 148.32 266.14 148.31 266.14C148.26 266.13 148.23 266.07 148.23 266L149.55 242.76C149.55 242.72 149.57 242.68 149.59 242.66L153.56 239.09C153.59 239.06 153.64 239.06 153.67 239.09C153.7 239.12 153.72 239.18 153.71 239.23L148.41 266.05C148.42 266.1 148.38 266.14 148.33 266.14ZM149.75 242.84L148.51 264.59L153.46 239.49L149.75 242.84Z" fill="#DDAF94"/>
<path d="M148.33 266.14C148.31 266.14 148.29 266.13 148.27 266.11C148.24 266.08 148.22 266.02 148.23 265.97L153.52 239.15C153.53 239.1 153.56 239.06 153.6 239.05L190.66 231.9C190.7 231.89 190.75 231.93 190.77 231.99C190.78 232.05 190.77 232.11 190.73 232.15L148.38 266.12C148.37 266.13 148.35 266.14 148.33 266.14ZM153.71 239.31L148.49 265.73L190.22 232.26L153.71 239.31Z" fill="#DDAF94"/>
<path d="M287.85 21.37L217.28 35.21L230.46 -55.57L287.85 7.04V6.7L230.46 -55.92C230.43 -55.95 230.4 -55.96 230.36 -55.94C230.33 -55.92 230.3 -55.89 230.3 -55.84L217.06 35.34C217.05 35.38 217.06 35.43 217.09 35.46C217.11 35.49 217.13 35.5 217.16 35.5H217.17L287.84 21.64V21.37H287.85Z" fill="#DDAF94"/>
<path d="M287.85 25.28L233.07 54.88L217.38 35.46L287.85 21.64V21.37L217.15 35.23C217.11 35.24 217.08 35.27 217.07 35.32C217.06 35.37 217.07 35.42 217.1 35.46L232.98 55.13C233 55.15 233.02 55.17 233.05 55.17C233.06 55.17 233.07 55.17 233.09 55.16L287.86 25.57V25.28H287.85Z" fill="#DDAF94"/>
<path d="M287.85 6.7L230.81 -55.54L287.85 -35.73V-36L230.42 -55.94C230.38 -55.96 230.33 -55.93 230.31 -55.87C230.29 -55.81 230.3 -55.75 230.34 -55.71L287.85 7.04V6.7Z" fill="#DDAF94"/>
<path d="M287.85 77.14L272.72 154.8L233.18 55.1L287.85 25.56V25.28L233.01 54.91C232.99 54.93 232.96 54.95 232.95 54.99C232.94 55.03 232.94 55.06 232.96 55.1L272.67 155.22C272.69 155.26 272.72 155.29 272.75 155.29H272.76C272.8 155.29 272.83 155.25 272.84 155.19L287.84 78.18V77.14H287.85Z" fill="#DDAF94"/>
<path d="M287.85 136.28L272.93 154.75L287.85 78.17V77.13L272.66 155.11C272.65 155.17 272.67 155.22 272.71 155.26C272.72 155.27 272.74 155.28 272.76 155.28C272.79 155.28 272.81 155.27 272.83 155.25L287.86 136.64V136.28H287.85Z" fill="#DDAF94"/>
<path d="M12.25 320.5L12.12 300.62L13.85 320.5H14.05L12.11 298.17C12.11 298.1 12.07 298.05 12.01 298.05C11.96 298.06 11.92 298.11 11.92 298.18L12.06 320.49H12.25V320.5Z" fill="#DDAF94"/>
<path d="M0 273.17L2.74 320.5H2.93L0.22 273.67" fill="#DDAF94"/>
<path d="M0.220054 273.67L11.9101 298.23L12.0501 320.5H12.2501L12.1101 298.19C12.1101 298.17 12.1001 298.14 12.0901 298.12L0.180054 273.09" fill="#DDAF94"/>
<path d="M287.85 313.19L262.28 307.02L276.74 225.36L287.85 270.39V269.56L276.82 224.85C276.81 224.79 276.76 224.76 276.72 224.76C276.68 224.76 276.64 224.8 276.63 224.86L262.07 307.1C262.06 307.14 262.07 307.17 262.08 307.2C262.09 307.23 262.12 307.25 262.14 307.26L287.84 313.46V313.19H287.85Z" fill="#DDAF94"/>
<path d="M287.85 269.56L276.91 225.24L287.85 236.12V235.79L276.78 224.77C276.75 224.74 276.7 224.74 276.66 224.77C276.63 224.81 276.61 224.86 276.62 224.92L287.84 270.39V269.56H287.85Z" fill="#DDAF94"/>
<path d="M256.62 320.5L262.19 307.34L272.6 320.5H272.89L262.23 307.03C262.21 307 262.18 306.99 262.15 306.99C262.12 307 262.09 307.02 262.08 307.06L256.4 320.5H256.62Z" fill="#DDAF94"/>
<path d="M272.6 320.5H272.89L262.47 307.34L287.85 313.46V313.19L262.18 307C262.14 306.99 262.09 307.02 262.08 307.07C262.06 307.12 262.07 307.18 262.1 307.22L272.6 320.5Z" fill="#DDAF94"/>
</svg>
