<svg width="159" height="244" viewBox="0 0 159 244" fill="none" xmlns="http://www.w3.org/2000/svg">
<path d="M22.6416 243.111C35.0195 164.811 65.2181 83.1982 124.768 28.6441L131.224 22.868C134.471 20.1818 138.077 17.3802 141.346 14.6886C143.877 12.8691 149.4 8.84954 151.904 7.0134C99.9504 34.9109 64.1495 86.2763 43.9543 140.718C31.9972 173.559 24.0181 208.145 22.6416 243.111Z" fill="#E8CEBF" fill-opacity="0.5"/>
<path d="M156.964 17.0733C153.787 15.7169 150.307 16.5056 147.087 17.0405C142.279 17.8153 138.27 20.2454 134.304 22.9245C130.195 25.4097 125.51 25.9635 120.851 26.8713L123.78 30.373C128.648 24.6099 132.865 18.3532 135.569 11.2635C136.481 8.89298 137.327 6.48357 137.841 3.85774L137.311 3.53028C129.289 9.90031 123.745 18.5543 119.704 27.8366L116.852 34.854L122.633 31.3383C125.297 29.7182 127.867 27.7882 130.734 26.6275C133.602 25.3342 136.766 24.9817 139.87 24.629C143.017 24.2765 145.846 23.0992 148.647 21.861C151.387 20.7056 154.156 18.9364 156.758 17.6701L156.964 17.0844L156.964 17.0733Z" fill="#E8CEBF" fill-opacity="0.5"/>
<path d="M158.587 33.519C149.751 32.7032 141.006 33.3033 132.506 35.6572C128.317 36.9753 124.171 38.57 119.867 39.191C115.579 39.9227 111.183 39.9462 106.791 40.0527L109.163 43.0333C111.095 39.7524 112.651 36.3215 114.284 32.9238C117.612 26.1287 120.177 19.0443 122.167 11.7319C123.138 8.06182 124.053 4.36397 124.559 0.504834L123.984 0.271301C114.287 13.7553 108.076 29.3596 104.114 45.4003C109.393 43.8302 114.762 41.8897 120.162 41.0388C124.438 40.2629 128.879 40.4607 133.27 40.3819C137.662 40.3086 141.917 39.3888 146.161 38.3916C150.394 37.3336 154.594 36.0763 158.68 34.1386L158.582 33.5245L158.587 33.519Z" fill="#E8CEBF" fill-opacity="0.5"/>
<path d="M154.266 46.7992C144.18 46.0027 133.992 46.6495 124.116 48.746C119.207 49.9353 114.37 51.5948 109.402 52.3471C104.445 53.1658 99.4064 53.3759 94.3459 53.4533L96.442 55.9023C98.4093 51.5708 100.012 47.1334 101.565 42.6792C104.836 33.8101 107.35 24.707 109.146 15.4253C110.036 10.7706 110.848 6.09365 111.218 1.28297L110.621 1.1047C101.697 17.8866 96.2255 36.1748 92.7722 54.7992L92.2676 57.9394C97.9894 56.4035 103.8 54.8788 109.663 54.2336C114.648 53.614 119.757 53.8963 124.801 53.7138C129.846 53.5368 134.786 52.5854 139.722 51.6008C144.69 50.5388 149.588 49.2886 154.353 47.4132L154.266 46.7992Z" fill="#E8CEBF" fill-opacity="0.5"/>
<path d="M152.961 64.2336C141.428 63.0524 129.758 63.3032 118.317 65.0865C112.618 66.1082 106.963 67.5945 101.221 68.1239C95.4736 68.7417 89.6833 68.7179 83.9042 68.6112L86.0061 70.9884C87.7206 65.9152 89.0592 60.7638 90.3758 55.6012C93.1191 45.4312 95.1835 34.6901 96.4452 24.257C97.0763 18.9546 97.6355 13.6301 97.7525 8.216L97.1444 8.08748C89.1315 27.902 84.6497 48.9963 82.1476 70.1614L81.876 72.9868C88.3327 71.7512 94.8228 70.4436 101.388 70.0101C107.136 69.5305 112.964 70.0135 118.748 70.0262C124.539 70.0721 130.259 69.2993 135.974 68.5045C141.722 67.6267 147.415 66.5608 153.015 64.8531L152.961 64.2336Z" fill="#E8CEBF" fill-opacity="0.5"/>
<path d="M148.764 81.6731C148.488 81.4402 147.919 81.2067 147.571 81.0787C141.939 79.28 135.962 78.7968 130.117 78.3083C123.907 77.9297 117.697 77.6782 111.496 78.3503C105.295 78.9782 99.1099 79.9435 92.9158 79.9188C86.7216 79.9937 80.5232 79.416 74.3081 78.9156L76.5374 81.1935C79.0785 59.8793 79.9112 38.3234 77.1376 16.9754L76.5183 16.9519C75.3176 22.2585 74.5593 27.5826 73.8562 32.9069C71.808 48.8743 71.4685 64.9561 72.1577 81.0235L72.3125 83.5402L74.387 83.3015C80.5605 82.5905 86.7452 81.8465 92.9339 81.7937C99.1228 81.6359 105.32 82.5123 111.508 83.1121C120.78 83.9676 130.045 83.3906 139.304 82.7639C141.799 82.6035 144.88 82.284 147.369 82.1678L147.928 82.169L148.403 82.1977L148.758 81.6842L148.764 81.6731Z" fill="#E8CEBF" fill-opacity="0.5"/>
<path d="M144.342 95.9429C138.168 94.0822 131.643 93.7471 125.262 93.2463C118.919 92.9227 112.577 92.6599 106.238 93.199C99.8985 93.727 93.5694 94.7473 87.2368 94.8606C80.9041 95.0402 74.5671 94.6226 68.2194 94.0777L70.1457 95.7908C69.7392 71.9261 67.314 48.0679 61.1818 24.9538L60.5622 25.0188C59.8446 37.0017 60.3604 48.9043 61.2799 60.83C62.4968 73.3149 64.1672 85.7731 66.745 98.0674L68.2718 97.8993C74.5946 97.2109 80.9281 96.6828 87.2603 96.7631C93.5926 96.777 99.9339 97.7311 106.265 98.2096C115.76 98.8333 125.262 98.279 134.732 97.4758C137.868 97.2283 141.11 96.7764 144.141 96.5232L144.347 95.9374L144.342 95.9429Z" fill="#E8CEBF" fill-opacity="0.5"/>
<path d="M139.827 114.338C126.493 111.765 112.891 110.629 99.3347 110.942C92.5703 111.242 85.7883 112.029 79.0303 111.904C72.2723 111.839 65.5266 111.172 58.7868 110.355L60.6138 111.969C59.8552 99.8054 58.3775 87.7292 56.4351 75.7183C54.2604 63.6959 51.6983 51.7998 47.9245 40.1333L47.3104 40.226C47.2127 49.4506 47.9117 58.5331 48.8484 67.6604C50.5007 83.3705 53.4253 98.9285 57.2905 114.245L58.6678 114.16C65.449 113.743 72.2189 113.471 78.9764 113.806C85.734 114.081 92.4675 115.257 99.2186 115.958C105.97 116.664 112.734 116.601 119.503 116.5C126.3 116.327 133.07 115.966 139.82 114.952L139.832 114.333L139.827 114.338Z" fill="#E8CEBF" fill-opacity="0.5"/>
<path d="M132.243 137.832C118.651 134.705 104.851 132.634 90.9381 131.873C83.987 131.592 76.9736 131.931 70.0283 131.523C63.0829 131.126 56.1941 130.182 49.3279 128.972L50.7521 130.208C48.9224 117.241 46.3402 104.388 43.2933 91.6614C39.9753 78.9562 36.2367 66.405 31.2418 54.2104L30.6387 54.3529C31.6938 67.49 34.038 80.3756 36.8193 93.2068C39.9427 106.36 43.6305 119.386 47.9936 132.188L49.0222 132.201C55.9959 132.305 62.9413 132.658 69.8413 133.563C76.7413 134.452 83.5679 136.082 90.4566 137.087C97.3453 138.092 104.296 138.478 111.247 138.781C118.259 139.006 125.211 139.155 132.236 138.451L132.249 137.832L132.243 137.832Z" fill="#E8CEBF" fill-opacity="0.5"/>
<path d="M121.528 164.354C107.551 162.41 93.4158 162.141 79.3449 162.768C72.3313 163.234 65.3274 164.302 58.3137 164.79C51.3001 165.256 44.2765 165.218 37.2426 164.86L38.6893 165.92L36.4784 155.23C30.8532 130.413 23.7396 105.92 13.2995 82.6471L12.7019 82.8228C14.7551 97.2783 18.0865 111.427 21.9325 125.466C25.9284 139.196 30.6534 153.375 35.8558 166.743L36.2902 167.9L37.3025 167.802C44.311 167.143 51.3299 166.805 58.3532 166.969C65.382 167.156 72.4205 167.935 79.4438 168.111C86.4727 168.248 93.4861 167.865 100.494 167.394C107.502 166.878 114.517 166.169 121.504 164.973L121.517 164.354L121.528 164.354Z" fill="#E8CEBF" fill-opacity="0.5"/>
<path d="M127.93 150.083C113.782 148.138 99.4752 147.869 85.2329 148.49C78.1308 148.956 71.044 150.024 63.9473 150.506C56.8508 150.972 49.7387 150.929 42.6218 150.57L44.0904 151.718L42.5379 140.964C38.4395 115.957 32.8363 91.1904 23.8352 67.4394L23.2265 67.5764C24.3948 82.0687 26.8521 96.326 29.8405 110.513C32.99 124.395 36.8408 138.772 41.2186 152.37L41.6086 153.621L42.6872 153.518C49.7842 152.859 56.8805 152.521 63.9978 152.691C71.1096 152.878 78.2366 153.657 85.3484 153.833C92.4602 153.97 99.5621 153.593 106.659 153.122C113.75 152.607 120.858 151.904 127.929 150.702L127.941 150.083L127.93 150.083Z" fill="#E8CEBF" fill-opacity="0.5"/>
<path d="M118.223 175.596C104.078 174.785 89.8798 175.44 75.8341 177.195C68.8359 178.197 61.8972 179.813 54.8936 180.733C47.8901 181.663 40.8379 182.051 33.7587 182.163L35.4043 183.25C32.2491 169.473 28.2264 155.328 23.8923 141.924C19.2379 128.364 14.1572 114.986 7.83662 102.064L7.24443 102.256C9.68538 116.43 13.3881 130.254 17.55 143.973C21.8674 157.377 26.9139 171.209 32.3992 184.223L32.9218 185.501L34.0449 185.31C41.0214 184.114 48.0305 183.195 55.0826 182.824C62.1348 182.441 69.2573 182.755 76.3148 182.45C83.3779 182.139 90.3814 181.231 97.3796 180.256C104.4 179.221 111.382 178.025 118.271 176.221L118.212 175.601L118.223 175.596Z" fill="#E8CEBF" fill-opacity="0.5"/>
<path d="M101.492 193.804C89.643 192.572 77.6856 192.811 65.8481 193.897C59.9512 194.548 54.1026 195.862 48.2164 196.673C42.3302 197.495 36.4121 197.759 30.4669 197.757L31.8034 198.595C29.8044 192.208 28.0766 185.712 25.7897 179.441C19.2945 160.429 11.5263 141.885 1.29439 124.536L0.718728 124.767C3.67631 137.892 7.89576 150.588 12.6853 163.103C17.6409 175.524 23.2386 187.664 29.3291 199.585L29.7971 200.548L30.6656 200.428C36.5463 199.601 42.4485 199.033 48.3883 199.024C54.328 199.004 60.3054 199.487 66.2344 199.312C72.1634 199.121 78.0548 198.459 83.9463 197.714C89.8602 196.897 95.7356 195.959 101.54 194.429L101.498 193.809L101.492 193.804Z" fill="#E8CEBF" fill-opacity="0.5"/>
<path d="M86.8985 205.883C76.5089 204.943 66.0276 205.461 55.7648 207.209C50.669 208.21 45.6383 209.802 40.5154 210.582C35.3925 211.389 30.2099 211.649 25.0002 211.676L26.7621 212.692C25.2632 207.722 23.6205 202.802 21.712 197.975C16.3022 183.352 9.53618 169.29 0.760178 156.346L0.190016 156.594C2.44609 166.813 5.9143 176.588 9.79203 186.241C14.0562 196.2 18.8961 205.933 24.334 215.308L25.3909 215.061C30.4704 213.889 35.5771 212.949 40.7434 212.562C45.9097 212.148 51.1683 212.541 56.3618 212.348C61.5553 212.143 66.6728 211.303 71.7795 210.385C76.9194 209.407 82.0044 208.251 86.9691 206.492L86.8986 205.872L86.8985 205.883Z" fill="#E8CEBF" fill-opacity="0.5"/>
</svg>
