<svg width="271" height="362" viewBox="0 0 271 362" fill="none" xmlns="http://www.w3.org/2000/svg">
<path d="M1.25897 302.538C50.2311 213.579 122.116 128.38 217.597 88.5507L227.887 84.3991C232.968 82.5748 238.532 80.7679 243.641 78.9467C247.483 77.8554 255.885 75.4146 259.701 74.2913C184.968 85.3065 119.49 131.624 71.4763 188.436C42.7845 222.804 18.1266 261.007 1.25897 302.538Z" fill="#E8CEBF" fill-opacity="0.5"/>
<path d="M261.422 88.6134C258.184 85.5972 253.648 85.0337 249.535 84.2776C243.406 83.1199 237.518 84.304 231.574 85.807C225.542 87.0141 219.656 85.6433 213.648 84.7108L215.654 90.2039C224.027 85.3777 231.829 79.6732 238.17 72.3069C240.3 69.8475 242.367 67.3123 244.13 64.3723L243.633 63.7472C231.197 67.933 220.753 75.9486 211.846 85.375L205.357 92.5894L213.852 90.8682C217.766 90.0747 221.703 88.8673 225.662 88.7161C229.68 88.4051 233.646 89.3566 237.539 90.2816C241.484 91.2259 245.405 91.0378 249.318 90.7643C253.122 90.5641 257.228 89.6369 260.914 89.243L261.417 88.6267L261.422 88.6134Z" fill="#E8CEBF" fill-opacity="0.5"/>
<path d="M256.224 109.135C245.933 104.308 235.135 101.228 223.87 100.367C218.249 100.133 212.56 100.251 207.104 99.1269C201.619 98.1434 196.312 96.2593 190.974 94.4775L192.535 99.1003C196.29 95.9875 199.657 92.5304 203.103 89.1471C210.068 82.4072 216.24 74.987 221.819 67.0422C224.585 63.0422 227.296 58.9848 229.584 54.5552L228.994 54.0238C211.445 66.0527 197.173 82.1522 185.422 99.7561C192.466 100.161 199.779 100.158 206.655 101.481C212.146 102.407 217.41 104.577 222.735 106.392C228.058 108.213 233.585 108.956 239.132 109.6C244.693 110.167 250.301 110.479 256.067 109.922L256.215 109.139L256.224 109.135Z" fill="#E8CEBF" fill-opacity="0.5"/>
<path d="M245.242 123.256C233.436 117.91 220.879 114.257 208.067 112.487C201.636 111.785 195.085 111.681 188.772 110.426C182.443 109.257 176.281 107.318 170.15 105.21L171.61 109.073C175.865 104.71 179.726 100.06 183.534 95.3687C191.334 86.1053 198.323 76.2307 204.523 65.8284C207.62 60.607 210.633 55.325 213.171 49.6897L212.53 49.2152C194.477 65.5537 179.93 85.2092 167.669 106.148L165.695 109.712C173.257 110.35 180.921 111.04 188.267 112.813C194.542 114.235 200.575 116.797 206.732 118.771C212.887 120.752 219.254 121.755 225.629 122.715C232.077 123.597 238.522 124.221 245.08 124.034L245.242 123.256Z" fill="#E8CEBF" fill-opacity="0.5"/>
<path d="M236.086 143.695C222.703 137.255 208.533 132.481 193.972 129.654C186.662 128.406 179.201 127.737 172.053 125.877C164.859 124.122 157.892 121.574 150.976 118.932L152.474 122.711C156.747 117.344 160.6 111.719 164.432 106.071C172.161 95.011 179.321 82.9671 185.379 70.9452C188.446 64.831 191.435 58.6587 193.931 52.1862L193.255 51.7669C174.981 72.1558 160.406 95.6227 148.185 120.036L146.629 123.322C154.946 124.642 163.334 125.889 171.434 128.223C178.567 130.145 185.379 133.262 192.344 135.793C199.3 138.367 206.529 139.924 213.76 141.452C221.067 142.895 228.391 144.087 235.882 144.465L236.086 143.695Z" fill="#E8CEBF" fill-opacity="0.5"/>
<path d="M223.443 162.882C223.212 162.482 222.628 161.953 222.264 161.647C216.261 157.03 209.269 153.848 202.439 150.717C195.122 147.56 187.749 144.556 179.985 142.668C172.24 140.728 164.368 139.2 156.916 136.476C149.42 133.872 142.203 130.48 134.932 127.174L136.627 130.888C148.96 106.312 159.339 80.702 165.283 53.7735L164.547 53.4758C160.792 59.3474 157.563 65.4326 154.4 71.5419C144.986 89.89 137.582 109.119 131.424 128.778L130.516 131.878L133.119 132.493C140.867 134.321 148.642 136.115 156.122 138.743C163.647 141.245 170.734 144.997 177.928 148.411C188.728 153.475 200.142 156.81 211.571 160.082C214.647 160.974 218.498 161.929 221.548 162.872L222.22 163.116L222.781 163.357L223.432 162.893L223.443 162.882Z" fill="#E8CEBF" fill-opacity="0.5"/>
<path d="M211.908 178.152C205.279 173.225 197.562 169.983 190.092 166.604C182.59 163.455 175.062 160.38 167.19 158.272C159.322 156.151 151.253 154.627 143.573 152.009C135.865 149.471 128.411 146.212 121 142.794L122.576 145.696C132.466 116.765 139.922 86.9635 142.587 56.4462L141.812 56.2551C135.736 70.381 131.18 84.9467 127.1 99.7157C123.136 115.288 119.73 131.025 117.488 146.96L119.401 147.421C127.319 149.342 135.179 151.461 142.774 154.312C150.398 157.083 157.623 160.991 165.044 164.321C176.212 169.202 187.903 172.668 199.662 175.819C203.549 176.885 207.651 177.751 211.414 178.764L211.917 178.148L211.908 178.152Z" fill="#E8CEBF" fill-opacity="0.5"/>
<path d="M198.467 198.353C183.52 189.452 167.625 182.167 151.156 176.648C142.875 174.068 134.361 172.066 126.273 168.975C118.158 165.958 110.321 162.219 102.555 158.304L104.055 161.042C108.431 146.057 111.904 130.864 114.788 115.547C117.397 100.116 119.484 84.6679 120.012 68.9696L119.232 68.8142C115.101 79.8862 111.993 91.1337 109.152 102.538C104.309 122.186 101.065 142.204 99.0604 162.34L100.757 162.836C109.109 165.284 117.384 167.9 125.38 171.244C133.403 174.514 141.004 178.86 148.834 182.641C156.661 186.428 164.838 189.295 173.039 192.118C181.304 194.866 189.618 197.375 198.191 199.089L198.476 198.349L198.467 198.353Z" fill="#E8CEBF" fill-opacity="0.5"/>
<path d="M179.11 223.361C164.092 213.681 148.367 205.183 131.934 198.215C123.681 194.853 115.083 192.21 106.892 188.698C98.6964 185.199 90.8068 181.065 83.0601 176.621L84.2382 178.73C87.674 162.31 90.1534 145.7 92.0179 129.041C93.5465 112.289 94.5012 95.54 93.7872 78.6743L92.9986 78.5836C88.5556 94.8713 85.7753 111.417 83.5453 128.087C81.5876 145.293 80.3648 162.593 80.0535 179.915L81.2871 180.378C89.6444 183.537 97.8595 186.983 105.779 191.075C113.706 195.147 121.223 200.081 129.086 204.288C136.949 208.495 145.156 211.984 153.399 215.372C161.75 218.694 170.061 221.896 178.832 224.104L179.116 223.363L179.11 223.361Z" fill="#E8CEBF" fill-opacity="0.5"/>
<path d="M154.663 250.656C138.668 242.234 121.754 235.762 104.527 230.397C95.8737 227.908 86.97 226.149 78.3071 223.686C69.6539 221.196 61.2076 218.096 52.8884 214.605L54.1706 216.511L56.1565 202.669C60.1731 170.321 62.2558 137.715 59.7997 105.133L59.0032 105.085C55.1893 123.395 53.0491 141.892 51.5764 160.48C50.4191 178.761 49.9446 197.901 50.3985 216.27L50.4187 217.853L51.6807 218.176C60.412 220.43 69.0162 223.075 77.4068 226.329C85.7944 229.611 93.9364 233.611 102.322 236.878C110.732 240.1 119.348 242.69 127.997 245.17C136.666 247.597 145.425 249.794 154.365 251.392L154.649 250.652L154.663 250.656Z" fill="#E8CEBF" fill-opacity="0.5"/>
<path d="M168.584 236.246C152.383 227.749 135.262 221.202 117.832 215.755C109.072 213.227 100.068 211.432 91.3081 208.926C82.555 206.4 74.0046 203.255 65.5855 199.727L66.8556 201.749L69.6629 188.116C75.6018 156.203 79.6233 123.925 79.1089 91.3921L78.3159 91.2924C73.4198 109.262 70.1792 127.51 67.6092 145.903C65.3654 164 63.7517 182.997 63.1119 201.285L63.0377 202.962L64.3821 203.307C73.2198 205.6 81.9172 208.279 90.4186 211.58C98.9061 214.899 107.155 218.938 115.647 222.243C124.156 225.502 132.877 228.137 141.633 230.656C150.401 233.119 159.271 235.364 168.313 236.992L168.597 236.251L168.584 236.246Z" fill="#E8CEBF" fill-opacity="0.5"/>
<path d="M145.791 262.764C129.101 255.635 111.709 250.247 94.0218 246.253C85.1538 244.417 76.0904 243.346 67.2521 241.407C58.4089 239.482 49.743 236.882 41.1647 233.937L42.6745 235.964C44.8657 217.991 46.1713 199.198 46.7796 181.162C47.0696 162.8 46.767 144.47 44.7721 126.152L43.975 126.126C40.7507 144.266 39.1993 162.532 38.2466 180.872C37.6182 198.901 37.6824 217.761 38.6307 235.828L38.7042 237.596L40.1406 237.854C49.0666 239.448 57.9116 241.389 66.5703 244.009C75.2338 246.615 83.6789 250.092 92.3152 252.794C100.961 255.492 109.794 257.444 118.65 259.313C127.559 261.12 136.492 262.716 145.578 263.538L145.775 262.766L145.791 262.764Z" fill="#E8CEBF" fill-opacity="0.5"/>
<path d="M117.713 277.426C103.972 270.788 89.4602 265.875 74.7251 262.034C67.337 260.253 59.7184 259.293 52.2734 257.71C44.8236 256.14 37.5782 253.883 30.4158 251.295L31.6617 252.886C32.031 244.321 32.775 235.742 32.7472 227.192C33.1906 201.46 31.8968 175.737 27.115 150.383L26.3209 150.411C24.1756 167.511 23.7372 184.644 24.0644 201.806C24.6326 218.928 26.0965 235.991 28.2498 253.002L28.3946 254.367L29.4932 254.6C36.9388 256.161 44.2973 258.044 51.4579 260.617C58.6234 263.176 65.6152 266.358 72.8352 268.726C80.0623 271.075 87.4486 272.84 94.8712 274.505C102.352 276.094 109.839 277.519 117.499 278.2L117.717 277.435L117.713 277.426Z" fill="#E8CEBF" fill-opacity="0.5"/>
<path d="M94.8746 285.632C82.7655 279.979 69.9109 276.046 56.7854 273.687C50.2103 272.676 43.4561 272.407 36.9445 271.118C30.4208 269.862 24.0634 267.921 17.7744 265.688L19.4555 267.678C19.8111 261.038 19.9719 254.396 19.7719 247.75C19.6144 227.777 17.5787 207.891 12.6348 188.478L11.8401 188.528C10.1131 201.823 10.0404 215.108 10.5136 228.427C11.3198 242.281 12.9177 256.113 15.392 269.774L16.7726 269.937C23.4028 270.734 29.9646 271.822 36.3577 273.603C42.7628 275.351 48.9278 278.112 55.2695 280.138C61.6159 282.151 68.1475 283.365 74.6997 284.48C81.3184 285.537 87.948 286.356 94.6949 286.396L94.8794 285.619L94.8746 285.632Z" fill="#E8CEBF" fill-opacity="0.5"/>
</svg>
