<svg width="288" height="320" viewBox="0 0 288 320" fill="none" xmlns="http://www.w3.org/2000/svg">
<path d="M137.777 22.0566C137.797 22.0565 137.817 22.0664 137.837 22.0863L159.123 45.2294C159.153 45.2693 159.163 45.3292 159.153 45.3793C159.144 45.4293 159.104 45.4695 159.064 45.4697L136.564 45.5724C136.534 45.5725 136.514 45.5526 136.494 45.5327C136.474 45.5028 136.464 45.4729 136.463 45.4329L137.677 22.1871C137.677 22.1371 137.707 22.097 137.737 22.0768C137.747 22.0568 137.757 22.0567 137.777 22.0566ZM158.783 45.211L137.859 22.4563L136.663 45.3119L158.783 45.211Z" fill="#DDAF94"/>
<path d="M159.053 45.2097C159.073 45.2096 159.093 45.2196 159.103 45.2295L204.61 103.692C204.64 103.722 204.66 103.772 204.651 103.822C204.651 103.872 204.621 103.912 204.581 103.933L140.846 111.704C140.806 111.724 140.766 111.704 140.746 111.664C140.716 111.624 140.705 111.574 140.725 111.524L158.953 45.2902C158.963 45.2502 158.983 45.22 159.013 45.2099C159.033 45.2098 159.043 45.2098 159.053 45.2097ZM204.34 103.764L159.104 45.5395L140.984 111.363L204.34 103.764Z" fill="#DDAF94"/>
<path d="M140.825 111.444C140.855 111.443 140.895 111.473 140.915 111.513C140.935 111.573 140.926 111.643 140.886 111.683L124.434 190.029C124.404 190.059 124.364 190.06 124.334 190.04C124.303 190.02 124.283 189.97 124.283 189.92L99.7957 131.421C99.7954 131.361 99.8252 131.311 99.8551 131.301L140.795 111.444C140.805 111.444 140.815 111.444 140.825 111.444ZM124.472 189.659L140.247 111.996L99.9861 131.52L124.472 189.659Z" fill="#DDAF94"/>
<path d="M23.7603 -18.5433C23.8103 -18.5435 23.8506 -18.4937 23.8609 -18.4237L32.2824 87.0289C32.2826 87.0789 32.2729 87.129 32.233 87.1592C32.2031 87.1893 32.1531 87.1795 32.123 87.1497L9.51708 64.0126C9.48695 63.9828 9.47666 63.9228 9.47644 63.8728L23.6608 -18.4428C23.6705 -18.5028 23.7103 -18.543 23.7603 -18.5433ZM32.0611 86.75L23.7245 -17.6231L9.68632 63.8419L32.0611 86.75Z" fill="#DDAF94"/>
<path d="M99.8852 131.301C99.9152 131.301 99.9352 131.311 99.9553 131.34C99.9754 131.36 99.9856 131.4 99.9858 131.43L124.473 189.929C124.473 189.969 124.463 190.009 124.434 190.029C124.414 190.049 124.384 190.07 124.354 190.06L13.8354 133.744C13.7854 133.734 13.7551 133.674 13.7548 133.604C13.7545 133.534 13.7943 133.484 13.8542 133.484L99.8852 131.301ZM124.282 189.77L99.7963 131.561L14.9353 133.719L124.282 189.77Z" fill="#DDAF94"/>
<path d="M32.1817 86.9094C32.2017 86.9093 32.2118 86.9193 32.2218 86.9192L99.9251 131.311C99.9653 131.34 99.9855 131.4 99.9758 131.46C99.9661 131.52 99.9263 131.561 99.8863 131.561L13.8653 133.744C13.8253 133.744 13.7953 133.724 13.7851 133.684C13.7649 133.644 13.7647 133.594 13.7845 133.554L32.102 86.9798C32.1118 86.9297 32.1517 86.9096 32.1817 86.9094ZM99.4751 131.303L32.2231 87.2092L14.0241 133.463L99.4751 131.303Z" fill="#DDAF94"/>
<path d="M-1.51846 71.6131L9.40766 64.1631L-1.34328 109.983L-1.33936 110.843L9.66663 63.942C9.67641 63.8919 9.66613 63.8319 9.636 63.8021C9.61591 63.7822 9.59586 63.7723 9.57586 63.7724C9.56586 63.7724 9.54588 63.7725 9.53593 63.7825L-1.50982 71.3131L-1.50845 71.6131L-1.51846 71.6131Z" fill="#DDAF94"/>
<path d="M-1.60317 53.0433L9.38643 63.8832L-1.51972 71.3231L-1.51835 71.6231L9.61713 64.0322C9.64704 64.012 9.66684 63.9719 9.66661 63.9219C9.66643 63.8819 9.65622 63.832 9.62609 63.8021L-1.60463 52.7233L-1.60317 53.0433Z" fill="#DDAF94"/>
<path d="M159.053 45.2097C159.063 45.2097 159.073 45.2096 159.083 45.2196L198.882 64.7081C198.912 64.718 198.932 64.7579 198.943 64.7978L204.651 103.782C204.661 103.832 204.651 103.892 204.611 103.922C204.581 103.952 204.531 103.953 204.501 103.923L159.004 45.4699C158.964 45.4501 158.944 45.4102 158.943 45.3502C158.953 45.2702 158.993 45.21 159.053 45.2097ZM198.773 64.9286L159.796 45.8463L204.399 103.503L198.773 64.9286Z" fill="#DDAF94"/>
<path d="M242.164 -15.9603L242.174 -15.9604L273.968 -10.7455C273.998 -10.7456 274.029 -10.7158 274.039 -10.6858C274.049 -10.6559 274.059 -10.6059 274.049 -10.5759L254.55 66.394C254.541 66.454 254.491 66.4942 254.451 66.4844C254.411 66.4846 254.371 66.4348 254.36 66.3748L242.075 -15.8099C242.065 -15.8499 242.075 -15.89 242.094 -15.92C242.114 -15.9501 242.134 -15.9602 242.164 -15.9603ZM273.82 -10.5048L242.286 -15.6809L254.478 65.8543L273.82 -10.5048Z" fill="#DDAF94"/>
<path d="M242.164 -15.9603C242.174 -15.9604 242.174 -15.9604 242.184 -15.9604C242.224 -15.9506 242.255 -15.9108 242.265 -15.8608L254.55 66.334C254.55 66.374 254.551 66.414 254.531 66.4441C254.511 66.4742 254.481 66.4943 254.451 66.4944L198.853 64.9583C198.813 64.9584 198.783 64.9286 198.773 64.8886C198.753 64.8487 198.763 64.7886 198.782 64.7485L242.095 -15.91C242.104 -15.9401 242.134 -15.9602 242.164 -15.9603ZM254.33 66.225L242.106 -15.5101L199.042 64.6974L254.33 66.225Z" fill="#DDAF94"/>
<path d="M198.852 64.6882L254.46 66.2244C254.51 66.2242 254.55 66.274 254.55 66.344C254.551 66.404 254.521 66.4741 254.481 66.4843L204.601 103.932C204.551 103.953 204.491 103.913 204.481 103.843L198.773 64.8986C198.763 64.8787 198.753 64.8487 198.753 64.8287C198.752 64.7487 198.792 64.6885 198.852 64.6882ZM253.741 66.4677L198.983 64.9577L204.63 103.642L253.741 66.4677Z" fill="#DDAF94"/>
<path d="M172.088 0.449769C172.108 0.449677 172.138 0.459519 172.159 0.489427C172.189 0.52929 172.199 0.589268 172.179 0.639358L159.144 45.3993C159.134 45.4394 159.104 45.4695 159.074 45.4797C159.044 45.4898 159.014 45.4799 158.984 45.4501L137.698 22.307C137.668 22.2771 137.658 22.2372 137.657 22.1872C137.657 22.1472 137.687 22.107 137.717 22.0869L172.029 0.470031C172.058 0.449894 172.078 0.449814 172.088 0.449769ZM159.012 45.1199L171.91 0.830591L137.957 22.2158L159.012 45.1199Z" fill="#DDAF94"/>
<path d="M127.064 -4.71472L172.098 0.439715C172.138 0.449532 172.179 0.489366 172.189 0.549319C172.199 0.609272 172.179 0.669347 172.14 0.68953L137.828 22.2964C137.778 22.3266 137.728 22.2969 137.698 22.237L126.995 -4.50441C126.975 -4.52432 126.965 -4.56427 126.965 -4.59427C126.965 -4.65427 127.015 -4.69449 127.064 -4.71472ZM171.719 0.671458L127.236 -4.42552L137.817 22.0165L171.719 0.671458Z" fill="#DDAF94"/>
<path d="M238.848 -32.7654L242.044 -15.9398L172.908 0.256006L230.418 -32.7269L229.918 -32.7246L172.049 0.459912C171.999 0.49014 171.979 0.550235 171.989 0.620188C172 0.680142 172.05 0.71991 172.1 0.709682L242.176 -15.7004C242.205 -15.7106 242.225 -15.7306 242.235 -15.7607C242.255 -15.7908 242.255 -15.8308 242.245 -15.8607L239.038 -32.7663L238.848 -32.7654Z" fill="#DDAF94"/>
<path d="M242.164 -15.9603C242.194 -15.9605 242.234 -15.9406 242.245 -15.9007C242.265 -15.8608 242.265 -15.8008 242.245 -15.7507L198.933 64.8979C198.913 64.938 198.883 64.9581 198.853 64.9483C198.823 64.9484 198.793 64.9185 198.773 64.8786L172.009 0.630136C171.999 0.590181 171.989 0.550234 172.009 0.510142C172.019 0.470096 172.048 0.439952 172.078 0.439816L242.154 -15.9703C242.154 -15.9603 242.154 -15.9603 242.164 -15.9603ZM198.862 64.5782L241.936 -15.6493L172.23 0.679118L198.862 64.5782Z" fill="#DDAF94"/>
<path d="M229.918 -32.7246L172.168 0.389396L169.908 -32.4506L169.708 -32.4497L171.989 0.590198C171.989 0.630197 172.01 0.670112 172.04 0.689974C172.07 0.709837 172.1 0.71971 172.13 0.699573L230.428 -32.7269L229.918 -32.7246Z" fill="#DDAF94"/>
<path d="M172.089 0.449756C172.129 0.449573 172.159 0.479442 172.179 0.519352L198.942 64.7578C198.963 64.8077 198.963 64.8677 198.933 64.9079C198.903 64.948 198.863 64.9682 198.823 64.9484L159.024 45.4599C159.004 45.4499 158.984 45.4201 158.964 45.3901C158.953 45.3602 158.953 45.3202 158.963 45.2901L171.999 0.530153C172.009 0.480104 172.049 0.449939 172.089 0.449756C172.079 0.449802 172.089 0.449756 172.089 0.449756ZM198.642 64.5792L172.111 0.889662L159.193 45.2591L198.642 64.5792Z" fill="#DDAF94"/>
<path d="M169.708 -32.4497L171.978 0.430252L127.365 -4.67611L159.908 -32.405L159.538 -32.4033L127.015 -4.69451C126.975 -4.66432 126.965 -4.60429 126.975 -4.55434C126.985 -4.50439 127.016 -4.45452 127.066 -4.45475L172.09 0.699767C172.12 0.69963 172.15 0.689484 172.169 0.659393C172.189 0.629302 172.199 0.589272 172.199 0.549272L169.918 -32.4707L169.708 -32.4697L169.708 -32.4497Z" fill="#DDAF94"/>
<path d="M32.1818 86.9094C32.2018 86.9094 32.2219 86.9193 32.242 86.9392C32.2822 86.979 32.2925 87.0489 32.2728 87.109L13.9552 133.683C13.9453 133.713 13.9255 133.743 13.8955 133.743C13.8655 133.754 13.8455 133.744 13.8154 133.734L3.18475 124.842C3.15465 124.822 3.14445 124.782 3.13427 124.742C3.13409 124.702 3.1439 124.662 3.16377 124.632L32.1121 86.9497C32.1319 86.9197 32.1618 86.9095 32.1818 86.9094ZM13.824 133.424L31.8055 87.7112L3.39405 124.691L13.824 133.424Z" fill="#DDAF94"/>
<path d="M9.57594 63.7624C9.59594 63.7623 9.61598 63.7722 9.63607 63.7921L32.2419 86.9291C32.262 86.9491 32.2822 86.989 32.2824 87.029C32.2826 87.069 32.2728 87.109 32.2529 87.1291L3.30461 124.812C3.27479 124.852 3.22482 124.862 3.19468 124.832C3.15455 124.802 3.13433 124.752 3.14406 124.692L9.48645 63.8728C9.49622 63.8227 9.51603 63.7826 9.54599 63.7725C9.55599 63.7725 9.56594 63.7624 9.57594 63.7624ZM32.0325 87.0501L9.64768 64.142L3.37256 124.361L32.0325 87.0501Z" fill="#DDAF94"/>
<path d="M-1.27526 124.873L3.2047 124.852L13.0424 133.087L-1.26892 126.263L-1.26764 126.543L13.8354 133.744C13.8755 133.763 13.9354 133.733 13.9551 133.673C13.9748 133.613 13.9645 133.533 13.9143 133.503L3.28362 124.612C3.27358 124.602 3.25351 124.592 3.23351 124.592L-1.27645 124.613L-1.27526 124.873Z" fill="#DDAF94"/>
<path d="M-1.33938 110.833L9.31352 65.4436L3.14345 124.582L-1.27651 124.603L-1.27533 124.863L3.23464 124.842C3.28464 124.842 3.32441 124.792 3.33414 124.732L9.67653 63.9119C9.68621 63.8419 9.65593 63.782 9.60584 63.7623C9.59584 63.7623 9.59585 63.7623 9.58585 63.7623C9.54585 63.7625 9.50603 63.8027 9.49626 63.8528L-1.32329 109.973L-1.31936 110.833L-1.33938 110.833Z" fill="#DDAF94"/>
<path d="M-1.26773 126.533L13.6749 133.654L-1.15062 152.182L-1.14898 152.542L13.9252 133.703C13.955 133.673 13.9648 133.623 13.9546 133.573C13.9444 133.533 13.9242 133.493 13.8941 133.473L-1.26905 126.243L-1.26773 126.533Z" fill="#DDAF94"/>
<path d="M95.5723 56.2196C95.5923 56.2195 95.6224 56.2294 95.6425 56.2593L140.895 111.473C140.925 111.503 140.935 111.553 140.926 111.593C140.916 111.643 140.896 111.673 140.866 111.693L99.9263 131.551C99.8964 131.571 99.8663 131.561 99.8362 131.541C99.8062 131.521 99.796 131.481 99.7958 131.441L95.4832 56.41C95.4831 56.3901 95.473 56.3801 95.473 56.3601C95.4726 56.2801 95.5123 56.2199 95.5723 56.2196ZM140.645 111.524L95.6944 56.6791L99.9749 131.25L140.645 111.524Z" fill="#DDAF94"/>
<path d="M127.065 -4.71475C127.105 -4.71493 127.135 -4.68509 127.155 -4.64518L137.867 22.1262C137.887 22.1861 137.878 22.2662 137.828 22.2964L95.6335 56.4594C95.5936 56.4896 95.5436 56.4798 95.5134 56.4399C95.4832 56.3901 95.4729 56.3301 95.5026 56.27L126.995 -4.66444C127.005 -4.68449 127.035 -4.71461 127.065 -4.71475ZM137.647 22.1472L127.056 -4.32472L95.9211 55.9281L137.647 22.1472Z" fill="#DDAF94"/>
<path d="M23.7602 -18.5433L23.7703 -18.5433L127.074 -4.71477C127.104 -4.71491 127.145 -4.67511 127.155 -4.63515C127.165 -4.5952 127.165 -4.5452 127.145 -4.5051L95.6533 56.4293C95.6434 56.4594 95.6135 56.4795 95.5935 56.4796C95.5635 56.4797 95.5435 56.4798 95.5234 56.4499L23.7113 -18.313C23.6711 -18.3528 23.6609 -18.4128 23.6806 -18.4629C23.6804 -18.5129 23.7202 -18.5431 23.7602 -18.5433ZM126.886 -4.46391L24.0917 -18.2248L95.5522 56.1798L126.886 -4.46391Z" fill="#DDAF94"/>
<path d="M95.5724 56.2197C95.5924 56.2196 95.6124 56.2295 95.6225 56.2395C95.6426 56.2594 95.6628 56.2992 95.6629 56.3392L99.9757 131.41C99.976 131.46 99.9661 131.5 99.9363 131.531C99.9064 131.561 99.8664 131.561 99.8363 131.541L32.1329 87.1496C32.0929 87.1298 32.0726 87.0799 32.0724 87.0199C32.0721 86.9699 32.1019 86.9198 32.1418 86.8996L95.5424 56.2298C95.5524 56.2298 95.5624 56.2197 95.5724 56.2197ZM99.7748 131.211L95.4838 56.5401L32.4325 87.0583L99.7748 131.211Z" fill="#DDAF94"/>
<path d="M23.7602 -18.5433C23.7802 -18.5434 23.8003 -18.5334 23.8203 -18.5135L95.6324 56.2494C95.6626 56.2792 95.6728 56.3292 95.673 56.3792C95.6633 56.4292 95.6434 56.4693 95.6135 56.4795L32.2229 87.1592C32.1929 87.1693 32.163 87.1695 32.1429 87.1496C32.1228 87.1297 32.1026 87.0897 32.1024 87.0497L23.681 -18.3629C23.681 -18.3829 23.6709 -18.3929 23.6708 -18.4129C23.6605 -18.4828 23.7002 -18.543 23.7602 -18.5433ZM95.3727 56.3106L23.8822 -18.1138L32.2615 86.859L95.3727 56.3106Z" fill="#DDAF94"/>
<path d="M124.382 189.79C124.402 189.789 124.412 189.789 124.433 189.809C124.473 189.839 124.493 189.909 124.473 189.969L70.1013 253.188C70.0915 253.228 70.0616 253.258 70.0317 253.268C70.0017 253.278 69.9717 253.269 69.9416 253.239L53.9719 233.641C53.9317 233.592 53.9314 233.522 53.9611 233.462L124.313 189.83C124.323 189.81 124.352 189.79 124.382 189.79ZM69.9601 252.919L124.017 190.771L54.1615 233.541L69.9601 252.919Z" fill="#DDAF94"/>
<path d="M13.8642 133.474C13.8642 133.474 13.8742 133.473 13.8842 133.473L124.402 189.789C124.433 189.799 124.463 189.829 124.473 189.869C124.483 189.909 124.483 189.959 124.463 189.999L54.1118 233.621C54.092 233.661 54.0621 233.681 54.0321 233.671C54.0021 233.671 53.9719 233.641 53.9518 233.602L13.7851 133.664C13.7649 133.614 13.7646 133.564 13.7944 133.524C13.8043 133.494 13.8342 133.474 13.8642 133.474ZM124.203 190.01L14.0456 133.783L54.0404 233.311L124.203 190.01Z" fill="#DDAF94"/>
<path d="M159.053 45.2097C159.083 45.2096 159.113 45.2294 159.133 45.2593C159.153 45.2993 159.163 45.3392 159.143 45.3893L140.916 111.623C140.896 111.683 140.866 111.723 140.816 111.704C140.776 111.704 140.736 111.654 140.726 111.594L132.5 49.051C132.5 49.011 132.5 48.981 132.519 48.9509C132.539 48.9208 132.559 48.9007 132.589 48.9006L159.043 45.1998C159.053 45.2097 159.053 45.2097 159.053 45.2097ZM140.863 111.073L158.914 45.4903L132.72 49.15L140.863 111.073Z" fill="#DDAF94"/>
<path d="M136.553 45.3124L159.053 45.2097C159.103 45.2095 159.143 45.2593 159.153 45.3293C159.154 45.3993 159.114 45.4595 159.064 45.4697L132.611 49.1705C132.561 49.1707 132.52 49.1409 132.51 49.0809C132.49 49.021 132.51 48.961 132.549 48.9308L136.503 45.3427C136.523 45.3126 136.533 45.3125 136.553 45.3124ZM157.094 45.4787L136.584 45.5723L132.979 48.8488L157.094 45.4787Z" fill="#DDAF94"/>
<path d="M132.599 48.9005C132.649 48.9003 132.689 48.9401 132.7 49.0101L140.925 111.553C140.936 111.603 140.916 111.663 140.876 111.693C140.836 111.714 140.796 111.714 140.766 111.674L95.5134 56.4599C95.4832 56.4201 95.473 56.3701 95.4828 56.3201C95.4925 56.27 95.5224 56.2399 95.5624 56.2297L132.589 48.9106C132.589 48.9006 132.599 48.9005 132.599 48.9005ZM140.684 111.214L132.531 49.1809L95.8033 56.4386L140.684 111.214Z" fill="#DDAF94"/>
<path d="M137.777 22.0566C137.787 22.0566 137.787 22.0566 137.797 22.0565C137.847 22.0663 137.877 22.1262 137.877 22.1962L136.664 45.4419C136.664 45.4819 136.644 45.522 136.624 45.5421L132.67 49.1302C132.64 49.1604 132.59 49.1606 132.56 49.1307C132.53 49.1009 132.51 49.0409 132.52 48.9909L137.697 22.147C137.687 22.097 137.727 22.0568 137.777 22.0566ZM136.463 45.3629L137.604 23.6074L132.768 48.7298L136.463 45.3629Z" fill="#DDAF94"/>
<path d="M137.777 22.0566C137.797 22.0565 137.817 22.0664 137.837 22.0863C137.867 22.1162 137.887 22.1761 137.878 22.2262L132.71 49.07C132.7 49.1201 132.671 49.1602 132.631 49.1704L95.6036 56.4895C95.5637 56.4997 95.5135 56.4599 95.4932 56.4C95.4829 56.3401 95.4926 56.28 95.5325 56.2398L137.727 22.0769C137.737 22.0668 137.757 22.0567 137.777 22.0566ZM132.519 48.9109L137.619 22.4673L96.042 56.1275L132.519 48.9109Z" fill="#DDAF94"/>
<path d="M-0.62424 267.461L69.8818 253.299L57.1164 344.138L-0.558816 281.791L-0.557264 282.131L57.118 344.488C57.1482 344.518 57.1782 344.528 57.2181 344.508C57.2481 344.488 57.2779 344.458 57.2777 344.408L70.1013 253.168C70.1111 253.128 70.1008 253.078 70.0707 253.048C70.0506 253.018 70.0305 253.008 70.0005 253.008L69.9905 253.009L-0.615463 267.191L-0.61423 267.461L-0.62424 267.461Z" fill="#DDAF94"/>
<path d="M-0.642128 263.551L54.0022 233.701L69.7807 253.049L-0.62551 267.191L-0.624277 267.461L70.0117 253.278C70.0517 253.268 70.0815 253.238 70.0913 253.188C70.1011 253.138 70.0909 253.088 70.0607 253.048L54.091 233.451C54.0709 233.431 54.0509 233.411 54.0209 233.411C54.0109 233.411 54.0009 233.411 53.9809 233.421L-0.653431 263.261L-0.652107 263.551L-0.642128 263.551Z" fill="#DDAF94"/>
<path d="M-0.557284 282.131L56.7663 344.11L-0.36357 324.56L-0.362337 324.83L57.1581 344.508C57.1982 344.528 57.2481 344.498 57.2678 344.438C57.2875 344.377 57.2772 344.318 57.2371 344.278L-0.558836 281.791L-0.557284 282.131Z" fill="#DDAF94"/>
<path d="M-0.878856 211.692L13.8964 133.963L53.8912 233.482L-0.643368 263.271L-0.642089 263.551L54.0621 233.671C54.082 233.651 54.1119 233.631 54.1217 233.591C54.1315 233.551 54.1314 233.521 54.1112 233.481L13.9445 133.543C13.9244 133.503 13.8942 133.473 13.8642 133.473L13.8542 133.474C13.8142 133.474 13.7844 133.514 13.7747 133.574L-0.873594 210.652L-0.868846 211.692L-0.878856 211.692Z" fill="#DDAF94"/>
<path d="M-1.14884 152.552L13.6867 134.014L-0.883543 210.662L-0.878795 211.702L13.955 133.653C13.9648 133.593 13.9445 133.543 13.9044 133.503C13.8943 133.493 13.8743 133.483 13.8543 133.484C13.8243 133.484 13.8043 133.494 13.7844 133.514L-1.16047 152.192L-1.15882 152.552L-1.14884 152.552Z" fill="#DDAF94"/>
<path d="M286.073 14.3495L283.117 -32.9675L282.927 -32.9666L285.851 13.8505" fill="#DDAF94"/>
<path d="M285.851 13.8505L274.049 -10.6559L273.807 -32.925L273.607 -32.9241L273.849 -10.6149C273.849 -10.5949 273.859 -10.565 273.869 -10.545L285.893 14.4303" fill="#DDAF94"/>
<path d="M-1.95658 -24.3559L23.6413 -18.3027L9.5543 63.4225L-1.76118 18.4436L-1.75739 19.2737L9.47661 63.9328C9.48689 63.9928 9.53703 64.0225 9.57703 64.0224C9.61703 64.0222 9.65684 63.982 9.66657 63.9219L23.8509 -18.3837C23.8608 -18.4237 23.8507 -18.4537 23.8405 -18.4836C23.8304 -18.5136 23.8003 -18.5334 23.7802 -18.5433L-1.94781 -24.6259L-1.94657 -24.3559L-1.95658 -24.3559Z" fill="#DDAF94"/>
<path d="M-1.75734 19.2736L9.38489 63.5432L-1.60467 52.7133L-1.60316 53.0433L9.51704 64.0126C9.54718 64.0425 9.59717 64.0423 9.63704 64.0121C9.66685 63.972 9.68663 63.9218 9.67636 63.8619L-1.75112 18.4436L-1.74733 19.2736L-1.75734 19.2736Z" fill="#DDAF94"/>
</svg>
