<svg width="212" height="325" viewBox="0 0 212 325" fill="none" xmlns="http://www.w3.org/2000/svg">
<path d="M30.1438 323.665C46.623 219.42 86.8279 110.765 166.11 38.1352L174.704 30.4451C179.027 26.8689 183.828 23.1391 188.18 19.5555C191.55 17.1332 198.903 11.7818 202.237 9.33726C133.068 46.4784 85.4052 114.864 58.5184 187.344C42.5993 231.067 31.9764 277.113 30.1438 323.665Z" fill="#E8CEBF" fill-opacity="0.5"/>
<path d="M208.974 22.7305C204.744 20.9246 200.11 21.9747 195.824 22.6868C189.423 23.7183 184.085 26.9536 178.805 30.5204C173.335 33.829 167.097 34.5663 160.894 35.7749L164.794 40.4369C171.275 32.7643 176.89 24.4344 180.489 14.9957C181.703 11.8396 182.829 8.63189 183.514 5.13601L182.809 4.70005C172.128 13.1807 164.748 24.7022 159.368 37.0601L155.57 46.4027L163.267 41.7221C166.813 39.5651 170.235 36.9956 174.053 35.4505C177.871 33.7286 182.083 33.2592 186.215 32.7897C190.405 32.3204 194.171 30.753 197.901 29.1045C201.549 27.5663 205.235 25.2109 208.699 23.5251L208.974 22.7452L208.974 22.7305Z" fill="#E8CEBF" fill-opacity="0.5"/>
<path d="M211.135 44.6253C199.371 43.5392 187.729 44.3383 176.412 47.4721C170.835 49.2269 165.315 51.35 159.585 52.1768C153.876 53.1509 148.023 53.1822 142.176 53.324L145.334 57.2922C147.906 52.9242 149.977 48.3564 152.152 43.833C156.582 34.7863 159.997 25.3546 162.647 15.6192C163.939 10.7331 165.158 5.80999 165.831 0.672148L165.066 0.361234C152.157 18.3131 143.886 39.0878 138.612 60.4435C145.641 58.3531 152.788 55.7697 159.977 54.6369C165.671 53.6039 171.583 53.8672 177.429 53.7623C183.276 53.6647 188.94 52.4402 194.591 51.1125C200.226 49.7039 205.818 48.0301 211.258 45.4503L211.127 44.6327L211.135 44.6253Z" fill="#E8CEBF" fill-opacity="0.5"/>
<path d="M205.382 62.3058C191.954 61.2455 178.39 62.1066 165.241 64.8977C158.707 66.4811 152.266 68.6905 145.652 69.692C139.053 70.782 132.345 71.0618 125.607 71.1648L128.398 74.4253C131.017 68.6585 133.151 62.7508 135.218 56.8208C139.573 45.0129 142.921 32.8935 145.311 20.5364C146.496 14.3394 147.577 8.11276 148.07 1.70809L147.275 1.47075C135.394 23.8132 128.11 48.1611 123.512 72.9567L122.84 77.1374C130.458 75.0925 138.194 73.0626 146 72.2036C152.636 71.3788 159.439 71.7545 166.154 71.5116C172.87 71.276 179.447 70.0093 186.018 68.6985C192.633 67.2846 199.153 65.6202 205.498 63.1234L205.382 62.3058Z" fill="#E8CEBF" fill-opacity="0.5"/>
<path d="M203.645 85.5171C188.289 83.9445 172.752 84.2784 157.521 86.6526C149.934 88.0128 142.405 89.9916 134.76 90.6964C127.109 91.5189 119.4 91.4873 111.706 91.3452L114.504 94.51C116.787 87.7559 118.569 80.8976 120.322 74.0244C123.974 60.4847 126.722 46.1845 128.402 32.2944C129.242 25.2352 129.987 18.1463 130.143 10.9384L129.333 10.7672C118.665 37.1472 112.698 65.2311 109.367 93.409L109.005 97.1707C117.602 95.5256 126.242 93.7848 134.983 93.2076C142.635 92.5692 150.394 93.2121 158.095 93.229C165.804 93.2901 173.42 92.2613 181.028 91.2031C188.681 90.0345 196.26 88.6154 203.716 86.3419L203.645 85.5171Z" fill="#E8CEBF" fill-opacity="0.5"/>
<path d="M198.057 108.735C197.689 108.425 196.931 108.114 196.468 107.944C188.97 105.549 181.012 104.906 173.231 104.255C164.964 103.751 156.696 103.416 148.44 104.311C140.184 105.147 131.95 106.432 123.703 106.4C115.457 106.499 107.205 105.73 98.9302 105.064L101.898 108.097C105.281 79.72 106.39 51.0217 102.697 22.6001L101.873 22.5688C100.274 29.6337 99.2645 36.722 98.3286 43.8104C95.6017 65.0686 95.1497 86.479 96.0672 107.87L96.2733 111.221L99.0351 110.903C107.254 109.957 115.488 108.966 123.727 108.896C131.967 108.686 140.218 109.852 148.456 110.651C160.801 111.79 173.135 111.022 185.463 110.187C188.784 109.974 192.886 109.548 196.2 109.394L196.943 109.395L197.576 109.434L198.049 108.75L198.057 108.735Z" fill="#E8CEBF" fill-opacity="0.5"/>
<path d="M192.169 127.733C183.95 125.256 175.263 124.81 166.767 124.143C158.323 123.712 149.878 123.362 141.439 124.08C132.999 124.783 124.573 126.141 116.142 126.292C107.711 126.531 99.2746 125.975 90.8235 125.25L93.3882 127.531C92.8469 95.7585 89.6181 63.995 81.4541 33.2221L80.6292 33.3087C79.6738 49.2621 80.3605 65.1086 81.5847 80.9858C83.2048 97.6074 85.4287 114.194 88.8606 130.562L90.8933 130.338C99.3112 129.421 107.743 128.718 116.174 128.825C124.604 128.844 133.047 130.114 141.476 130.751C154.116 131.581 166.767 130.843 179.375 129.774C183.55 129.444 187.866 128.843 191.902 128.506L192.176 127.726L192.169 127.733Z" fill="#E8CEBF" fill-opacity="0.5"/>
<path d="M186.158 152.224C168.406 148.798 150.297 147.285 132.249 147.702C123.244 148.102 114.214 149.15 105.217 148.983C96.22 148.897 87.2392 148.008 78.2662 146.921L80.6986 149.069C79.6887 132.875 77.7213 116.798 75.1353 100.807C72.24 84.8012 68.829 68.9634 63.8048 53.4313L62.9872 53.5547C62.8571 65.8358 63.7878 77.9278 65.0348 90.0793C67.2345 110.995 71.1282 131.708 76.2742 152.1L78.1078 151.986C87.136 151.432 96.149 151.069 105.145 151.515C114.142 151.881 123.107 153.447 132.095 154.38C141.083 155.32 150.088 155.237 159.101 155.102C168.15 154.872 177.163 154.391 186.149 153.041L186.166 152.216L186.158 152.224Z" fill="#E8CEBF" fill-opacity="0.5"/>
<path d="M176.061 183.501C157.965 179.338 139.593 176.581 121.07 175.568C111.815 175.195 102.478 175.645 93.2317 175.102C83.985 174.574 74.8135 173.317 65.6723 171.706L67.5684 173.352C65.1324 156.088 61.6947 138.977 57.6382 122.033C53.2208 105.118 48.2434 88.408 41.5935 72.1728L40.7906 72.3625C42.1952 89.8525 45.3162 107.008 49.019 124.09C53.1774 141.601 58.0872 158.944 63.8958 175.988L65.2653 176.005C74.5496 176.144 83.7964 176.613 92.9827 177.819C102.169 179.002 111.258 181.172 120.429 182.51C129.6 183.848 138.854 184.362 148.108 184.765C157.444 185.066 166.699 185.263 176.052 184.326L176.068 183.501L176.061 183.501Z" fill="#E8CEBF" fill-opacity="0.5"/>
<path d="M161.795 218.812C143.187 216.223 124.369 215.865 105.636 216.7C96.298 217.32 86.9734 218.743 77.6358 219.393C68.2982 220.013 58.9474 219.963 49.5828 219.486L51.5088 220.896L48.5654 206.664C41.0764 173.625 31.6057 141.016 17.7064 110.032L16.9107 110.266C19.6442 129.511 24.0794 148.348 29.1997 167.039C34.5197 185.318 40.8103 204.196 47.7365 221.992L48.3148 223.532L49.6626 223.403C58.9933 222.525 68.3379 222.074 77.6883 222.294C87.046 222.543 96.4167 223.579 105.767 223.813C115.125 223.996 124.462 223.486 133.793 222.859C143.123 222.173 152.461 221.229 161.764 219.636L161.781 218.812L161.795 218.812Z" fill="#E8CEBF" fill-opacity="0.5"/>
<path d="M170.319 199.812C151.483 197.223 132.436 196.865 113.474 197.692C104.019 198.312 94.5841 199.734 85.136 200.376C75.688 200.996 66.2194 200.938 56.7444 200.461L58.6996 201.989L56.6326 187.671C51.1763 154.379 43.7165 121.406 31.7329 89.7852L30.9226 89.9675C32.4779 109.262 35.7495 128.243 39.7281 147.131C43.9212 165.613 49.0478 184.753 54.8763 202.857L55.3954 204.522L56.8315 204.385C66.2801 203.508 75.7277 203.057 85.2033 203.284C94.6714 203.534 104.16 204.57 113.628 204.805C123.096 204.988 132.552 204.486 142 203.858C151.44 203.172 160.904 202.236 170.317 200.637L170.334 199.812L170.319 199.812Z" fill="#E8CEBF" fill-opacity="0.5"/>
<path d="M157.396 233.779C138.564 232.699 119.661 233.57 100.962 235.908C91.6446 237.242 82.4068 239.394 73.0827 240.617C63.7585 241.856 54.3696 242.373 44.9447 242.522L47.1357 243.969C42.935 225.627 37.5793 206.795 31.8092 188.949C25.6125 170.897 18.8483 153.086 10.4335 135.882L9.64513 136.138C12.8949 155.009 17.8244 173.412 23.3654 191.677C29.1134 209.523 35.832 227.938 43.1348 245.264L43.8305 246.966L45.3258 246.712C54.6139 245.12 63.9454 243.896 73.3342 243.401C82.7231 242.892 92.2056 243.31 101.602 242.904C111.005 242.49 120.329 241.281 129.646 239.983C138.993 238.605 148.288 237.013 157.46 234.611L157.381 233.786L157.396 233.779Z" fill="#E8CEBF" fill-opacity="0.5"/>
<path d="M135.121 258.02C119.346 256.38 103.427 256.698 87.6671 258.144C79.8163 259.01 72.0299 260.76 64.1933 261.84C56.3568 262.934 48.4776 263.285 40.5625 263.283L42.3419 264.398C39.6805 255.896 37.3802 247.247 34.3356 238.898C25.6882 213.587 15.3461 188.898 1.72389 165.8L0.957485 166.108C4.89505 183.581 10.5126 200.484 16.8891 217.146C23.4867 233.683 30.9393 249.846 39.0478 265.716L39.6708 266.999L40.8271 266.839C48.6563 265.738 56.5143 264.982 64.4221 264.97C72.3299 264.943 80.2878 265.586 88.1814 265.353C96.075 265.098 103.918 264.217 111.762 263.226C119.635 262.138 127.458 260.889 135.186 258.852L135.129 258.027L135.121 258.02Z" fill="#E8CEBF" fill-opacity="0.5"/>
<path d="M115.692 274.102C101.86 272.849 87.9058 273.54 74.2424 275.866C67.4582 277.199 60.7607 279.319 53.9403 280.357C47.1199 281.432 40.2201 281.777 33.2841 281.814L35.6299 283.166C33.6344 276.55 31.4473 270 28.9065 263.574C21.7041 244.105 12.6962 225.383 1.01234 208.15L0.253261 208.48C3.25687 222.086 7.87425 235.099 13.0369 247.951C18.714 261.21 25.1575 274.168 32.3973 286.649L33.8043 286.321C40.5669 284.76 47.3656 283.509 54.2437 282.994C61.1219 282.442 68.1229 282.965 75.0373 282.708C81.9517 282.436 88.7648 281.317 95.5635 280.095C102.407 278.792 109.176 277.254 115.786 274.912L115.692 274.087L115.692 274.102Z" fill="#E8CEBF" fill-opacity="0.5"/>
</svg>
