<svg width="181" height="278" viewBox="0 0 181 278" fill="none" xmlns="http://www.w3.org/2000/svg">
<path d="M155.1 277.024C140.995 187.801 106.584 94.8042 38.7268 32.6401L31.3706 26.0581C27.6709 22.9972 23.5614 19.8049 19.8365 16.7378C16.952 14.6645 10.6589 10.0842 7.80584 7.99195C67.0066 39.781 107.802 98.3117 130.814 160.347C144.439 197.77 153.531 237.181 155.1 277.024Z" fill="#E8CEBF" fill-opacity="0.5"/>
<path d="M2.03986 19.4551C5.66006 17.9095 9.62593 18.8082 13.295 19.4178C18.7733 20.3006 23.342 23.0697 27.8609 26.1225C32.5431 28.9543 37.8822 29.5854 43.1907 30.6198L39.8532 34.61C34.3056 28.043 29.5005 20.9135 26.42 12.8349C25.3805 10.1337 24.4166 7.38816 23.8303 4.39604L24.4344 4.0229C33.5755 11.2815 39.8928 21.1427 44.4976 31.7198L47.748 39.7161L41.16 35.71C38.1248 33.8639 35.1959 31.6646 31.9286 30.3421C28.6609 28.8683 25.0554 28.4666 21.5191 28.0648C17.9324 27.6631 14.7092 26.3215 11.5173 24.9106C8.39496 23.5941 5.23959 21.5781 2.27452 20.1352L2.03988 19.4677L2.03986 19.4551Z" fill="#E8CEBF" fill-opacity="0.5"/>
<path d="M0.1901 38.1949C10.2585 37.2653 20.2233 37.9492 29.909 40.6314C34.6828 42.1334 39.4069 43.9505 44.3114 44.6582C49.1972 45.4919 54.2073 45.5187 59.2113 45.64L56.5089 49.0364C54.3076 45.2979 52.5345 41.3883 50.6732 37.5167C46.8814 29.7737 43.9584 21.7011 41.6903 13.3686C40.5846 9.18658 39.5418 4.97289 38.965 0.575425L39.6198 0.309317C50.6693 15.6743 57.7477 33.4553 62.2622 51.7336C56.2462 49.9444 50.1285 47.7333 43.9757 46.7637C39.1024 45.8796 34.0425 46.105 29.0385 46.0151C24.0346 45.9316 19.1862 44.8836 14.3501 43.7472C9.5265 42.5416 4.74016 41.109 0.0844898 38.9009L0.19642 38.2012L0.1901 38.1949Z" fill="#E8CEBF" fill-opacity="0.5"/>
<path d="M5.11359 53.3275C16.6063 52.42 28.216 53.157 39.4702 55.5459C45.0629 56.9011 50.575 58.7922 56.236 59.6494C61.8846 60.5823 67.6261 60.8217 73.3926 60.9099L71.004 63.7006C68.7622 58.7648 66.9362 53.7084 65.1668 48.6329C61.4391 38.5266 58.5741 28.1536 56.5279 17.5772C55.5142 12.2732 54.5887 6.94382 54.1671 1.46208L54.8472 1.25894C65.0164 20.3818 71.2507 41.2211 75.1857 62.4436L75.7607 66.0218C69.2407 64.2716 62.6199 62.5342 55.9382 61.799C50.2587 61.0931 44.4364 61.4147 38.6886 61.2067C32.9408 61.0051 27.3108 59.921 21.687 58.799C16.0252 57.5889 10.4449 56.1643 5.01428 54.0273L5.11359 53.3275Z" fill="#E8CEBF" fill-opacity="0.5"/>
<path d="M6.60054 73.194C19.7434 71.848 33.041 72.1339 46.0779 74.1659C52.5714 75.3301 59.0157 77.0238 65.5584 77.627C72.1076 78.331 78.7056 78.3039 85.2909 78.1823L82.8958 80.8911C80.9421 75.1102 79.4168 69.2402 77.9166 63.3575C74.7906 51.7688 72.4382 39.5294 71.0004 27.6408C70.2813 21.5989 69.6441 15.5315 69.5108 9.36226L70.2037 9.2158C79.3344 31.7944 84.4414 55.8312 87.2925 79.9487L87.6021 83.1683C80.2446 81.7602 72.8492 80.2703 65.3677 79.7763C58.8188 79.2299 52.1779 79.7801 45.5861 79.7946C38.9881 79.847 32.47 78.9664 25.9581 78.0606C19.4082 77.0604 12.9209 75.8458 6.53909 73.9L6.60054 73.194Z" fill="#E8CEBF" fill-opacity="0.5"/>
<path d="M11.384 93.0663C11.6986 92.8009 12.347 92.5348 12.7437 92.389C19.1609 90.3394 25.9721 89.7887 32.632 89.2321C39.7081 88.8006 46.7845 88.5141 53.8506 89.28C60.9166 89.9955 67.9646 91.0954 75.0227 91.0673C82.081 91.1526 89.144 90.4943 96.2261 89.9241L93.6858 92.5198C90.7902 68.2323 89.8414 43.6695 93.0018 19.3435L93.7076 19.3167C95.0758 25.3635 95.9399 31.4304 96.741 37.4974C99.0749 55.6922 99.4618 74.0173 98.6765 92.3261L98.5001 95.1938L96.1362 94.9217C89.1015 94.1117 82.0541 93.2638 75.0021 93.2037C67.9499 93.0238 60.8877 94.0225 53.8373 94.706C43.2712 95.6808 32.714 95.0234 22.163 94.3092C19.3205 94.1264 15.8095 93.7624 12.9733 93.63L12.3368 93.6314L11.795 93.664L11.3903 93.0789L11.384 93.0663Z" fill="#E8CEBF" fill-opacity="0.5"/>
<path d="M16.4229 109.327C23.4575 107.206 30.8929 106.824 38.164 106.254C45.3915 105.885 52.6192 105.586 59.8425 106.2C67.0658 106.802 74.2778 107.964 81.4937 108.093C88.7099 108.298 95.9308 107.822 103.164 107.201L100.969 109.153C101.432 81.9596 104.196 54.7733 111.183 28.4349L111.889 28.509C112.707 42.1634 112.119 55.7264 111.072 69.3156C109.685 83.5421 107.781 97.7382 104.844 111.748L103.104 111.556C95.8995 110.771 88.6825 110.17 81.467 110.261C74.2513 110.277 67.0254 111.364 59.8109 111.91C48.9921 112.62 38.1641 111.989 27.3732 111.073C23.7994 110.791 20.1053 110.276 16.6512 109.988L16.4166 109.32L16.4229 109.327Z" fill="#E8CEBF" fill-opacity="0.5"/>
<path d="M21.5673 130.288C36.7611 127.356 52.261 126.061 67.7077 126.418C75.4157 126.76 83.1439 127.657 90.8445 127.514C98.5453 127.44 106.232 126.68 113.912 125.749L111.83 127.588C112.694 113.728 114.378 99.9671 116.592 86.2808C119.07 72.5813 121.989 59.0258 126.289 45.7319L126.989 45.8375C127.1 56.3488 126.304 66.6983 125.237 77.0988C123.354 95.0004 120.021 112.729 115.617 130.182L114.047 130.085C106.32 129.61 98.6061 129.299 90.906 129.682C83.2057 129.995 75.5329 131.335 67.84 132.134C60.1472 132.938 52.4398 132.867 44.726 132.752C36.9805 132.554 29.2661 132.143 21.5752 130.988L21.561 130.282L21.5673 130.288Z" fill="#E8CEBF" fill-opacity="0.5"/>
<path d="M30.2097 157.059C45.6983 153.495 61.4226 151.135 77.2764 150.269C85.1972 149.949 93.1888 150.335 101.103 149.87C109.017 149.418 116.867 148.342 124.691 146.963L123.068 148.372C125.153 133.596 128.095 118.95 131.567 104.448C135.348 89.9704 139.608 75.6683 145.3 61.7727L145.987 61.935C144.785 76.9047 142.114 91.5877 138.945 106.209C135.385 121.196 131.183 136.04 126.211 150.628L125.039 150.643C117.093 150.761 109.179 151.163 101.316 152.195C93.4535 153.208 85.6747 155.065 77.8251 156.21C69.9754 157.356 62.0549 157.795 54.1341 158.14C46.1439 158.397 38.2227 158.566 30.2175 157.764L30.2034 157.059L30.2097 157.059Z" fill="#E8CEBF" fill-opacity="0.5"/>
<path d="M42.4194 187.281C58.3457 185.065 74.4527 184.759 90.4864 185.474C98.4784 186.004 106.459 187.222 114.451 187.778C122.443 188.308 130.447 188.266 138.462 187.857L136.813 189.065L139.333 176.884C145.742 148.606 153.848 120.696 165.745 94.1761L166.426 94.3763C164.086 110.848 160.29 126.971 155.908 142.968C151.354 158.613 145.97 174.771 140.042 190.003L139.547 191.321L138.394 191.21C130.407 190.459 122.409 190.073 114.406 190.261C106.397 190.474 98.3767 191.361 90.3738 191.561C82.3644 191.718 74.3726 191.282 66.3869 190.745C58.4011 190.157 50.4084 189.349 42.4461 187.987L42.432 187.281L42.4194 187.281Z" fill="#E8CEBF" fill-opacity="0.5"/>
<path d="M35.124 171.019C51.2457 168.803 67.5481 168.496 83.7771 169.204C91.8699 169.735 99.9453 170.952 108.032 171.501C116.118 172.032 124.223 171.983 132.332 171.574L130.659 172.882L132.428 160.627C137.098 132.133 143.483 103.911 153.74 76.8471L154.433 77.0031C153.102 93.517 150.302 109.763 146.896 125.929C143.308 141.748 138.92 158.13 133.931 173.625L133.487 175.05L132.258 174.933C124.171 174.182 116.085 173.797 107.974 173.991C99.8706 174.204 91.7494 175.092 83.6456 175.292C75.5416 175.449 67.449 175.019 59.3625 174.482C51.2821 173.895 43.1824 173.094 35.1256 171.725L35.1114 171.019L35.124 171.019Z" fill="#E8CEBF" fill-opacity="0.5"/>
<path d="M46.1851 200.091C62.3034 199.167 78.482 199.913 94.487 201.913C102.461 203.055 110.368 204.897 118.349 205.944C126.329 207.004 134.365 207.447 142.432 207.574L140.557 208.813C144.152 193.113 148.736 176.996 153.674 161.722C158.978 146.27 164.768 131.026 171.97 116.301L172.645 116.52C169.863 132.672 165.644 148.423 160.901 164.056C155.982 179.33 150.231 195.091 143.981 209.921L143.385 211.378L142.106 211.16C134.156 209.798 126.169 208.75 118.133 208.327C110.097 207.891 101.981 208.249 93.9393 207.901C85.8909 207.547 77.9104 206.512 69.9361 205.401C61.9364 204.222 53.9803 202.859 46.1299 200.803L46.1977 200.097L46.1851 200.091Z" fill="#E8CEBF" fill-opacity="0.5"/>
<path d="M65.2497 220.839C78.7516 219.435 92.377 219.708 105.866 220.945C112.585 221.686 119.25 223.184 125.957 224.108C132.664 225.045 139.408 225.345 146.182 225.343L144.659 226.298C146.937 219.021 148.906 211.618 151.512 204.472C158.913 182.809 167.765 161.678 179.424 141.908L180.08 142.172C176.71 157.127 171.902 171.594 166.445 185.855C160.798 200.009 154.419 213.843 147.479 227.426L146.946 228.524L145.956 228.387C139.255 227.444 132.529 226.797 125.761 226.787C118.993 226.764 112.182 227.315 105.426 227.115C98.6694 226.897 91.9563 226.143 85.2429 225.294C78.5041 224.364 71.8091 223.295 65.1946 221.551L65.2434 220.845L65.2497 220.839Z" fill="#E8CEBF" fill-opacity="0.5"/>
<path d="M81.8787 234.603C93.7176 233.531 105.661 234.123 117.355 236.113C123.162 237.254 128.894 239.069 134.732 239.957C140.57 240.877 146.475 241.173 152.412 241.204L150.404 242.362C152.112 236.699 153.984 231.092 156.158 225.592C162.323 208.929 170.033 192.905 180.033 178.156L180.683 178.438C178.112 190.083 174.16 201.221 169.741 212.221C164.882 223.569 159.367 234.66 153.171 245.343L151.966 245.062C146.178 243.726 140.359 242.655 134.472 242.214C128.585 241.742 122.593 242.19 116.675 241.969C110.757 241.737 104.926 240.779 99.1068 239.733C93.2499 238.618 87.4555 237.301 81.7983 235.297L81.8787 234.591L81.8787 234.603Z" fill="#E8CEBF" fill-opacity="0.5"/>
</svg>
