<svg width="212" height="341" viewBox="0 0 212 341" fill="none" xmlns="http://www.w3.org/2000/svg">
<path d="M190.182 339.685C172.887 230.28 130.692 116.248 47.4864 40.0228L38.4663 31.9521C33.9298 28.1989 28.8907 24.2845 24.3233 20.5236C20.7863 17.9813 13.0699 12.3651 9.57145 9.79955C82.1628 48.779 132.185 120.549 160.403 196.616C177.11 242.503 188.258 290.829 190.182 339.685Z" fill="#E8CEBF" fill-opacity="0.5"/>
<path d="M2.5014 23.8556C6.94046 21.9604 11.8034 23.0624 16.3023 23.8098C23.0198 24.8923 28.6219 28.2878 34.1629 32.0311C39.9042 35.5035 46.451 36.2773 52.9602 37.5457L48.8677 42.4384C42.0654 34.386 36.1733 25.6439 32.3961 15.738C31.1215 12.4258 29.9396 9.05925 29.2206 5.39035L29.9614 4.93281C41.1702 13.8332 48.9164 25.925 54.5626 38.8945L58.5483 48.6994L50.4702 43.7872C46.7484 41.5235 43.157 38.8268 39.1507 37.2052C35.1439 35.398 30.7228 34.9055 26.3867 34.4127C21.9887 33.9201 18.0364 32.2752 14.1226 30.5451C10.294 28.9308 6.42489 26.4588 2.78915 24.6895L2.50144 23.8711L2.5014 23.8556Z" fill="#E8CEBF" fill-opacity="0.5"/>
<path d="M0.233481 46.8341C12.5793 45.6942 24.798 46.5328 36.6745 49.8218C42.5281 51.6634 48.3208 53.8916 54.3346 54.7593C60.3255 55.7816 66.4688 55.8145 72.6047 55.9633L69.291 60.1279C66.5919 55.5438 64.4177 50.7499 62.1354 46.0026C57.4858 36.5082 53.9018 26.6096 51.1207 16.3924C49.7648 11.2644 48.4862 6.09766 47.7788 0.705525L48.5818 0.379224C62.1306 19.2196 70.81 41.0225 76.3457 63.4351C68.969 61.2413 61.4675 58.5301 53.923 57.3412C47.9474 56.257 41.7429 56.5334 35.6072 56.4233C29.4714 56.3208 23.5263 55.0357 17.5964 53.6424C11.6817 52.164 5.81272 50.4073 0.103991 47.6999L0.241235 46.8418L0.233481 46.8341Z" fill="#E8CEBF" fill-opacity="0.5"/>
<path d="M6.27061 65.3897C20.3628 64.2769 34.5986 65.1806 48.3983 68.1098C55.2561 69.7716 62.0149 72.0903 68.9564 73.1414C75.8826 74.2853 82.9229 74.579 89.9936 74.687L87.0648 78.109C84.316 72.0568 82.0769 65.8566 79.9073 59.6332C75.3364 47.2408 71.8233 34.5216 69.3143 21.5529C68.0714 15.0492 66.9365 8.51439 66.4195 1.79273L67.2535 1.54364C79.7229 24.9919 87.3673 50.5449 92.1923 76.5677L92.8975 80.9553C84.9027 78.8092 76.7843 76.6788 68.5913 75.7773C61.6271 74.9117 54.4879 75.306 47.44 75.051C40.3921 74.8038 33.4886 73.4745 26.5928 72.0987C19.6504 70.6149 12.8078 68.8681 6.14884 66.2477L6.27061 65.3897Z" fill="#E8CEBF" fill-opacity="0.5"/>
<path d="M8.09373 89.7498C24.2093 88.0993 40.5148 88.4498 56.5004 90.9415C64.4627 92.369 72.3646 94.4458 80.3872 95.1854C88.4178 96.0487 96.5083 96.0154 104.583 95.8663L101.646 99.1878C99.2506 92.0994 97.3803 84.9016 95.5408 77.6883C91.7077 63.4784 88.8232 48.4705 87.0603 33.8929C86.1785 26.4843 85.3972 19.0446 85.2337 11.4799L86.0833 11.3003C97.2793 38.9859 103.541 68.4597 107.037 98.0323L107.417 101.98C98.3954 100.254 89.3272 98.4267 80.1535 97.8209C72.1233 97.1509 63.9802 97.8256 55.8974 97.8434C47.8071 97.9075 39.8146 96.8278 31.8298 95.7172C23.7984 94.4907 15.8437 93.0014 8.01838 90.6154L8.09373 89.7498Z" fill="#E8CEBF" fill-opacity="0.5"/>
<path d="M13.9589 114.117C14.3446 113.792 15.1398 113.465 15.6262 113.286C23.4948 110.773 31.8466 110.098 40.0129 109.415C48.6896 108.886 57.3666 108.535 66.031 109.474C74.6953 110.352 83.3374 111.7 91.992 111.666C100.647 111.77 109.307 110.963 117.991 110.264L114.877 113.447C111.326 83.6657 110.163 53.5471 114.038 23.7188L114.903 23.6859C116.581 31.1005 117.641 38.5396 118.623 45.9789C121.485 68.2892 121.959 90.7592 120.996 113.209L120.78 116.726L117.881 116.392C109.255 115.399 100.614 114.359 91.9668 114.285C83.3194 114.065 74.6598 115.289 66.0147 116.127C53.0586 117.323 40.1135 116.517 27.176 115.641C23.6905 115.417 19.3854 114.97 15.9077 114.808L15.1272 114.81L14.4628 114.85L13.9666 114.132L13.9589 114.117Z" fill="#E8CEBF" fill-opacity="0.5"/>
<path d="M20.138 134.055C28.7637 131.455 37.8809 130.987 46.7967 130.287C55.659 129.835 64.5215 129.468 73.3787 130.221C82.2358 130.959 91.079 132.385 99.9272 132.543C108.776 132.794 117.63 132.21 126.499 131.449L123.808 133.843C124.376 100.498 127.764 67.1625 136.332 34.8665L137.198 34.9574C138.201 51.7003 137.48 68.3312 136.195 84.9941C134.495 102.438 132.161 119.846 128.559 137.024L126.426 136.789C117.591 135.827 108.742 135.089 99.8944 135.201C91.0466 135.221 82.1863 136.554 73.34 137.222C60.074 138.094 46.7968 137.319 33.5651 136.197C29.1829 135.851 24.6533 135.22 20.418 134.866L20.1302 134.047L20.138 134.055Z" fill="#E8CEBF" fill-opacity="0.5"/>
<path d="M26.4459 159.758C45.0763 156.162 64.0821 154.575 83.0228 155.013C92.4742 155.432 101.95 156.532 111.393 156.357C120.835 156.266 130.261 155.334 139.678 154.193L137.125 156.447C138.185 139.452 140.25 122.579 142.964 105.797C146.002 88.9984 149.582 72.3768 154.855 56.0759L155.713 56.2054C155.85 69.0943 154.873 81.7848 153.564 94.5378C151.256 116.489 147.169 138.227 141.768 159.628L139.844 159.509C130.369 158.927 120.91 158.546 111.468 159.015C102.026 159.399 92.6179 161.042 83.185 162.021C73.7521 163.008 64.3013 162.92 54.8428 162.779C45.3453 162.537 35.886 162.032 26.4555 160.616L26.4381 159.75L26.4459 159.758Z" fill="#E8CEBF" fill-opacity="0.5"/>
<path d="M37.0429 192.584C56.0349 188.215 75.316 185.321 94.7556 184.258C104.468 183.866 114.267 184.339 123.972 183.769C133.676 183.214 143.301 181.895 152.895 180.205L150.905 181.932C153.462 163.814 157.069 145.855 161.327 128.073C165.963 110.321 171.187 92.7837 178.166 75.745L179.008 75.9441C177.534 94.2998 174.259 112.304 170.373 130.232C166.008 148.61 160.856 166.811 154.759 184.698L153.322 184.717C143.578 184.862 133.874 185.354 124.233 186.62C114.592 187.862 105.054 190.139 95.4285 191.543C85.8033 192.948 76.0912 193.487 66.3789 193.91C56.5813 194.225 46.8685 194.432 37.0526 193.449L37.0352 192.584L37.0429 192.584Z" fill="#E8CEBF" fill-opacity="0.5"/>
<path d="M52.0145 229.642C71.5432 226.925 91.2935 226.55 110.954 227.426C120.753 228.077 130.54 229.57 140.339 230.251C150.139 230.902 159.953 230.85 169.781 230.349L167.759 231.829L170.848 216.893C178.708 182.219 188.648 147.996 203.235 115.478L204.07 115.723C201.201 135.921 196.546 155.69 191.173 175.306C185.589 194.49 178.987 214.302 171.718 232.98L171.111 234.596L169.697 234.46C159.904 233.539 150.097 233.066 140.284 233.296C130.463 233.557 120.629 234.645 110.816 234.891C100.995 235.082 91.1952 234.548 81.4032 233.889C71.6111 233.169 61.8106 232.178 52.0473 230.507L52.0299 229.642L52.0145 229.642Z" fill="#E8CEBF" fill-opacity="0.5"/>
<path d="M43.0691 209.702C62.8374 206.985 82.8272 206.608 102.727 207.476C112.65 208.127 122.552 209.62 132.468 210.293C142.384 210.944 152.321 210.883 162.265 210.382L160.213 211.986L162.382 196.96C168.109 162.02 175.938 127.415 188.514 94.2291L189.365 94.4204C187.732 114.67 184.299 134.591 180.123 154.413C175.723 173.81 170.342 193.898 164.225 212.897L163.681 214.645L162.173 214.501C152.257 213.58 142.342 213.108 132.398 213.346C122.461 213.607 112.503 214.695 102.566 214.941C92.6288 215.133 82.7057 214.606 72.7901 213.948C62.8821 213.228 52.9502 212.246 43.071 210.567L43.0537 209.702L43.0691 209.702Z" fill="#E8CEBF" fill-opacity="0.5"/>
<path d="M56.6317 245.349C76.3957 244.216 96.2339 245.131 115.859 247.584C125.637 248.984 135.332 251.242 145.118 252.527C154.904 253.826 164.757 254.369 174.648 254.525L172.349 256.044C176.758 236.794 182.378 217.03 188.434 198.301C194.937 179.355 202.036 160.662 210.868 142.607L211.695 142.876C208.285 162.681 203.111 181.995 197.296 201.164C191.263 219.893 184.212 239.219 176.548 257.403L175.818 259.19L174.249 258.923C164.501 257.252 154.707 255.967 144.854 255.448C135 254.913 125.048 255.353 115.187 254.926C105.319 254.492 95.533 253.223 85.7549 251.861C75.9457 250.415 66.1901 248.744 56.5641 246.223L56.6472 245.357L56.6317 245.349Z" fill="#E8CEBF" fill-opacity="0.5"/>
<path d="M80.0086 270.79C96.5645 269.069 113.272 269.403 129.812 270.92C138.051 271.829 146.223 273.666 154.447 274.799C162.672 275.948 170.941 276.316 179.248 276.314L177.38 277.484C180.173 268.561 182.587 259.484 185.783 250.722C194.858 224.158 205.712 198.248 220.008 174.007L220.813 174.329C216.68 192.668 210.785 210.407 204.093 227.893C197.169 245.249 189.347 262.212 180.837 278.868L180.183 280.214L178.97 280.046C170.753 278.89 162.506 278.097 154.207 278.084C145.908 278.056 137.556 278.731 129.272 278.487C120.988 278.219 112.756 277.294 104.524 276.254C96.261 275.113 88.0517 273.802 79.941 271.664L80.0009 270.798L80.0086 270.79Z" fill="#E8CEBF" fill-opacity="0.5"/>
<path d="M100.399 287.668C114.916 286.354 129.561 287.079 143.901 289.52C151.021 290.918 158.05 293.144 165.208 294.233C172.366 295.361 179.607 295.724 186.886 295.762L184.424 297.181C186.518 290.238 188.814 283.363 191.48 276.619C199.039 256.187 208.493 236.538 220.755 218.453L221.552 218.798C218.399 233.078 213.554 246.735 208.135 260.223C202.177 274.138 195.415 287.738 187.817 300.837L186.34 300.492C179.243 298.854 172.108 297.541 164.889 297C157.67 296.421 150.323 296.97 143.066 296.7C135.81 296.415 128.659 295.241 121.524 293.958C114.343 292.591 107.238 290.976 100.301 288.518L100.399 287.653L100.399 287.668Z" fill="#E8CEBF" fill-opacity="0.5"/>
</svg>
